<svg width="96" height="96" viewBox="0 0 96 96" fill="none" xmlns="http://www.w3.org/2000/svg">
<rect width="96" height="96" rx="36" fill="url(#paint0_linear_2811_5885)"/>
<rect x="0.5" y="0.5" width="95" height="95" rx="35.5" stroke="black" stroke-opacity="0.2"/>
<path fill-rule="evenodd" clip-rule="evenodd" d="M35.3771 23C26.2543 27.6153 20 37.0773 20 48C20 63.464 32.536 76 48 76C63.464 76 76 63.464 76 48C76 37.0773 69.7457 27.6153 60.6229 23H35.3771Z" fill="url(#paint1_linear_2811_5885)"/>
<path fill-rule="evenodd" clip-rule="evenodd" d="M33.1882 35.5694L33.9263 36.2697L32.5498 37.7206L31.8117 37.0203L33.1882 35.5694ZM34.6644 36.9699L36.1406 38.3704L34.7641 39.8213L33.2879 38.4208L34.6644 36.9699ZM36.8787 39.0706L38.3549 40.4711L36.9784 41.922L35.5022 40.5216L36.8787 39.0706ZM39.093 41.1714L40.5692 42.5718L39.1927 44.0228L37.7165 42.6223L39.093 41.1714ZM41.3073 43.2721L42.7835 44.6726L41.407 46.1235L39.9308 44.723L41.3073 43.2721ZM43.5216 45.3728L44.9978 46.7733L43.6212 48.2242L42.1451 46.8238L43.5216 45.3728ZM45.7359 47.4736L47.2121 48.874L45.8355 50.325L44.3593 48.9245L45.7359 47.4736ZM47.9501 49.5743L48.6882 50.2745L47.3117 51.7255L46.5736 51.0252L47.9501 49.5743Z" fill="#DB1D18"/>
<path fill-rule="evenodd" clip-rule="evenodd" d="M64.1835 37.7424L48.6699 51.7424L47.33 50.2576L62.8435 36.2576L64.1835 37.7424Z" fill="#E12A21"/>
<path fill-rule="evenodd" clip-rule="evenodd" d="M47 31.4524V30.5H49V31.4524H47ZM47 34.3095V32.4048H49V34.3095H47ZM47 37.1667V35.2619H49V37.1667H47ZM47 40.0238V38.119H49V40.0238H47ZM47 42.881V40.9762H49V42.881H47ZM47 45.7381V43.8333H49V45.7381H47ZM47 48.5952V46.6905H49V48.5952H47ZM47 50.5V49.5476H49V50.5H47Z" fill="#DB1D18"/>
<path fill-rule="evenodd" clip-rule="evenodd" d="M48 42.5C45.3759 42.5 43.0152 43.5951 41.3634 45.3434L40.6365 44.6566C42.4714 42.7145 45.0926 41.5 48 41.5V42.5Z" fill="#DF271F"/>
<path d="M67.1157 33.3104L60 35.1195L65.8074 40.5349L67.1157 33.3104Z" fill="#DD211B"/>
<path d="M28.8074 32.8074L30.367 39.9819L35.9819 34.3671L28.8074 32.8074Z" fill="#DC1E19"/>
<path d="M47.9909 26.903L51.9612 33.079H44.0206L47.9909 26.903Z" fill="#DC1E19"/>
<defs>
<linearGradient id="paint0_linear_2811_5885" x1="0" y1="0" x2="0" y2="96" gradientUnits="userSpaceOnUse">
<stop stop-color="#D30C0C"/>
<stop offset="1" stop-color="#FF7051"/>
</linearGradient>
<linearGradient id="paint1_linear_2811_5885" x1="48" y1="21" x2="48" y2="75" gradientUnits="userSpaceOnUse">
<stop stop-color="white"/>
<stop offset="1" stop-color="white" stop-opacity="0.8"/>
</linearGradient>
</defs>
</svg>
