<svg width="96" height="96" viewBox="0 0 96 96" fill="none" xmlns="http://www.w3.org/2000/svg">
<path d="M0 36C0 16.1177 16.1177 0 36 0H60C79.8823 0 96 16.1177 96 36V60C96 79.8823 79.8823 96 60 96H36C16.1177 96 0 79.8823 0 60V36Z" fill="url(#paint0_linear_1775_1185)"/>
<path d="M36 0.5H60C79.6061 0.5 95.5 16.3939 95.5 36V60C95.5 79.6061 79.6061 95.5 60 95.5H36C16.3939 95.5 0.5 79.6061 0.5 60V36C0.5 16.3939 16.3939 0.5 36 0.5Z" stroke="black" stroke-opacity="0.2"/>
<g filter="url(#filter0_d_1775_1185)">
<path d="M48.4 75.4C43.0599 75.4 37.8397 73.8165 33.3996 70.8497C28.9595 67.8829 25.4988 63.6661 23.4553 58.7325C21.4117 53.7988 20.877 48.3701 21.9188 43.1326C22.9606 37.8951 25.5321 33.0841 29.3081 29.3081C33.0841 25.5321 37.8951 22.9606 43.1326 21.9188C48.3701 20.877 53.7988 21.4117 58.7325 23.4553C63.6661 25.4988 67.8829 28.9595 70.8497 33.3996C73.8165 37.8397 75.4 43.0599 75.4 48.4C75.392 55.5584 72.5447 62.4213 67.483 67.483C62.4213 72.5447 55.5584 75.392 48.4 75.4ZM48.4 25.2576C43.8229 25.2576 39.3485 26.6149 35.5428 29.1578C31.737 31.7007 28.7708 35.3151 27.0192 39.5438C25.2676 43.7725 24.8094 48.4257 25.7023 52.9149C26.5953 57.404 28.7994 61.5276 32.0359 64.7641C35.2724 68.0007 39.396 70.2047 43.8852 71.0977C48.3743 71.9907 53.0275 71.5324 57.2562 69.7808C61.4849 68.0292 65.0993 65.063 67.6422 61.2572C70.1851 57.4515 71.5424 52.9771 71.5424 48.4C71.5352 42.2645 69.0947 36.3823 64.7562 32.0438C60.4177 27.7053 54.5355 25.2648 48.4 25.2576Z" fill="url(#paint1_linear_1775_1185)"/>
</g>
<g filter="url(#filter1_d_1775_1185)">
<path d="M48.4 61.9C45.73 61.9 43.1199 61.1082 40.8998 59.6248C38.6797 58.1414 36.9494 56.033 35.9276 53.5662C34.9058 51.0994 34.6385 48.385 35.1594 45.7663C35.6803 43.1475 36.9661 40.7421 38.8541 38.8541C40.7421 36.9661 43.1475 35.6803 45.7663 35.1594C48.385 34.6385 51.0994 34.9058 53.5662 35.9276C56.033 36.9494 58.1414 38.6797 59.6248 40.8998C61.1082 43.1199 61.9 45.73 61.9 48.4C61.8955 51.979 60.4718 55.4102 57.941 57.941C55.4102 60.4718 51.979 61.8955 48.4 61.9ZM48.4 36.8288C46.1114 36.8288 43.8743 37.5075 41.9714 38.7789C40.0685 40.0504 38.5854 41.8575 37.7096 43.9719C36.8338 46.0863 36.6047 48.4128 37.0512 50.6574C37.4976 52.902 38.5997 54.9638 40.2179 56.5821C41.8362 58.2003 43.898 59.3024 46.1426 59.7488C48.3872 60.1953 50.7137 59.9662 52.8281 59.0904C54.9425 58.2146 56.7496 56.7315 58.0211 54.8286C59.2925 52.9257 59.9712 50.6886 59.9712 48.4C59.9676 45.3322 58.7474 42.3911 56.5781 40.2219C54.4089 38.0526 51.4678 36.8324 48.4 36.8288Z" fill="url(#paint2_linear_1775_1185)"/>
</g>
<g filter="url(#filter2_d_1775_1185)">
<path d="M48.4 53.4625C47.7275 53.4748 47.0593 53.3529 46.4345 53.1041C45.8096 52.8552 45.2406 52.4843 44.7607 52.0131C44.2808 51.5419 43.8996 50.9797 43.6393 50.3595C43.3791 49.7393 43.2451 49.0734 43.2451 48.4008C43.2451 47.7282 43.3791 47.0624 43.6393 46.4422C43.8996 45.822 44.2808 45.2598 44.7607 44.7886C45.2406 44.3173 45.8096 43.9465 46.4345 43.6976C47.0593 43.4488 47.7275 43.3269 48.4 43.3392C49.7264 43.3634 50.9904 43.9073 51.9198 44.8539C52.8493 45.8005 53.3701 47.0742 53.3701 48.4008C53.3701 49.7275 52.8493 51.0011 51.9198 51.9477C50.9904 52.8944 49.7264 53.4383 48.4 53.4625Z" fill="url(#paint3_linear_1775_1185)"/>
</g>
<defs>
<filter id="filter0_d_1775_1185" x="18.4" y="19.4" width="60" height="60" filterUnits="userSpaceOnUse" color-interpolation-filters="sRGB">
<feFlood flood-opacity="0" result="BackgroundImageFix"/>
<feColorMatrix in="SourceAlpha" type="matrix" values="0 0 0 0 0 0 0 0 0 0 0 0 0 0 0 0 0 0 127 0" result="hardAlpha"/>
<feOffset dy="1"/>
<feGaussianBlur stdDeviation="1.5"/>
<feComposite in2="hardAlpha" operator="out"/>
<feColorMatrix type="matrix" values="0 0 0 0 0.200521 0 0 0 0 0.46441 0 0 0 0 0.9625 0 0 0 1 0"/>
<feBlend mode="normal" in2="BackgroundImageFix" result="effect1_dropShadow_1775_1185"/>
<feBlend mode="normal" in="SourceGraphic" in2="effect1_dropShadow_1775_1185" result="shape"/>
</filter>
<filter id="filter1_d_1775_1185" x="31.9" y="32.9" width="33" height="33" filterUnits="userSpaceOnUse" color-interpolation-filters="sRGB">
<feFlood flood-opacity="0" result="BackgroundImageFix"/>
<feColorMatrix in="SourceAlpha" type="matrix" values="0 0 0 0 0 0 0 0 0 0 0 0 0 0 0 0 0 0 127 0" result="hardAlpha"/>
<feOffset dy="1"/>
<feGaussianBlur stdDeviation="1.5"/>
<feComposite in2="hardAlpha" operator="out"/>
<feColorMatrix type="matrix" values="0 0 0 0 0.200521 0 0 0 0 0.46441 0 0 0 0 0.9625 0 0 0 1 0"/>
<feBlend mode="normal" in2="BackgroundImageFix" result="effect1_dropShadow_1775_1185"/>
<feBlend mode="normal" in="SourceGraphic" in2="effect1_dropShadow_1775_1185" result="shape"/>
</filter>
<filter id="filter2_d_1775_1185" x="40.2451" y="41.3383" width="16.125" height="16.125" filterUnits="userSpaceOnUse" color-interpolation-filters="sRGB">
<feFlood flood-opacity="0" result="BackgroundImageFix"/>
<feColorMatrix in="SourceAlpha" type="matrix" values="0 0 0 0 0 0 0 0 0 0 0 0 0 0 0 0 0 0 127 0" result="hardAlpha"/>
<feOffset dy="1"/>
<feGaussianBlur stdDeviation="1.5"/>
<feComposite in2="hardAlpha" operator="out"/>
<feColorMatrix type="matrix" values="0 0 0 0 0.200521 0 0 0 0 0.46441 0 0 0 0 0.9625 0 0 0 1 0"/>
<feBlend mode="normal" in2="BackgroundImageFix" result="effect1_dropShadow_1775_1185"/>
<feBlend mode="normal" in="SourceGraphic" in2="effect1_dropShadow_1775_1185" result="shape"/>
</filter>
<linearGradient id="paint0_linear_1775_1185" x1="0" y1="0" x2="0" y2="96" gradientUnits="userSpaceOnUse">
<stop stop-color="#1162FA"/>
<stop offset="1" stop-color="#5892FF"/>
</linearGradient>
<linearGradient id="paint1_linear_1775_1185" x1="48.4" y1="36.025" x2="48.4" y2="75.4" gradientUnits="userSpaceOnUse">
<stop stop-color="white"/>
<stop offset="1" stop-color="#C4DBFF"/>
</linearGradient>
<linearGradient id="paint2_linear_1775_1185" x1="48.4" y1="42.2125" x2="48.4" y2="61.9" gradientUnits="userSpaceOnUse">
<stop stop-color="white"/>
<stop offset="1" stop-color="#C4DBFF"/>
</linearGradient>
<linearGradient id="paint3_linear_1775_1185" x1="48.3076" y1="46.0805" x2="48.3076" y2="53.4633" gradientUnits="userSpaceOnUse">
<stop stop-color="white"/>
<stop offset="1" stop-color="#C4DBFF"/>
</linearGradient>
</defs>
</svg>
