<svg width="96" height="96" viewBox="0 0 96 96" fill="none" xmlns="http://www.w3.org/2000/svg">
<rect width="96" height="96" fill="#F5F5F5"/>
<g id="&#229;&#183;&#165;&#228;&#189;&#156;&#228;&#184;&#173;&#229;&#191;&#131;" clip-path="url(#clip0_1062_14464)">
<rect width="800" height="1648" transform="translate(-516 -322)" fill="#F5F7FA"/>
<g id="&#229;&#141;&#161;&#231;&#137;&#135;&#229;&#140;&#186;&#229;&#159;&#159;">
<g id="&#229;&#143;&#175;&#231;&#188;&#150;&#232;&#190;&#145;&#229;&#141;&#161;&#231;&#137;&#135;">
<rect width="800" height="210" transform="translate(-516 -64)" fill="white"/>
<g id="&#230;&#172;&#161;&#232;&#166;&#129;&#228;&#191;&#161;&#230;&#129;&#175;&#229;&#140;&#186;&#229;&#159;&#159;">
<g id="&#229;&#138;&#159;&#232;&#131;&#189;&#230;&#140;&#137;&#233;&#146;&#174;">
<g id="icon-&#230;&#181;&#139;&#232;&#175;&#149;">
<rect width="96" height="96" rx="36" fill="url(#paint0_linear_1062_14464)"/>
<g id="Group 3">
<g id="Vector" filter="url(#filter0_d_1062_14464)">
<path d="M67.2308 73H28.7692C25.3077 73 23 70.3077 23 67.2308V28.7692C23 25.3077 25.6923 23 28.7692 23H67.2308C70.6923 23 73 25.6923 73 28.7692V67.2308C73 70.6923 70.6923 73 67.2308 73Z" fill="url(#paint1_linear_1062_14464)"/>
</g>
<path id="Vector_2" d="M47.3646 37.1202L52.375 51.7762L56.2292 45.8346C56.6146 45.0424 57.3854 45.0424 57.7708 45.0424H67.7917C67.7917 47.8151 65.8646 49.7957 63.5521 49.7957H59.3125L53.5312 58.5101C52.7604 59.6984 51.6042 59.6984 50.4479 58.9062C50.0625 58.5101 50.0625 58.114 49.6771 57.7179L44.6667 43.0618L40.8125 49.0035C40.4271 49.7957 39.6562 49.7957 39.2708 49.7957H29.25C29.25 47.0229 31.1771 45.4385 33.4896 45.4385H37.3437L43.5104 36.3279C44.2812 35.5357 45.8229 35.1396 46.5938 35.9318C46.9792 36.3279 46.9792 36.724 47.3646 37.1202Z" fill="#2393EB"/>
</g>
<rect x="0.5" y="0.5" width="95" height="95" rx="35.5" stroke="black" stroke-opacity="0.2"/>
</g>
</g>
</g>
</g>
</g>
</g>
<defs>
<filter id="filter0_d_1062_14464" x="20" y="21" width="56" height="56" filterUnits="userSpaceOnUse" color-interpolation-filters="sRGB">
<feFlood flood-opacity="0" result="BackgroundImageFix"/>
<feColorMatrix in="SourceAlpha" type="matrix" values="0 0 0 0 0 0 0 0 0 0 0 0 0 0 0 0 0 0 127 0" result="hardAlpha"/>
<feOffset dy="1"/>
<feGaussianBlur stdDeviation="1.5"/>
<feComposite in2="hardAlpha" operator="out"/>
<feColorMatrix type="matrix" values="0 0 0 0 0.341176 0 0 0 0 0.541176 0 0 0 0 0.764706 0 0 0 0.5 0"/>
<feBlend mode="normal" in2="BackgroundImageFix" result="effect1_dropShadow_1062_14464"/>
<feBlend mode="normal" in="SourceGraphic" in2="effect1_dropShadow_1062_14464" result="shape"/>
</filter>
<linearGradient id="paint0_linear_1062_14464" x1="0" y1="0" x2="0" y2="96" gradientUnits="userSpaceOnUse">
<stop stop-color="#1E91EA"/>
<stop offset="1" stop-color="#7BB0F5"/>
</linearGradient>
<linearGradient id="paint1_linear_1062_14464" x1="48" y1="36.5417" x2="48" y2="73" gradientUnits="userSpaceOnUse">
<stop stop-color="white"/>
<stop offset="1" stop-color="#D9EAFF"/>
</linearGradient>
<clipPath id="clip0_1062_14464">
<rect width="800" height="1648" fill="white" transform="translate(-516 -322)"/>
</clipPath>
</defs>
</svg>
