<svg width="96" height="96" viewBox="0 0 96 96" fill="none" xmlns="http://www.w3.org/2000/svg">
<rect width="96" height="96" fill="#F5F5F5"/>
<g id="&#229;&#183;&#165;&#228;&#189;&#156;&#228;&#184;&#173;&#229;&#191;&#131;" clip-path="url(#clip0_1062_14464)">
<rect width="800" height="1648" transform="translate(-188 -322)" fill="#F5F7FA"/>
<g id="&#229;&#141;&#161;&#231;&#137;&#135;&#229;&#140;&#186;&#229;&#159;&#159;">
<g id="&#229;&#143;&#175;&#231;&#188;&#150;&#232;&#190;&#145;&#229;&#141;&#161;&#231;&#137;&#135;">
<rect width="800" height="210" transform="translate(-188 -64)" fill="white"/>
<g id="&#230;&#172;&#161;&#232;&#166;&#129;&#228;&#191;&#161;&#230;&#129;&#175;&#229;&#140;&#186;&#229;&#159;&#159;">
<g id="&#229;&#138;&#159;&#232;&#131;&#189;&#230;&#140;&#137;&#233;&#146;&#174;">
<g id="icon-&#230;&#139;&#134;&#230;&#184;&#133;&#228;&#187;&#187;&#229;&#138;&#161;">
<rect width="96" height="96" rx="36" fill="url(#paint0_linear_1062_14464)"/>
<g id="Vector" filter="url(#filter0_d_1062_14464)">
<path d="M33.0647 66.3601C34.1693 66.3601 35.0647 67.2555 35.0647 68.3601V73C35.0647 74.1046 34.1693 75 33.0647 75H28.1121C27.0075 75 26.1121 74.1046 26.1121 73V68.3601C26.1121 67.2555 27.0075 66.3601 28.1121 66.3601H33.0647ZM49.4779 63.4792C50.5825 63.4792 51.4779 64.3747 51.4779 65.4792V73C51.4779 74.1046 50.5825 75 49.4779 75H41.541C40.4365 75 39.5411 74.1046 39.5411 73V65.4792C39.5411 64.3747 40.4365 63.4792 41.5411 63.4792H49.4779ZM43.8696 24.1272C48.866 19.9962 55.0931 19.9962 62.0505 23.9004L62.1585 23.9652L62.5166 24.2514C62.9714 24.6402 63.0708 24.8805 63.0168 25.7282L62.9202 26.8082L62.5138 27.2672L62.2608 27.5372C62.1886 27.6136 62.103 27.6775 62.0079 27.7262L61.5958 27.8882C61.4395 27.9403 61.28 27.9836 61.1183 28.0178L59.1203 28.4201C58.3814 28.5794 57.722 28.7441 57.0911 28.9412L56.4686 29.1464C55.4682 29.4974 54.6355 29.9024 54.0074 30.356C50.7475 32.7158 50.0227 36.4957 52.5863 39.3037L75.5786 62.1963C76.363 62.9773 76.3639 64.2467 75.5807 65.0288L69.6677 70.9336C68.8971 71.7031 67.6524 71.7146 66.8677 70.9595L41.9114 46.9446V48.2703L35.2288 54.1006C34.4405 54.7884 33.2554 54.7524 32.5102 54.0182L24.4273 46.0534C23.6395 45.2771 23.6314 44.0087 24.4092 43.2223L30.7533 36.8089L32.9843 36.8062V34.3709L43.8696 24.1272ZM30.0796 56.2793C31.1845 56.2788 32.0805 57.1744 32.0805 58.2793V60.0401C32.0805 61.1447 31.1851 62.0401 30.0805 62.0401H28.1121C27.0075 62.0401 26.1121 61.1447 26.1121 60.0401V58.2802C26.1121 57.176 27.007 56.2807 28.1112 56.2802L30.0796 56.2793Z" fill="url(#paint1_linear_1062_14464)"/>
</g>
<rect x="0.5" y="0.5" width="95" height="95" rx="35.5" stroke="black" stroke-opacity="0.2"/>
</g>
</g>
</g>
</g>
</g>
</g>
<defs>
<filter id="filter0_d_1062_14464" x="20.8311" y="19" width="58.3364" height="60" filterUnits="userSpaceOnUse" color-interpolation-filters="sRGB">
<feFlood flood-opacity="0" result="BackgroundImageFix"/>
<feColorMatrix in="SourceAlpha" type="matrix" values="0 0 0 0 0 0 0 0 0 0 0 0 0 0 0 0 0 0 127 0" result="hardAlpha"/>
<feOffset dy="1"/>
<feGaussianBlur stdDeviation="1.5"/>
<feComposite in2="hardAlpha" operator="out"/>
<feColorMatrix type="matrix" values="0 0 0 0 0.290196 0 0 0 0 0.635294 0 0 0 0 0.133333 0 0 0 0.5 0"/>
<feBlend mode="normal" in2="BackgroundImageFix" result="effect1_dropShadow_1062_14464"/>
<feBlend mode="normal" in="SourceGraphic" in2="effect1_dropShadow_1062_14464" result="shape"/>
</filter>
<linearGradient id="paint0_linear_1062_14464" x1="0" y1="0" x2="0" y2="96" gradientUnits="userSpaceOnUse">
<stop stop-color="#51BE23"/>
<stop offset="1" stop-color="#6EDF37"/>
</linearGradient>
<linearGradient id="paint1_linear_1062_14464" x1="50.0303" y1="18.0832" x2="50.0303" y2="75.2998" gradientUnits="userSpaceOnUse">
<stop stop-color="white"/>
<stop offset="1" stop-color="#DAFFC8"/>
</linearGradient>
<clipPath id="clip0_1062_14464">
<rect width="800" height="1648" fill="white" transform="translate(-188 -322)"/>
</clipPath>
</defs>
</svg>
