<svg width="96" height="96" viewBox="0 0 96 96" fill="none" xmlns="http://www.w3.org/2000/svg">
<rect width="96" height="96" rx="36" fill="url(#paint0_linear_2811_5782)"/>
<rect x="0.5" y="0.5" width="95" height="95" rx="35.5" stroke="black" stroke-opacity="0.2"/>
<path fill-rule="evenodd" clip-rule="evenodd" d="M69.9159 43C69.803 42.8754 69.5689 42.6656 69.0963 42.3863C68.1193 41.8088 66.5723 41.2194 64.4855 40.6976C60.3426 39.6619 54.5131 39 48 39C41.4869 39 35.6574 39.6619 31.5145 40.6976C29.4277 41.2194 27.8807 41.8088 26.9037 42.3863C26.4311 42.6656 26.197 42.8754 26.0841 43C26.197 43.1246 26.4311 43.3344 26.9037 43.6137C27.8807 44.1912 29.4277 44.7806 31.5145 45.3024C35.6574 46.3381 41.4869 47 48 47C54.5131 47 60.3426 46.3381 64.4855 45.3024C66.5723 44.7806 68.1193 44.1912 69.0963 43.6137C69.5689 43.3344 69.803 43.1246 69.9159 43ZM48 49C61.2548 49 72 46.3137 72 43C72 39.6863 61.2548 37 48 37C34.7452 37 24 39.6863 24 43C24 46.3137 34.7452 49 48 49Z" fill="white"/>
<path d="M48 49C61.2548 49 72 46.3137 72 43V61C72 70.9411 61.2548 79 48 79C34.7452 79 24 70.9411 24 61V43C24 46.3137 34.7452 49 48 49Z" fill="url(#paint1_linear_2811_5782)"/>
<g filter="url(#filter0_d_2811_5782)">
<path d="M52 25L55.7394 25C56.6075 25 57.0633 26.0303 56.4793 26.6727L48.7399 35.1861C48.3431 35.6225 47.6568 35.6225 47.26 35.1861L39.5206 26.6727C38.9366 26.0303 39.3924 25 40.2605 25L44 25L43.9999 18C43.9999 17.4477 44.4477 17 44.9999 17H51C51.5522 17 52 17.4477 52 18V25Z" fill="url(#paint2_linear_2811_5782)"/>
</g>
<path d="M31 19H34V22H31V19Z" fill="white"/>
<path d="M24 23H27V26H24V23Z" fill="white"/>
<path d="M24 34H27V37H24V34Z" fill="white"/>
<path d="M35 35H32V38H35V35Z" fill="white"/>
<path d="M38 29H35V32H38V29Z" fill="white"/>
<path d="M27 29H30V32H27V29Z" fill="white"/>
<path d="M40 42H37V45H40V42Z" fill="white"/>
<path d="M36 22H39V25H36V22Z" fill="white"/>
<path d="M65 34H62V37H65V34Z" fill="white"/>
<path d="M63 19H66V22H63V19Z" fill="white"/>
<path d="M59 42H56V45H59V42Z" fill="white"/>
<path d="M47 40H50V43H47V40Z" fill="white"/>
<path d="M60 22H57V25H60V22Z" fill="white"/>
<path d="M65 27H68V30H65V27Z" fill="white"/>
<path d="M61 29H58V32H61V29Z" fill="white"/>
<path d="M68 34H71V37H68V34Z" fill="white"/>
<path d="M72 22H69V25H72V22Z" fill="white"/>
<defs>
<filter id="filter0_d_2811_5782" x="36.2585" y="15" width="23.4828" height="24.5134" filterUnits="userSpaceOnUse" color-interpolation-filters="sRGB">
<feFlood flood-opacity="0" result="BackgroundImageFix"/>
<feColorMatrix in="SourceAlpha" type="matrix" values="0 0 0 0 0 0 0 0 0 0 0 0 0 0 0 0 0 0 127 0" result="hardAlpha"/>
<feOffset dy="1"/>
<feGaussianBlur stdDeviation="1.5"/>
<feComposite in2="hardAlpha" operator="out"/>
<feColorMatrix type="matrix" values="0 0 0 0 0.137255 0 0 0 0 0.611765 0 0 0 0 0.541176 0 0 0 0.5 0"/>
<feBlend mode="normal" in2="BackgroundImageFix" result="effect1_dropShadow_2811_5782"/>
<feBlend mode="normal" in="SourceGraphic" in2="effect1_dropShadow_2811_5782" result="shape"/>
</filter>
<linearGradient id="paint0_linear_2811_5782" x1="0" y1="0" x2="0" y2="96" gradientUnits="userSpaceOnUse">
<stop stop-color="#02BFA3"/>
<stop offset="0.0001" stop-color="#06BA9E"/>
<stop offset="1" stop-color="#67D0C4"/>
</linearGradient>
<linearGradient id="paint1_linear_2811_5782" x1="48" y1="43" x2="48" y2="79" gradientUnits="userSpaceOnUse">
<stop stop-color="white" stop-opacity="0.9"/>
<stop offset="1" stop-color="white" stop-opacity="0.8"/>
</linearGradient>
<linearGradient id="paint2_linear_2811_5782" x1="48.0098" y1="16" x2="48.0098" y2="35.6162" gradientUnits="userSpaceOnUse">
<stop stop-color="white"/>
<stop offset="1" stop-color="#D9FCF7"/>
</linearGradient>
</defs>
</svg>
