<svg width="96" height="96" viewBox="0 0 96 96" fill="none" xmlns="http://www.w3.org/2000/svg">
<rect width="96" height="96" rx="36" fill="url(#paint0_linear_2811_5864)"/>
<rect x="0.5" y="0.5" width="95" height="95" rx="35.5" stroke="black" stroke-opacity="0.2"/>
<path d="M61.8437 32C64.0383 32 66.0518 33.1995 67.2174 35.0589C68.9632 37.844 71.7234 41.8407 74.386 44C76.815 45.9699 80 48 80 48C80 48 76.815 50.0301 74.386 52C71.7234 54.1593 68.9632 58.156 67.2174 60.9411C66.0518 62.8005 64.0383 64 61.8437 64H60V32H61.8437Z" fill="url(#paint1_linear_2811_5864)"/>
<path d="M52 32V64H41V32H52Z" fill="url(#paint2_linear_2811_5864)"/>
<path d="M33 32V64H30C22.268 64 16 57.732 16 50V46C16 38.268 22.268 32 30 32H33Z" fill="url(#paint3_linear_2811_5864)"/>
<path d="M51 28C51 27.4477 51.4477 27 52 27H60C60.5523 27 61 27.4477 61 28C61 28.5523 60.5523 29 60 29H57V67H60C60.5523 67 61 67.4477 61 68C61 68.5523 60.5523 69 60 69H52C51.4477 69 51 68.5523 51 68C51 67.4477 51.4477 67 52 67H55V29L52 29C51.4477 29 51 28.5523 51 28Z" fill="url(#paint4_linear_2811_5864)"/>
<path d="M32 28C32 27.4477 32.4477 27 33 27H41C41.5523 27 42 27.4477 42 28C42 28.5523 41.5523 29 41 29H38V67H41C41.5523 67 42 67.4477 42 68C42 68.5523 41.5523 69 41 69H33C32.4477 69 32 68.5523 32 68C32 67.4477 32.4477 67 33 67H36V29L33 29C32.4477 29 32 28.5523 32 28Z" fill="url(#paint5_linear_2811_5864)"/>
<defs>
<linearGradient id="paint0_linear_2811_5864" x1="0" y1="0" x2="0" y2="96" gradientUnits="userSpaceOnUse">
<stop stop-color="#51BE23"/>
<stop offset="1" stop-color="#6EDF37"/>
</linearGradient>
<linearGradient id="paint1_linear_2811_5864" x1="37" y1="32" x2="37.5" y2="63.5" gradientUnits="userSpaceOnUse">
<stop stop-color="white"/>
<stop offset="1" stop-color="white" stop-opacity="0.8"/>
</linearGradient>
<linearGradient id="paint2_linear_2811_5864" x1="37" y1="32" x2="37.5" y2="63.5" gradientUnits="userSpaceOnUse">
<stop stop-color="white"/>
<stop offset="1" stop-color="white" stop-opacity="0.8"/>
</linearGradient>
<linearGradient id="paint3_linear_2811_5864" x1="37" y1="32" x2="37.5" y2="63.5" gradientUnits="userSpaceOnUse">
<stop stop-color="white"/>
<stop offset="1" stop-color="white" stop-opacity="0.8"/>
</linearGradient>
<linearGradient id="paint4_linear_2811_5864" x1="56.7143" y1="67.0938" x2="56.7143" y2="68.9688" gradientUnits="userSpaceOnUse">
<stop stop-color="white"/>
<stop offset="0.905" stop-color="white" stop-opacity="0.8"/>
</linearGradient>
<linearGradient id="paint5_linear_2811_5864" x1="37.7143" y1="67.0938" x2="37.7143" y2="68.9688" gradientUnits="userSpaceOnUse">
<stop stop-color="white"/>
<stop offset="0.905" stop-color="white" stop-opacity="0.8"/>
</linearGradient>
</defs>
</svg>
