<svg width="96" height="96" viewBox="0 0 96 96" fill="none" xmlns="http://www.w3.org/2000/svg">
<rect width="96" height="96" rx="36" fill="url(#paint0_linear_2811_5842)"/>
<rect x="0.5" y="0.5" width="95" height="95" rx="35.5" stroke="black" stroke-opacity="0.2"/>
<circle cx="48" cy="48" r="26" fill="url(#paint1_linear_2811_5842)"/>
<path fill-rule="evenodd" clip-rule="evenodd" d="M48 58C53.5228 58 58 53.5228 58 48C58 42.4772 53.5228 38 48 38C42.4772 38 38 42.4772 38 48C38 53.5228 42.4772 58 48 58ZM48 60C54.6274 60 60 54.6274 60 48C60 41.3726 54.6274 36 48 36C41.3726 36 36 41.3726 36 48C36 54.6274 41.3726 60 48 60Z" fill="#5ECC2C"/>
<circle cx="48" cy="48" r="5" fill="#5ECC2C"/>
<rect x="47" y="22" width="2" height="6" fill="#5ECC2C"/>
<rect x="47" y="16" width="2" height="6" fill="white"/>
<rect x="47" y="74" width="2" height="6" fill="white"/>
<rect x="16" y="49" width="2" height="6" transform="rotate(-90 16 49)" fill="white"/>
<rect x="74" y="49" width="2" height="6" transform="rotate(-90 74 49)" fill="white"/>
<rect x="47" y="68" width="2" height="6" fill="#5ECC2C"/>
<rect x="22" y="49" width="2" height="6" transform="rotate(-90 22 49)" fill="#5ECC2C"/>
<rect x="68" y="49" width="2" height="6" transform="rotate(-90 68 49)" fill="#5ECC2C"/>
<defs>
<linearGradient id="paint0_linear_2811_5842" x1="0" y1="0" x2="0" y2="96" gradientUnits="userSpaceOnUse">
<stop stop-color="#51BE23"/>
<stop offset="1" stop-color="#6EDF37"/>
</linearGradient>
<linearGradient id="paint1_linear_2811_5842" x1="48" y1="22" x2="48" y2="74" gradientUnits="userSpaceOnUse">
<stop stop-color="white"/>
<stop offset="1" stop-color="white" stop-opacity="0.8"/>
</linearGradient>
</defs>
</svg>
