<svg width="96" height="96" viewBox="0 0 96 96" fill="none" xmlns="http://www.w3.org/2000/svg">
<rect width="96" height="96" fill="#F5F5F5"/>
<g id="&#229;&#183;&#165;&#228;&#189;&#156;&#228;&#184;&#173;&#229;&#191;&#131;" clip-path="url(#clip0_1062_14464)">
<rect width="800" height="1648" transform="translate(-188 -936)" fill="#F5F7FA"/>
<g id="&#229;&#141;&#161;&#231;&#137;&#135;&#229;&#140;&#186;&#229;&#159;&#159;">
<g id="&#229;&#143;&#175;&#231;&#188;&#150;&#232;&#190;&#145;&#229;&#141;&#161;&#231;&#137;&#135;">
<rect width="800" height="372" transform="translate(-188 -64)" fill="white"/>
<g id="&#230;&#172;&#161;&#232;&#166;&#129;&#228;&#191;&#161;&#230;&#129;&#175;&#229;&#140;&#186;&#229;&#159;&#159;">
<g id="&#229;&#138;&#159;&#232;&#131;&#189;&#230;&#140;&#137;&#233;&#146;&#174;">
<g id="icon-&#231;&#148;&#159;&#228;&#186;&#167;&#229;&#143;&#145;&#230;&#150;&#153;">
<rect width="96" height="96" rx="36" fill="url(#paint0_linear_1062_14464)"/>
<g id="Union" filter="url(#filter0_d_1062_14464)">
<path d="M72 39.217C72 37.8378 71.2895 36.556 70.12 35.825L50.12 23.325C48.8229 22.5143 47.1771 22.5143 45.88 23.325L25.88 35.825C24.7105 36.556 24 37.8378 24 39.217V66C24 68.2091 25.7909 70 28 70H68C70.2091 70 72 68.2091 72 66V39.217Z" fill="url(#paint1_linear_1062_14464)" shape-rendering="crispEdges"/>
</g>
<path id="Union_2" fill-rule="evenodd" clip-rule="evenodd" d="M60 53.381L60 51.0469C60 50.16 61.0688 49.712 61.7011 50.3338L68.2749 56.7979C68.6734 57.1898 68.6734 57.8321 68.2749 58.224L61.7011 64.6881C61.0688 65.3099 60 64.8619 60 63.975L60 61.6409L56 61.6409C55.4477 61.6409 55 61.1932 55 60.6409L55 54.381C55 53.8287 55.4477 53.381 56 53.381L60 53.381Z" fill="#54C125"/>
<rect id="Rectangle 33" x="30" y="38" width="36" height="3" rx="1.5" fill="#55C226"/>
<rect id="Rectangle 34" x="30" y="44" width="36" height="3" rx="1.5" fill="#55C226"/>
<rect id="Rectangle 35" x="30" y="50" width="22" height="3" rx="1.5" fill="#55C226"/>
<rect id="Rectangle 36" x="30" y="56" width="22" height="3" rx="1.5" fill="#55C226"/>
<rect id="Rectangle 37" x="30" y="62" width="22" height="3" rx="1.5" fill="#55C226"/>
<rect x="0.5" y="0.5" width="95" height="95" rx="35.5" stroke="black" stroke-opacity="0.2"/>
</g>
</g>
</g>
</g>
</g>
</g>
<defs>
<filter id="filter0_d_1062_14464" x="21" y="20.717" width="54" height="53.283" filterUnits="userSpaceOnUse" color-interpolation-filters="sRGB">
<feFlood flood-opacity="0" result="BackgroundImageFix"/>
<feColorMatrix in="SourceAlpha" type="matrix" values="0 0 0 0 0 0 0 0 0 0 0 0 0 0 0 0 0 0 127 0" result="hardAlpha"/>
<feOffset dy="1"/>
<feGaussianBlur stdDeviation="1.5"/>
<feComposite in2="hardAlpha" operator="out"/>
<feColorMatrix type="matrix" values="0 0 0 0 0.301961 0 0 0 0 0.647059 0 0 0 0 0.145098 0 0 0 0.5 0"/>
<feBlend mode="normal" in2="BackgroundImageFix" result="effect1_dropShadow_1062_14464"/>
<feBlend mode="normal" in="SourceGraphic" in2="effect1_dropShadow_1062_14464" result="shape"/>
</filter>
<linearGradient id="paint0_linear_1062_14464" x1="0" y1="0" x2="0" y2="96" gradientUnits="userSpaceOnUse">
<stop stop-color="#51BE23"/>
<stop offset="1" stop-color="#6EDF37"/>
</linearGradient>
<linearGradient id="paint1_linear_1062_14464" x1="48" y1="35" x2="48" y2="70" gradientUnits="userSpaceOnUse">
<stop stop-color="white"/>
<stop offset="1" stop-color="white" stop-opacity="0.8"/>
</linearGradient>
<clipPath id="clip0_1062_14464">
<rect width="800" height="1648" fill="white" transform="translate(-188 -936)"/>
</clipPath>
</defs>
</svg>
