<svg width="96" height="96" viewBox="0 0 96 96" fill="none" xmlns="http://www.w3.org/2000/svg">
<rect width="96" height="96" fill="#F5F5F5"/>
<g id="&#229;&#183;&#165;&#228;&#189;&#156;&#228;&#184;&#173;&#229;&#191;&#131;" clip-path="url(#clip0_1062_14464)">
<rect width="800" height="1648" transform="translate(-680 -1324)" fill="#F5F7FA"/>
<g id="&#229;&#141;&#161;&#231;&#137;&#135;&#229;&#140;&#186;&#229;&#159;&#159;">
<g id="&#229;&#143;&#175;&#231;&#188;&#150;&#232;&#190;&#145;&#229;&#141;&#161;&#231;&#137;&#135;">
<rect width="800" height="372" transform="translate(-680 -64)" fill="white"/>
<g id="&#230;&#172;&#161;&#232;&#166;&#129;&#228;&#191;&#161;&#230;&#129;&#175;&#229;&#140;&#186;&#229;&#159;&#159;">
<g id="&#229;&#138;&#159;&#232;&#131;&#189;&#230;&#140;&#137;&#233;&#146;&#174;">
<g id="icon-&#229;&#157;&#169;&#229;&#159;&#154;&#231;&#187;&#132;&#232;&#163;&#133;">
<rect width="96" height="96" rx="36" fill="url(#paint0_linear_1062_14464)"/>
<g id="Group 9">
<path id="Union" fill-rule="evenodd" clip-rule="evenodd" d="M52 62H54.7732C55.636 62 56.0938 63.0195 55.5206 63.6644L49.7474 70.1592C49.3496 70.6067 48.6504 70.6067 48.2526 70.1592L42.4794 63.6644C41.9062 63.0195 42.364 62 43.2268 62H46L46 55.5C46 55.2239 46.2239 55 46.5 55H51.5C51.7761 55 52 55.2239 52 55.5V62Z" fill="url(#paint1_linear_1062_14464)"/>
<g id="Group 5">
<path id="Ellipse 3" d="M72.4961 36.377C72.6578 36.6666 72.782 36.9611 72.8666 37.2598L72.3855 37.3961C72.4616 37.6649 72.5 37.9353 72.5 38.2075C72.5 38.4798 72.4616 38.7502 72.3855 39.019L72.8666 39.1553C72.782 39.454 72.6578 39.7485 72.4961 40.0381L72.0596 39.7942C71.8039 40.2518 71.436 40.7083 70.9553 41.1578L71.2969 41.523C71.0722 41.7331 70.8268 41.9394 70.5617 42.1418L70.2584 41.7442C69.8059 42.0894 69.289 42.4253 68.7112 42.7493L68.9558 43.1855C68.6843 43.3377 68.4007 43.4869 68.1056 43.6328L67.884 43.1845C67.3505 43.4483 66.7763 43.702 66.1642 43.9444L66.3483 44.4093C66.0572 44.5246 65.758 44.6372 65.4512 44.747L65.2827 44.2763C64.7108 44.481 64.1109 44.6761 63.485 44.8608L63.6265 45.3404C63.3242 45.4296 63.0161 45.5164 62.7024 45.6006L62.5727 45.1177C61.9788 45.2772 61.3643 45.4276 60.7308 45.5683L60.8391 46.0564C60.5309 46.1248 60.2182 46.191 59.9015 46.2548L59.8028 45.7646C59.195 45.887 58.5716 46.0006 57.9337 46.105L58.0144 46.5984C57.7015 46.6496 57.3852 46.6986 57.0657 46.7453L56.9933 46.2506C56.3756 46.3409 55.7456 46.4227 55.1044 46.4955L55.1608 46.9923C54.8458 47.0281 54.5282 47.0617 54.2081 47.0932L54.1593 46.5956C53.536 46.6568 52.9031 46.7096 52.2614 46.7537L52.2957 47.2525C51.9779 47.2743 51.6581 47.2941 51.3364 47.3116L51.3092 46.8123C50.6826 46.8465 50.0484 46.8723 49.4074 46.8895L49.4209 47.3894C49.1025 47.3979 48.7825 47.4044 48.461 47.4087L48.4544 46.9087C48.1377 46.913 47.8195 46.9151 47.5 46.9151C47.1805 46.9151 46.8623 46.913 46.5456 46.9087L46.539 47.4087C46.2175 47.4044 45.8975 47.3979 45.5791 47.3894L45.5926 46.8895C44.9516 46.8723 44.3174 46.8465 43.6908 46.8123L43.6636 47.3116C43.3419 47.2941 43.0221 47.2743 42.7043 47.2525L42.7386 46.7537C42.0969 46.7096 41.464 46.6568 40.8407 46.5956L40.7919 47.0932C40.4718 47.0617 40.1542 47.0281 39.8392 46.9923L39.8956 46.4955C39.2544 46.4227 38.6244 46.3409 38.0067 46.2506L37.9343 46.7453C37.6148 46.6986 37.2985 46.6496 36.9856 46.5984L37.0663 46.105C36.4284 46.0006 35.8049 45.887 35.1972 45.7646L35.0985 46.2548C34.7818 46.191 34.4691 46.1248 34.1609 46.0564L34.2692 45.5683C33.6357 45.4276 33.0212 45.2772 32.4273 45.1177L32.2976 45.6006C31.9839 45.5164 31.6758 45.4296 31.3735 45.3404L31.515 44.8608C30.8891 44.6761 30.2892 44.481 29.7173 44.2763L29.5488 44.747C29.242 44.6372 28.9428 44.5246 28.6517 44.4093L28.8358 43.9444C28.2237 43.702 27.6495 43.4483 27.116 43.1845L26.8944 43.6328C26.5993 43.4869 26.3157 43.3377 26.0442 43.1855L26.2888 42.7493C25.711 42.4253 25.1941 42.0894 24.7416 41.7442L24.4383 42.1418C24.1732 41.9394 23.9278 41.7331 23.7031 41.523L24.0447 41.1578C23.564 40.7083 23.1961 40.2518 22.9404 39.7942L22.5039 40.0381C22.3422 39.7485 22.218 39.454 22.1334 39.1553L22.6145 39.019C22.5384 38.7502 22.5 38.4798 22.5 38.2075C22.5 37.9353 22.5384 37.6649 22.6145 37.3961L22.1334 37.2598C22.218 36.9611 22.3422 36.6666 22.5039 36.377L22.9404 36.6209C23.1961 36.1633 23.564 35.7068 24.0447 35.2573L23.7031 34.8921C23.9278 34.682 24.1732 34.4756 24.4383 34.2733L24.7416 34.6709C25.1941 34.3257 25.711 33.9898 26.2888 33.6657L26.0442 33.2296C26.3157 33.0774 26.5993 32.9282 26.8944 32.7823L27.116 33.2305C27.6495 32.9668 28.2237 32.7131 28.8358 32.4707L28.6517 32.0058C28.9428 31.8905 29.242 31.7779 29.5488 31.6681L29.7173 32.1388C30.2892 31.9341 30.8891 31.739 31.515 31.5543L31.3735 31.0747C31.6758 30.9855 31.9839 30.8987 32.2976 30.8145L32.4273 31.2974C33.0212 31.1379 33.6357 30.9875 34.2692 30.8468L34.1609 30.3587C34.4691 30.2903 34.7818 30.2241 35.0985 30.1603L35.1972 30.6505C35.8049 30.5281 36.4284 30.4145 37.0663 30.3101L36.9856 29.8167C37.2985 29.7655 37.6148 29.7165 37.9343 29.6698L38.0067 30.1645C38.6244 30.0742 39.2544 29.9924 39.8956 29.9196L39.8392 29.4227C40.1542 29.387 40.4718 29.3533 40.7919 29.3219L40.8407 29.8195C41.464 29.7583 42.0969 29.7055 42.7386 29.6614L42.7043 29.1626C43.0221 29.1407 43.3419 29.121 43.6636 29.1035L43.6908 29.6028C44.3174 29.5686 44.9516 29.5428 45.5926 29.5256L45.5791 29.0257C45.8975 29.0172 46.2175 29.0107 46.539 29.0064L46.5456 29.5064C46.8623 29.5021 47.1805 29.5 47.5 29.5C47.8195 29.5 48.1377 29.5021 48.4544 29.5064L48.461 29.0064C48.7825 29.0107 49.1025 29.0172 49.4209 29.0257L49.4074 29.5256C50.0484 29.5428 50.6826 29.5686 51.3092 29.6028L51.3364 29.1035C51.6581 29.121 51.9779 29.1407 52.2957 29.1626L52.2614 29.6614C52.9031 29.7055 53.536 29.7583 54.1593 29.8195L54.2081 29.3219C54.5282 29.3533 54.8458 29.387 55.1608 29.4227L55.1044 29.9196C55.7456 29.9924 56.3756 30.0742 56.9933 30.1645L57.0657 29.6698C57.3852 29.7165 57.7015 29.7655 58.0144 29.8167L57.9337 30.3101C58.5716 30.4145 59.1951 30.5281 59.8028 30.6505L59.9015 30.1603C60.2182 30.2241 60.5309 30.2903 60.8391 30.3587L60.7308 30.8468C61.3643 30.9875 61.9788 31.1379 62.5727 31.2974L62.7024 30.8145C63.0161 30.8987 63.3242 30.9855 63.6265 31.0747L63.485 31.5543C64.1109 31.739 64.7108 31.9341 65.2827 32.1388L65.4512 31.6681C65.758 31.7779 66.0572 31.8905 66.3483 32.0058L66.1642 32.4707C66.7763 32.7131 67.3505 32.9668 67.884 33.2305L68.1056 32.7823C68.4007 32.9282 68.6843 33.0774 68.9558 33.2296L68.7112 33.6657C69.289 33.9898 69.8059 34.3257 70.2584 34.6709L70.5617 34.2733C70.8268 34.4756 71.0722 34.682 71.2969 34.8921L70.9553 35.2573C71.436 35.7068 71.8039 36.1633 72.0596 36.6209L72.4961 36.377Z" stroke="white" stroke-dasharray="2 1"/>
<path id="Ellipse 7" d="M72.4961 66.9619C72.6578 67.2515 72.782 67.546 72.8666 67.8447L72.3855 67.981C72.4616 68.2498 72.5 68.5202 72.5 68.7924C72.5 69.0647 72.4616 69.3351 72.3855 69.6039L72.8666 69.7402C72.782 70.0389 72.6578 70.3334 72.4961 70.623L72.0596 70.3791C71.8039 70.8367 71.436 71.2932 70.9553 71.7427L71.2969 72.1079C71.0722 72.318 70.8268 72.5243 70.5617 72.7267L70.2584 72.3291C69.8059 72.6743 69.289 73.0102 68.7112 73.3342L68.9558 73.7704C68.6843 73.9226 68.4007 74.0718 68.1056 74.2177L67.884 73.7694C67.3505 74.0332 66.7763 74.2869 66.1642 74.5293L66.3483 74.9942C66.0572 75.1095 65.758 75.2221 65.4512 75.3319L65.2827 74.8612C64.7108 75.0659 64.1109 75.261 63.485 75.4457L63.6265 75.9253C63.3242 76.0145 63.0161 76.1013 62.7024 76.1855L62.5727 75.7026C61.9788 75.8621 61.3643 76.0125 60.7308 76.1532L60.8391 76.6413C60.5309 76.7097 60.2182 76.7759 59.9015 76.8397L59.8028 76.3495C59.195 76.4719 58.5716 76.5855 57.9337 76.6899L58.0144 77.1833C57.7015 77.2345 57.3852 77.2835 57.0657 77.3302L56.9933 76.8355C56.3756 76.9258 55.7456 77.0076 55.1044 77.0804L55.1608 77.5772C54.8458 77.613 54.5282 77.6466 54.2081 77.6781L54.1593 77.1805C53.536 77.2417 52.9031 77.2945 52.2614 77.3386L52.2957 77.8374C51.9779 77.8592 51.6581 77.879 51.3364 77.8965L51.3092 77.3972C50.6826 77.4314 50.0484 77.4572 49.4074 77.4744L49.4209 77.9743C49.1025 77.9828 48.7825 77.9893 48.461 77.9936L48.4544 77.4936C48.1377 77.4979 47.8195 77.5 47.5 77.5C47.1805 77.5 46.8623 77.4979 46.5456 77.4936L46.539 77.9936C46.2175 77.9893 45.8975 77.9828 45.5791 77.9743L45.5926 77.4744C44.9516 77.4572 44.3174 77.4314 43.6908 77.3972L43.6636 77.8965C43.3419 77.879 43.0221 77.8592 42.7043 77.8374L42.7386 77.3386C42.0969 77.2945 41.464 77.2417 40.8407 77.1805L40.7919 77.6781C40.4718 77.6466 40.1542 77.613 39.8392 77.5772L39.8956 77.0804C39.2544 77.0076 38.6244 76.9258 38.0067 76.8355L37.9343 77.3302C37.6148 77.2835 37.2985 77.2345 36.9856 77.1833L37.0663 76.6899C36.4284 76.5855 35.8049 76.4719 35.1972 76.3495L35.0985 76.8397C34.7818 76.7759 34.4691 76.7097 34.1609 76.6413L34.2692 76.1532C33.6357 76.0125 33.0212 75.8621 32.4273 75.7026L32.2976 76.1855C31.9839 76.1013 31.6758 76.0145 31.3735 75.9253L31.515 75.4457C30.8891 75.261 30.2892 75.0659 29.7173 74.8612L29.5488 75.3319C29.242 75.2221 28.9428 75.1095 28.6517 74.9942L28.8358 74.5293C28.2237 74.2869 27.6495 74.0332 27.116 73.7694L26.8944 74.2177C26.5993 74.0718 26.3157 73.9226 26.0442 73.7704L26.2888 73.3342C25.711 73.0102 25.1941 72.6743 24.7416 72.3291L24.4383 72.7267C24.1732 72.5243 23.9278 72.318 23.7031 72.1079L24.0447 71.7427C23.564 71.2932 23.1961 70.8367 22.9404 70.3791L22.5039 70.623C22.3422 70.3334 22.218 70.0389 22.1334 69.7402L22.6145 69.6039C22.5384 69.3351 22.5 69.0647 22.5 68.7924C22.5 68.5202 22.5384 68.2498 22.6145 67.981L22.1334 67.8447C22.218 67.546 22.3422 67.2515 22.5039 66.9619L22.9404 67.2058C23.1961 66.7482 23.564 66.2917 24.0447 65.8422L23.7031 65.477C23.9278 65.2669 24.1732 65.0605 24.4383 64.8582L24.7416 65.2558C25.1941 64.9106 25.711 64.5747 26.2888 64.2506L26.0442 63.8145C26.3157 63.6623 26.5993 63.5131 26.8944 63.3672L27.116 63.8154C27.6495 63.5517 28.2237 63.298 28.8358 63.0556L28.6517 62.5907C28.9428 62.4754 29.242 62.3628 29.5488 62.253L29.7173 62.7237C30.2892 62.519 30.8891 62.3239 31.515 62.1392L31.3735 61.6596C31.6758 61.5704 31.9839 61.4836 32.2976 61.3994L32.4273 61.8823C33.0212 61.7228 33.6357 61.5724 34.2692 61.4317L34.1609 60.9436C34.4691 60.8752 34.7818 60.809 35.0985 60.7452L35.1972 61.2354C35.8049 61.113 36.4284 60.9994 37.0663 60.895L36.9856 60.4016C37.2985 60.3504 37.6148 60.3014 37.9343 60.2547L38.0067 60.7494C38.6244 60.6591 39.2544 60.5773 39.8956 60.5045L39.8392 60.0076C40.1542 59.9719 40.4718 59.9382 40.7919 59.9068L40.8407 60.4044C41.464 60.3432 42.0969 60.2904 42.7386 60.2463L42.7043 59.7475C43.0221 59.7256 43.3419 59.7059 43.6636 59.6884L43.6908 60.1877C44.3174 60.1535 44.9516 60.1277 45.5926 60.1105L45.5791 59.6106C45.8975 59.6021 46.2175 59.5956 46.539 59.5913L46.5456 60.0913C46.8623 60.087 47.1805 60.0849 47.5 60.0849C47.8195 60.0849 48.1377 60.087 48.4544 60.0913L48.461 59.5913C48.7825 59.5956 49.1025 59.6021 49.4209 59.6106L49.4074 60.1105C50.0484 60.1277 50.6826 60.1535 51.3092 60.1877L51.3364 59.6884C51.6581 59.7059 51.9779 59.7256 52.2957 59.7475L52.2614 60.2463C52.9031 60.2904 53.536 60.3432 54.1593 60.4044L54.2081 59.9068C54.5282 59.9382 54.8458 59.9719 55.1608 60.0076L55.1044 60.5045C55.7456 60.5773 56.3756 60.6591 56.9933 60.7494L57.0657 60.2547C57.3852 60.3014 57.7015 60.3504 58.0144 60.4016L57.9337 60.895C58.5716 60.9994 59.1951 61.113 59.8028 61.2354L59.9015 60.7452C60.2182 60.809 60.5309 60.8752 60.8391 60.9436L60.7308 61.4317C61.3643 61.5724 61.9788 61.7228 62.5727 61.8823L62.7024 61.3994C63.0161 61.4836 63.3242 61.5704 63.6265 61.6596L63.485 62.1392C64.1109 62.3239 64.7108 62.519 65.2827 62.7237L65.4512 62.253C65.758 62.3628 66.0572 62.4754 66.3483 62.5907L66.1642 63.0556C66.7763 63.298 67.3505 63.5517 67.884 63.8154L68.1056 63.3672C68.4007 63.5131 68.6843 63.6623 68.9558 63.8145L68.7112 64.2506C69.289 64.5747 69.8059 64.9106 70.2584 65.2558L70.5617 64.8582C70.8268 65.0605 71.0722 65.2669 71.2969 65.477L70.9553 65.8422C71.436 66.2917 71.8039 66.7482 72.0596 67.2058L72.4961 66.9619Z" stroke="white" stroke-dasharray="2 1"/>
<line id="Line 1" x1="22.5" y1="38.2075" x2="22.5" y2="69.9475" stroke="white" stroke-dasharray="2 1"/>
<line id="Line 2" x1="72.5" y1="38.2075" x2="72.5" y2="69.9475" stroke="white" stroke-dasharray="2 1"/>
</g>
<g id="Group 4">
<g id="Union_2" filter="url(#filter0_d_1062_14464)">
<path fill-rule="evenodd" clip-rule="evenodd" d="M66 27H30V45V46H30.1393C31.2465 49.9463 38.8209 53 48 53C57.1791 53 64.7535 49.9463 65.8607 46H66V45V27Z" fill="url(#paint2_linear_1062_14464)"/>
</g>
<path id="Ellipse 5" d="M65 27C65 27.7792 64.6489 28.5968 63.8611 29.4246C63.0684 30.2575 61.8741 31.0531 60.3218 31.743C57.2197 33.1217 52.8641 34 48 34C43.1359 34 38.7803 33.1217 35.6782 31.743C34.1259 31.0531 32.9316 30.2575 32.1389 29.4246C31.3511 28.5968 31 27.7792 31 27C31 26.2208 31.3511 25.4032 32.1389 24.5754C32.9316 23.7425 34.1259 22.9469 35.6782 22.257C38.7803 20.8783 43.1359 20 48 20C52.8641 20 57.2197 20.8783 60.3218 22.257C61.8741 22.9469 63.0684 23.7425 63.8611 24.5754C64.6489 25.4032 65 26.2208 65 27Z" fill="#55C226" stroke="white" stroke-width="2"/>
</g>
<g id="Ellipse 8 (Stroke)" filter="url(#filter1_d_1062_14464)">
<path fill-rule="evenodd" clip-rule="evenodd" d="M72.8666 39.1552L71.9044 38.8828C71.9684 38.6567 72 38.4321 72 38.2075C72 37.9829 71.9684 37.7584 71.9044 37.5323L72.8666 37.2598C72.9548 37.5714 73 37.8875 73 38.2075C73 38.5275 72.9548 38.8437 72.8666 39.1552ZM72.4961 36.377L71.6231 36.8647C71.3976 36.4611 71.065 36.0444 70.6138 35.6225L71.2969 34.8921C71.807 35.3691 72.2103 35.8654 72.4961 36.377ZM70.5617 34.2733L69.9551 35.0683C69.524 34.7395 69.0272 34.4162 68.4666 34.1018L68.9558 33.2296C69.5509 33.5633 70.0879 33.9119 70.5617 34.2733ZM26.0442 33.2296L26.5334 34.1018C25.9728 34.4162 25.476 34.7395 25.0449 35.0683L24.4383 34.2733C24.9121 33.9119 25.4491 33.5633 26.0442 33.2296ZM23.7031 34.8921L24.3862 35.6225C23.935 36.0444 23.6024 36.4611 23.3769 36.8647L22.5039 36.377C22.7897 35.8654 23.193 35.3691 23.7031 34.8921ZM22.1334 37.2598C22.0452 37.5714 22 37.8875 22 38.2075C22 38.5275 22.0452 38.8437 22.1334 39.1552L23.0956 38.8828C23.0316 38.6567 23 38.4321 23 38.2075C23 37.9829 23.0316 37.7584 23.0956 37.5323L22.1334 37.2598ZM22.5039 40.038L23.3769 39.5503C23.6024 39.9539 23.935 40.3707 24.3862 40.7926L23.7031 41.523C23.193 41.0459 22.7897 40.5497 22.5039 40.038ZM24.4383 42.1417L25.0449 41.3467C25.476 41.6756 25.9728 41.9989 26.5334 42.3132L26.0442 43.1854C25.4491 42.8517 24.9121 42.5032 24.4383 42.1417ZM26.8944 43.6327L27.3376 42.7363C27.8576 42.9934 28.4192 43.2416 29.0199 43.4795L28.6517 44.4093C28.0282 44.1623 27.4414 43.9031 26.8944 43.6327ZM29.5488 44.747L29.8858 43.8055C30.4482 44.0068 31.0391 44.199 31.6565 44.3812L31.3735 45.3403C30.7391 45.1531 30.1302 44.9551 29.5488 44.747ZM32.2976 45.6006L32.557 44.6348C33.1435 44.7923 33.7509 44.941 34.3776 45.0801L34.1609 46.0564C33.5205 45.9142 32.8989 45.762 32.2976 45.6006ZM35.0985 46.2547L35.2959 45.2744C35.8975 45.3955 36.515 45.5081 37.1471 45.6115L36.9856 46.5984C36.3419 46.4931 35.7124 46.3783 35.0985 46.2547ZM37.9343 46.7453L38.079 45.7558C38.6913 45.8454 39.316 45.9265 39.9521 45.9987L39.8392 46.9923C39.1928 46.9189 38.5574 46.8364 37.9343 46.7453ZM40.7919 47.0932L40.8896 46.0979C41.5079 46.1587 42.136 46.2111 42.7729 46.2548L42.7043 47.2525C42.0579 47.2081 41.42 47.1548 40.7919 47.0932ZM43.6636 47.3116L43.718 46.313C44.34 46.3469 44.9696 46.3726 45.606 46.3897L45.5791 47.3893C44.9336 47.372 44.2948 47.3459 43.6636 47.3116ZM46.539 47.4086L46.5523 46.4087C46.8668 46.4129 47.1827 46.4151 47.5 46.4151C47.8173 46.4151 48.1332 46.4129 48.4477 46.4087L48.461 47.4086C48.1422 47.4129 47.8218 47.4151 47.5 47.4151C47.1782 47.4151 46.8578 47.4129 46.539 47.4086ZM49.4209 47.3893L49.394 46.3897C50.0304 46.3726 50.66 46.3469 51.282 46.313L51.3364 47.3116C50.7052 47.3459 50.0664 47.372 49.4209 47.3893ZM52.2957 47.2525L52.2271 46.2548C52.864 46.2111 53.4921 46.1587 54.1104 46.0979L54.2081 47.0932C53.58 47.1548 52.9421 47.2081 52.2957 47.2525ZM55.1608 46.9923L55.0479 45.9987C55.684 45.9265 56.3087 45.8454 56.921 45.7558L57.0657 46.7453C56.4426 46.8364 55.8072 46.9189 55.1608 46.9923ZM58.0144 46.5984L57.8529 45.6115C58.485 45.5081 59.1025 45.3955 59.7041 45.2744L59.9015 46.2547C59.2876 46.3783 58.6581 46.4931 58.0144 46.5984ZM60.8391 46.0564L60.6224 45.0801C61.2491 44.941 61.8565 44.7923 62.443 44.6348L62.7024 45.6006C62.1011 45.762 61.4795 45.9142 60.8391 46.0564ZM63.6265 45.3403L63.3435 44.3812C63.9609 44.199 64.5518 44.0068 65.1142 43.8055L65.4512 44.747C64.8698 44.9551 64.2609 45.1531 63.6265 45.3403ZM66.3483 44.4093L65.9801 43.4795C66.5808 43.2416 67.1424 42.9934 67.6624 42.7363L68.1056 43.6327C67.5586 43.9031 66.9718 44.1623 66.3483 44.4093ZM68.9558 43.1854L68.4666 42.3132C69.0272 41.9989 69.524 41.6756 69.9551 41.3467L70.5617 42.1417C70.0879 42.5032 69.5509 42.8517 68.9558 43.1854ZM71.2969 41.523L70.6138 40.7926C71.065 40.3707 71.3976 39.9539 71.6231 39.5503L72.4961 40.038C72.2103 40.5497 71.807 41.0459 71.2969 41.523Z" fill="white"/>
</g>
</g>
<rect x="0.5" y="0.5" width="95" height="95" rx="35.5" stroke="black" stroke-opacity="0.2"/>
</g>
</g>
</g>
</g>
</g>
</g>
<defs>
<filter id="filter0_d_1062_14464" x="27" y="25" width="42" height="32" filterUnits="userSpaceOnUse" color-interpolation-filters="sRGB">
<feFlood flood-opacity="0" result="BackgroundImageFix"/>
<feColorMatrix in="SourceAlpha" type="matrix" values="0 0 0 0 0 0 0 0 0 0 0 0 0 0 0 0 0 0 127 0" result="hardAlpha"/>
<feOffset dy="1"/>
<feGaussianBlur stdDeviation="1.5"/>
<feComposite in2="hardAlpha" operator="out"/>
<feColorMatrix type="matrix" values="0 0 0 0 0.588235 0 0 0 0 0.780392 0 0 0 0 0.501961 0 0 0 0.5 0"/>
<feBlend mode="normal" in2="BackgroundImageFix" result="effect1_dropShadow_1062_14464"/>
<feBlend mode="normal" in="SourceGraphic" in2="effect1_dropShadow_1062_14464" result="shape"/>
</filter>
<filter id="filter1_d_1062_14464" x="19" y="31.2296" width="57" height="20.1854" filterUnits="userSpaceOnUse" color-interpolation-filters="sRGB">
<feFlood flood-opacity="0" result="BackgroundImageFix"/>
<feColorMatrix in="SourceAlpha" type="matrix" values="0 0 0 0 0 0 0 0 0 0 0 0 0 0 0 0 0 0 127 0" result="hardAlpha"/>
<feOffset dy="1"/>
<feGaussianBlur stdDeviation="1.5"/>
<feComposite in2="hardAlpha" operator="out"/>
<feColorMatrix type="matrix" values="0 0 0 0 0.278431 0 0 0 0 0.623529 0 0 0 0 0.12549 0 0 0 0.5 0"/>
<feBlend mode="normal" in2="BackgroundImageFix" result="effect1_dropShadow_1062_14464"/>
<feBlend mode="normal" in="SourceGraphic" in2="effect1_dropShadow_1062_14464" result="shape"/>
</filter>
<linearGradient id="paint0_linear_1062_14464" x1="0" y1="0" x2="0" y2="96" gradientUnits="userSpaceOnUse">
<stop stop-color="#51BE23"/>
<stop offset="1" stop-color="#6EDF37"/>
</linearGradient>
<linearGradient id="paint1_linear_1062_14464" x1="48.7815" y1="51" x2="48.7815" y2="67.4956" gradientUnits="userSpaceOnUse">
<stop stop-color="white"/>
<stop offset="1" stop-color="#DCFDCD"/>
</linearGradient>
<linearGradient id="paint2_linear_1062_14464" x1="48" y1="27" x2="48" y2="53" gradientUnits="userSpaceOnUse">
<stop stop-color="#EAFBE3"/>
<stop offset="1" stop-color="#C1EEAC"/>
</linearGradient>
<clipPath id="clip0_1062_14464">
<rect width="800" height="1648" fill="white" transform="translate(-680 -1324)"/>
</clipPath>
</defs>
</svg>
