<svg width="96" height="96" viewBox="0 0 96 96" fill="none" xmlns="http://www.w3.org/2000/svg">
  <rect width="96" height="96" rx="36" fill="url(#paint0_linear_1066_14787)"/>
  <path d="M41.9712 23.6296L23.1111 34.5185V56.2963M54.2222 23.4435L73.4047 34.5185V56.2963M28.8148 66.8486L48.2579 78.0741L67.701 66.8486" stroke="white" stroke-width="2" stroke-linecap="round"/>
  <path d="M46.9923 27.8471C47.615 27.4839 48.385 27.4839 49.0077 27.8471L65.6744 37.5694C66.2888 37.9278 66.6667 38.5856 66.6667 39.2969V58.7772C66.6667 59.4885 66.2888 60.1463 65.6744 60.5048L49.0077 70.227C48.385 70.5902 47.615 70.5902 46.9923 70.227L30.3256 60.5048C29.7112 60.1463 29.3333 59.4885 29.3333 58.7772V39.2969C29.3333 38.5856 29.7112 37.9278 30.3256 37.5694L46.9923 27.8471Z" fill="url(#paint1_linear_1066_14787)"/>
  <path d="M41.1621 42.1768V55H38.6309V45.0947L35.5898 46.0615V44.0664L40.8896 42.1768H41.1621ZM50.4258 48.5137V50.5H45.46V48.5137H50.4258ZM58.5996 42.1768V55H56.0684V45.0947L53.0273 46.0615V44.0664L58.3271 42.1768H58.5996Z" fill="#12BDA3"/>
  <circle cx="48" cy="22.0741" r="4.14815" fill="white"/>
  <circle cx="24.1481" cy="62.5185" r="4.14815" fill="white"/>
  <circle cx="71.8519" cy="62.5185" r="4.14815" fill="white"/>
  <rect x="0.5" y="0.5" width="95" height="95" rx="35.5" stroke="black" stroke-opacity="0.2"/>
  <defs>
    <linearGradient id="paint0_linear_1066_14787" x1="0" y1="0" x2="0" y2="96" gradientUnits="userSpaceOnUse">
      <stop stop-color="#02BFA3"/>
      <stop offset="0.0001" stop-color="#06BA9E"/>
      <stop offset="1" stop-color="#67D0C4"/>
    </linearGradient>
    <linearGradient id="paint1_linear_1066_14787" x1="48" y1="27.2593" x2="48" y2="70.8148" gradientUnits="userSpaceOnUse">
      <stop stop-color="white"/>
      <stop offset="1" stop-color="white" stop-opacity="0.8"/>
    </linearGradient>
  </defs>
</svg>
