<svg width="96" height="96" viewBox="0 0 96 96" fill="none" xmlns="http://www.w3.org/2000/svg">
  <rect width="96" height="96" rx="36" fill="url(#paint0_linear_1066_14802)"/>
  <path d="M41.9712 23.6296L23.1111 34.5185V56.2963M54.2222 23.4435L73.4047 34.5185V56.2963M28.8148 66.8486L48.2579 78.0741L67.701 66.8486" stroke="white" stroke-width="2" stroke-linecap="round"/>
  <path d="M46.9923 27.8471C47.615 27.4839 48.385 27.4839 49.0077 27.8471L65.6744 37.5694C66.2888 37.9278 66.6667 38.5856 66.6667 39.2969V58.7772C66.6667 59.4885 66.2888 60.1463 65.6744 60.5048L49.0077 70.227C48.385 70.5902 47.615 70.5902 46.9923 70.227L30.3256 60.5048C29.7112 60.1463 29.3333 59.4885 29.3333 58.7772V39.2969C29.3333 38.5856 29.7112 37.9278 30.3256 37.5694L46.9923 27.8471Z" fill="url(#paint1_linear_1066_14802)"/>
  <path d="M37.585 47.5029H38.9385C39.3721 47.5029 39.7295 47.4297 40.0107 47.2832C40.292 47.1309 40.5 46.9199 40.6348 46.6504C40.7754 46.375 40.8457 46.0557 40.8457 45.6924C40.8457 45.3643 40.7812 45.0742 40.6523 44.8223C40.5293 44.5645 40.3389 44.3652 40.0811 44.2246C39.8232 44.0781 39.498 44.0049 39.1055 44.0049C38.7949 44.0049 38.5078 44.0664 38.2441 44.1895C37.9805 44.3125 37.7695 44.4854 37.6113 44.708C37.4531 44.9307 37.374 45.2002 37.374 45.5166H34.834C34.834 44.8135 35.0215 44.2012 35.3965 43.6797C35.7773 43.1582 36.2871 42.751 36.9258 42.458C37.5645 42.165 38.2676 42.0186 39.0352 42.0186C39.9023 42.0186 40.6611 42.1592 41.3115 42.4404C41.9619 42.7158 42.4688 43.123 42.832 43.6621C43.1953 44.2012 43.377 44.8691 43.377 45.666C43.377 46.0703 43.2832 46.4629 43.0957 46.8438C42.9082 47.2188 42.6387 47.5586 42.2871 47.8633C41.9414 48.1621 41.5195 48.4023 41.0215 48.584C40.5234 48.7598 39.9639 48.8477 39.3428 48.8477H37.585V47.5029ZM37.585 49.4277V48.1182H39.3428C40.04 48.1182 40.6523 48.1973 41.1797 48.3555C41.707 48.5137 42.1494 48.7422 42.5068 49.041C42.8643 49.334 43.1338 49.6826 43.3154 50.0869C43.4971 50.4854 43.5879 50.9277 43.5879 51.4141C43.5879 52.0117 43.4736 52.5449 43.2451 53.0137C43.0166 53.4766 42.6943 53.8691 42.2783 54.1914C41.8682 54.5137 41.3877 54.7598 40.8369 54.9297C40.2861 55.0938 39.6855 55.1758 39.0352 55.1758C38.4961 55.1758 37.9658 55.1025 37.4443 54.9561C36.9287 54.8037 36.46 54.5781 36.0381 54.2793C35.6221 53.9746 35.2881 53.5938 35.0361 53.1367C34.79 52.6738 34.667 52.126 34.667 51.4932H37.207C37.207 51.8213 37.2891 52.1143 37.4531 52.3721C37.6172 52.6299 37.8428 52.832 38.1299 52.9785C38.4229 53.125 38.748 53.1982 39.1055 53.1982C39.5098 53.1982 39.8555 53.125 40.1426 52.9785C40.4355 52.8262 40.6582 52.6152 40.8105 52.3457C40.9688 52.0703 41.0479 51.751 41.0479 51.3877C41.0479 50.9189 40.9629 50.5439 40.793 50.2627C40.623 49.9756 40.3799 49.7646 40.0635 49.6299C39.7471 49.4951 39.3721 49.4277 38.9385 49.4277H37.585ZM50.4258 48.5137V50.5H45.46V48.5137H50.4258ZM61.1836 53.0225V55H52.4297V53.3125L56.5693 48.874C56.9854 48.4111 57.3135 48.0039 57.5537 47.6523C57.7939 47.2949 57.9668 46.9756 58.0723 46.6943C58.1836 46.4072 58.2393 46.1348 58.2393 45.877C58.2393 45.4902 58.1748 45.1592 58.0459 44.8838C57.917 44.6025 57.7266 44.3857 57.4746 44.2334C57.2285 44.0811 56.9238 44.0049 56.5605 44.0049C56.1738 44.0049 55.8398 44.0986 55.5586 44.2861C55.2832 44.4736 55.0723 44.7344 54.9258 45.0684C54.7852 45.4023 54.7148 45.7803 54.7148 46.2021H52.1748C52.1748 45.4404 52.3564 44.7432 52.7197 44.1104C53.083 43.4717 53.5957 42.9648 54.2578 42.5898C54.9199 42.209 55.7051 42.0186 56.6133 42.0186C57.5098 42.0186 58.2656 42.165 58.8809 42.458C59.502 42.7451 59.9707 43.1611 60.2871 43.7061C60.6094 44.2451 60.7705 44.8896 60.7705 45.6396C60.7705 46.0615 60.7031 46.4746 60.5684 46.8789C60.4336 47.2773 60.2402 47.6758 59.9883 48.0742C59.7422 48.4668 59.4434 48.8652 59.0918 49.2695C58.7402 49.6738 58.3506 50.0928 57.9229 50.5264L55.6992 53.0225H61.1836Z" fill="#0AAFE7"/>
  <circle cx="48" cy="22.0741" r="4.14815" fill="white"/>
  <circle cx="24.1481" cy="62.5185" r="4.14815" fill="white"/>
  <circle cx="71.8519" cy="62.5185" r="4.14815" fill="white"/>
  <rect x="0.5" y="0.5" width="95" height="95" rx="35.5" stroke="black" stroke-opacity="0.2"/>
  <defs>
    <linearGradient id="paint0_linear_1066_14802" x1="0" y1="0" x2="0" y2="96" gradientUnits="userSpaceOnUse">
      <stop stop-color="#09ADE7"/>
      <stop offset="1" stop-color="#2CD1ED"/>
    </linearGradient>
    <linearGradient id="paint1_linear_1066_14802" x1="48" y1="27.2593" x2="48" y2="70.8148" gradientUnits="userSpaceOnUse">
      <stop stop-color="white"/>
      <stop offset="1" stop-color="white" stop-opacity="0.8"/>
    </linearGradient>
  </defs>
</svg>
