<svg width="96" height="96" viewBox="0 0 96 96" fill="none" xmlns="http://www.w3.org/2000/svg">
  <rect width="96" height="96" rx="36" fill="url(#paint0_linear_1066_14793)"/>
  <path d="M41.9712 23.6296L23.1111 34.5185V56.2963M54.2222 23.4435L73.4047 34.5185V56.2963M28.8148 66.8486L48.2579 78.0741L67.701 66.8486" stroke="white" stroke-width="2" stroke-linecap="round"/>
  <path d="M46.9923 27.8471C47.615 27.4839 48.385 27.4839 49.0077 27.8471L65.6744 37.5694C66.2889 37.9278 66.6667 38.5856 66.6667 39.2969V58.7772C66.6667 59.4885 66.2889 60.1463 65.6744 60.5048L49.0077 70.227C48.385 70.5902 47.615 70.5902 46.9923 70.227L30.3256 60.5048C29.7112 60.1463 29.3333 59.4885 29.3333 58.7772V39.2969C29.3333 38.5856 29.7112 37.9278 30.3256 37.5694L46.9923 27.8471Z" fill="url(#paint1_linear_1066_14793)"/>
  <path d="M43.7461 53.0225V55H34.9922V53.3125L39.1318 48.874C39.5479 48.4111 39.876 48.0039 40.1162 47.6523C40.3564 47.2949 40.5293 46.9756 40.6348 46.6943C40.7461 46.4072 40.8018 46.1348 40.8018 45.877C40.8018 45.4902 40.7373 45.1592 40.6084 44.8838C40.4795 44.6025 40.2891 44.3857 40.0371 44.2334C39.791 44.0811 39.4863 44.0049 39.123 44.0049C38.7363 44.0049 38.4023 44.0986 38.1211 44.2861C37.8457 44.4736 37.6348 44.7344 37.4883 45.0684C37.3477 45.4023 37.2773 45.7803 37.2773 46.2021H34.7373C34.7373 45.4404 34.9189 44.7432 35.2822 44.1104C35.6455 43.4717 36.1582 42.9648 36.8203 42.5898C37.4824 42.209 38.2676 42.0186 39.1758 42.0186C40.0723 42.0186 40.8281 42.165 41.4434 42.458C42.0645 42.7451 42.5332 43.1611 42.8496 43.7061C43.1719 44.2451 43.333 44.8896 43.333 45.6396C43.333 46.0615 43.2656 46.4746 43.1309 46.8789C42.9961 47.2773 42.8027 47.6758 42.5508 48.0742C42.3047 48.4668 42.0059 48.8652 41.6543 49.2695C41.3027 49.6738 40.9131 50.0928 40.4854 50.5264L38.2617 53.0225H43.7461ZM50.4258 48.5137V50.5H45.46V48.5137H50.4258ZM58.5996 42.1768V55H56.0684V45.0947L53.0273 46.0615V44.0664L58.3271 42.1768H58.5996Z" fill="#F46A08"/>
  <circle cx="48" cy="22.0741" r="4.14815" fill="white"/>
  <circle cx="24.1481" cy="62.5185" r="4.14815" fill="white"/>
  <circle cx="71.8519" cy="62.5185" r="4.14815" fill="white"/>
  <rect x="0.5" y="0.5" width="95" height="95" rx="35.5" stroke="black" stroke-opacity="0.2"/>
  <defs>
    <linearGradient id="paint0_linear_1066_14793" x1="0" y1="0" x2="0" y2="96" gradientUnits="userSpaceOnUse">
      <stop stop-color="#F36907"/>
      <stop offset="1" stop-color="#FA841D"/>
    </linearGradient>
    <linearGradient id="paint1_linear_1066_14793" x1="48" y1="27.2593" x2="48" y2="70.8148" gradientUnits="userSpaceOnUse">
      <stop stop-color="white"/>
      <stop offset="1" stop-color="white" stop-opacity="0.8"/>
    </linearGradient>
  </defs>
</svg>
