<svg width="96" height="96" viewBox="0 0 96 96" fill="none" xmlns="http://www.w3.org/2000/svg">
  <rect width="96" height="96" rx="36" fill="url(#paint0_linear_1066_14790)"/>
  <path d="M41.9712 23.6296L23.1111 34.5185V56.2963M54.2222 23.4435L73.4047 34.5185V56.2963M28.8148 66.8486L48.2579 78.0741L67.701 66.8486" stroke="white" stroke-width="2" stroke-linecap="round"/>
  <path d="M46.9923 27.8471C47.615 27.4839 48.385 27.4839 49.0077 27.8471L65.6744 37.5694C66.2888 37.9278 66.6667 38.5856 66.6667 39.2969V58.7772C66.6667 59.4885 66.2888 60.1463 65.6744 60.5048L49.0077 70.227C48.385 70.5902 47.615 70.5902 46.9923 70.227L30.3256 60.5048C29.7112 60.1463 29.3333 59.4885 29.3333 58.7772V39.2969C29.3333 38.5856 29.7112 37.9278 30.3256 37.5694L46.9923 27.8471Z" fill="url(#paint1_linear_1066_14790)"/>
  <path d="M41.1621 42.1768V55H38.6309V45.0947L35.5898 46.0615V44.0664L40.8896 42.1768H41.1621ZM50.4258 48.5137V50.5H45.46V48.5137H50.4258ZM61.1836 53.0225V55H52.4297V53.3125L56.5693 48.874C56.9854 48.4111 57.3135 48.0039 57.5537 47.6523C57.7939 47.2949 57.9668 46.9756 58.0723 46.6943C58.1836 46.4072 58.2393 46.1348 58.2393 45.877C58.2393 45.4902 58.1748 45.1592 58.0459 44.8838C57.917 44.6025 57.7266 44.3857 57.4746 44.2334C57.2285 44.0811 56.9238 44.0049 56.5605 44.0049C56.1738 44.0049 55.8398 44.0986 55.5586 44.2861C55.2832 44.4736 55.0723 44.7344 54.9258 45.0684C54.7852 45.4023 54.7148 45.7803 54.7148 46.2021H52.1748C52.1748 45.4404 52.3564 44.7432 52.7197 44.1104C53.083 43.4717 53.5957 42.9648 54.2578 42.5898C54.9199 42.209 55.7051 42.0186 56.6133 42.0186C57.5098 42.0186 58.2656 42.165 58.8809 42.458C59.502 42.7451 59.9707 43.1611 60.2871 43.7061C60.6094 44.2451 60.7705 44.8896 60.7705 45.6396C60.7705 46.0615 60.7031 46.4746 60.5684 46.8789C60.4336 47.2773 60.2402 47.6758 59.9883 48.0742C59.7422 48.4668 59.4434 48.8652 59.0918 49.2695C58.7402 49.6738 58.3506 50.0928 57.9229 50.5264L55.6992 53.0225H61.1836Z" fill="#8164EC"/>
  <circle cx="48" cy="22.0741" r="4.14815" fill="white"/>
  <circle cx="24.1481" cy="62.5185" r="4.14815" fill="white"/>
  <circle cx="71.8519" cy="62.5185" r="4.14815" fill="white"/>
  <rect x="0.5" y="0.5" width="95" height="95" rx="35.5" stroke="black" stroke-opacity="0.2"/>
  <defs>
    <linearGradient id="paint0_linear_1066_14790" x1="0" y1="0" x2="0" y2="96" gradientUnits="userSpaceOnUse">
      <stop stop-color="#7F62EB"/>
      <stop offset="1" stop-color="#AF9DF1"/>
    </linearGradient>
    <linearGradient id="paint1_linear_1066_14790" x1="48" y1="27.2593" x2="48" y2="70.8148" gradientUnits="userSpaceOnUse">
      <stop stop-color="white"/>
      <stop offset="1" stop-color="white" stop-opacity="0.8"/>
    </linearGradient>
  </defs>
</svg>
