<svg width="96" height="96" viewBox="0 0 96 96" fill="none" xmlns="http://www.w3.org/2000/svg">
<rect width="96" height="96" rx="36" fill="url(#paint0_linear_2811_5809)"/>
<rect x="0.5" y="0.5" width="95" height="95" rx="35.5" stroke="black" stroke-opacity="0.2"/>
<path fill-rule="evenodd" clip-rule="evenodd" d="M72.8666 72.1553L71.9044 71.8828C71.9684 71.6567 72 71.4322 72 71.2075C72 70.9829 71.9684 70.7584 71.9044 70.5323L72.8666 70.2598C72.9548 70.5714 73 70.8876 73 71.2075C73 71.5275 72.9548 71.8437 72.8666 72.1553ZM72.4961 69.377L71.6231 69.8647C71.3976 69.4612 71.065 69.0444 70.6138 68.6225L71.2969 67.8921C71.807 68.3692 72.2103 68.8654 72.4961 69.377ZM70.5617 67.2733L69.9551 68.0684C69.524 67.7395 69.0272 67.4162 68.4666 67.1019L68.9558 66.2296C69.5509 66.5634 70.0879 66.9119 70.5617 67.2733ZM68.1056 65.7823L67.6624 66.6788C67.1424 66.4217 66.5808 66.1734 65.9801 65.9355L66.3483 65.0058C66.9718 65.2527 67.5586 65.5119 68.1056 65.7823ZM65.4512 64.6681L65.1142 65.6096C64.5518 65.4083 63.9609 65.2161 63.3435 65.0338L63.6265 64.0747C64.2609 64.2619 64.8698 64.46 65.4512 64.6681ZM62.7024 63.8145L62.443 64.7803C61.8565 64.6228 61.2491 64.4741 60.6224 64.3349L60.8391 63.3587C61.4795 63.5009 62.1011 63.653 62.7024 63.8145ZM59.9015 63.1603L59.7041 64.1406C59.1025 64.0195 58.485 63.907 57.8529 63.8035L58.0144 62.8167C58.6581 62.922 59.2876 63.0367 59.9015 63.1603ZM57.0657 62.6698L56.921 63.6592C56.3087 63.5697 55.684 63.4886 55.0479 63.4164L55.1608 62.4227C55.8072 62.4962 56.4426 62.5786 57.0657 62.6698ZM54.2081 62.3219L54.1104 63.3171C53.4921 63.2564 52.864 63.204 52.2271 63.1602L52.2957 62.1626C52.9421 62.207 53.58 62.2602 54.2081 62.3219ZM51.3364 62.1035L51.282 63.102C50.66 63.0681 50.0304 63.0425 49.394 63.0254L49.4209 62.0257C50.0664 62.0431 50.7052 62.0691 51.3364 62.1035ZM48.461 62.0064L48.4477 63.0063C48.1332 63.0021 47.8173 63 47.5 63C47.1827 63 46.8668 63.0021 46.5523 63.0063L46.539 62.0064C46.8578 62.0022 47.1782 62 47.5 62C47.8218 62 48.1422 62.0022 48.461 62.0064ZM45.5791 62.0257L45.606 63.0254C44.9696 63.0425 44.34 63.0681 43.718 63.102L43.6636 62.1035C44.2948 62.0691 44.9336 62.0431 45.5791 62.0257ZM42.7043 62.1626L42.7729 63.1602C42.136 63.204 41.5079 63.2564 40.8896 63.3171L40.7919 62.3219C41.42 62.2602 42.0579 62.207 42.7043 62.1626ZM39.8392 62.4227L39.9521 63.4164C39.316 63.4886 38.6913 63.5697 38.079 63.6592L37.9343 62.6698C38.5574 62.5786 39.1928 62.4962 39.8392 62.4227ZM36.9856 62.8167L37.1471 63.8035C36.515 63.907 35.8975 64.0195 35.2959 64.1406L35.0985 63.1603C35.7124 63.0367 36.3419 62.922 36.9856 62.8167ZM34.1609 63.3587L34.3776 64.3349C33.7509 64.4741 33.1435 64.6228 32.557 64.7803L32.2976 63.8145C32.8989 63.653 33.5205 63.5009 34.1609 63.3587ZM31.3735 64.0747L31.6565 65.0338C31.0391 65.2161 30.4482 65.4083 29.8858 65.6096L29.5488 64.6681C30.1302 64.46 30.7391 64.2619 31.3735 64.0747ZM28.6517 65.0058L29.0199 65.9355C28.4192 66.1734 27.8576 66.4217 27.3376 66.6788L26.8944 65.7823C27.4414 65.5119 28.0282 65.2527 28.6517 65.0058ZM26.0442 66.2296L26.5334 67.1019C25.9728 67.4162 25.476 67.7395 25.0449 68.0684L24.4383 67.2733C24.9121 66.9119 25.4491 66.5634 26.0442 66.2296ZM23.7031 67.8921L24.3862 68.6225C23.935 69.0444 23.6024 69.4612 23.3769 69.8647L22.5039 69.377C22.7897 68.8654 23.193 68.3692 23.7031 67.8921ZM22.1334 70.2598C22.0452 70.5714 22 70.8876 22 71.2075C22 71.5275 22.0452 71.8437 22.1334 72.1553L23.0956 71.8828C23.0316 71.6567 23 71.4322 23 71.2075C23 70.9829 23.0316 70.7584 23.0956 70.5323L22.1334 70.2598ZM22.5039 73.0381L23.3769 72.5504C23.6024 72.9539 23.935 73.3707 24.3862 73.7926L23.7031 74.523C23.193 74.0459 22.7897 73.5497 22.5039 73.0381ZM24.4383 75.1418L25.0449 74.3467C25.476 74.6756 25.9728 74.9989 26.5334 75.3132L26.0442 76.1855C25.4491 75.8517 24.9121 75.5032 24.4383 75.1418ZM26.8944 76.6328L27.3376 75.7363C27.8576 75.9934 28.4192 76.2417 29.0199 76.4795L28.6517 77.4093C28.0282 77.1624 27.4414 76.9032 26.8944 76.6328ZM29.5488 77.747L29.8858 76.8055C30.4482 77.0068 31.0391 77.199 31.6565 77.3813L31.3735 78.3404C30.7391 78.1531 30.1302 77.9551 29.5488 77.747ZM32.2976 78.6006L32.557 77.6348C33.1435 77.7923 33.7509 77.941 34.3776 78.0802L34.1609 79.0564C33.5205 78.9142 32.8989 78.7621 32.2976 78.6006ZM35.0985 79.2548L35.2959 78.2744C35.8975 78.3956 36.515 78.5081 37.1471 78.6116L36.9856 79.5984C36.3419 79.4931 35.7124 79.3784 35.0985 79.2548ZM37.9343 79.7453L38.079 78.7559C38.6913 78.8454 39.316 78.9265 39.9521 78.9987L39.8392 79.9923C39.1928 79.9189 38.5574 79.8364 37.9343 79.7453ZM40.7919 80.0932L40.8896 79.098C41.5079 79.1587 42.136 79.2111 42.7729 79.2549L42.7043 80.2525C42.0579 80.2081 41.42 80.1549 40.7919 80.0932ZM43.6636 80.3116L43.718 79.3131C44.34 79.3469 44.9696 79.3726 45.606 79.3897L45.5791 80.3894C44.9336 80.372 44.2948 80.346 43.6636 80.3116ZM46.539 80.4087L46.5523 79.4088C46.8668 79.413 47.1827 79.4151 47.5 79.4151C47.8173 79.4151 48.1332 79.413 48.4477 79.4088L48.461 80.4087C48.1422 80.4129 47.8218 80.4151 47.5 80.4151C47.1782 80.4151 46.8578 80.4129 46.539 80.4087ZM49.4209 80.3894L49.394 79.3897C50.0304 79.3726 50.66 79.3469 51.282 79.3131L51.3364 80.3116C50.7052 80.346 50.0664 80.372 49.4209 80.3894ZM52.2957 80.2525L52.2271 79.2549C52.864 79.2111 53.4921 79.1587 54.1104 79.098L54.2081 80.0932C53.58 80.1549 52.9421 80.2081 52.2957 80.2525ZM55.1608 79.9923L55.0479 78.9987C55.684 78.9265 56.3087 78.8454 56.921 78.7559L57.0657 79.7453C56.4426 79.8364 55.8072 79.9189 55.1608 79.9923ZM58.0144 79.5984L57.8529 78.6116C58.485 78.5081 59.1025 78.3956 59.7041 78.2744L59.9015 79.2548C59.2876 79.3784 58.6581 79.4931 58.0144 79.5984ZM60.8391 79.0564L60.6224 78.0802C61.2491 77.941 61.8565 77.7923 62.443 77.6348L62.7024 78.6006C62.1011 78.7621 61.4795 78.9142 60.8391 79.0564ZM63.6265 78.3404L63.3435 77.3813C63.9609 77.199 64.5518 77.0068 65.1142 76.8055L65.4512 77.747C64.8698 77.9551 64.2609 78.1531 63.6265 78.3404ZM66.3483 77.4093L65.9801 76.4795C66.5808 76.2417 67.1424 75.9934 67.6624 75.7363L68.1056 76.6328C67.5586 76.9032 66.9718 77.1624 66.3483 77.4093ZM68.9558 76.1855L68.4666 75.3132C69.0272 74.9989 69.524 74.6756 69.9551 74.3467L70.5617 75.1418C70.0879 75.5032 69.5509 75.8517 68.9558 76.1855ZM71.2969 74.523L70.6138 73.7926C71.065 73.3707 71.3976 72.9539 71.6231 72.5504L72.4961 73.0381C72.2103 73.5497 71.807 74.0459 71.2969 74.523Z" fill="white"/>
<path d="M59 72C59 74.2091 53.8513 76 47.5 76C41.1487 76 36 74.2091 36 72C36 69.7909 41.1487 68 47.5 68C53.8513 68 59 69.7909 59 72Z" fill="white" fill-opacity="0.15"/>
<path fill-rule="evenodd" clip-rule="evenodd" d="M57.4611 72.7846C57.9248 72.4032 58 72.1327 58 72C58 71.8673 57.9248 71.5968 57.4611 71.2154C57.0043 70.8397 56.2829 70.4568 55.3032 70.1161C53.3532 69.4378 50.5944 69 47.5 69C44.4056 69 41.6468 69.4378 39.6968 70.1161C38.7171 70.4568 37.9957 70.8397 37.5389 71.2154C37.0752 71.5968 37 71.8673 37 72C37 72.1327 37.0752 72.4032 37.5389 72.7846C37.9957 73.1603 38.7171 73.5432 39.6968 73.8839C41.6468 74.5622 44.4056 75 47.5 75C50.5944 75 53.3532 74.5622 55.3032 73.8839C56.2829 73.5432 57.0043 73.1603 57.4611 72.7846ZM47.5 76C53.8513 76 59 74.2091 59 72C59 69.7909 53.8513 68 47.5 68C41.1487 68 36 69.7909 36 72C36 74.2091 41.1487 76 47.5 76Z" fill="white" fill-opacity="0.1"/>
<path fill-rule="evenodd" clip-rule="evenodd" d="M47.5 19.5C47.1805 19.5 46.8623 19.5021 46.5456 19.5064L46.5323 18.5065C46.8534 18.5022 47.176 18.5 47.5 18.5C47.824 18.5 48.1466 18.5022 48.4677 18.5065L48.4544 19.5064C48.1377 19.5021 47.8195 19.5 47.5 19.5ZM45.5926 19.5256C44.9516 19.5428 44.3174 19.5686 43.6908 19.6028L43.6364 18.6043C44.2722 18.5696 44.9156 18.5434 45.5657 18.5259L45.5926 19.5256ZM51.3092 19.6028C50.6826 19.5686 50.0484 19.5428 49.4074 19.5256L49.4343 18.5259C50.0844 18.5434 50.7278 18.5696 51.3636 18.6043L51.3092 19.6028ZM42.7386 19.6614C42.0969 19.7055 41.464 19.7583 40.8407 19.8195L40.743 18.8243C41.3761 18.7621 42.0188 18.7085 42.6701 18.6638L42.7386 19.6614ZM54.1593 19.8195C53.536 19.7583 52.9031 19.7055 52.2614 19.6614L52.3299 18.6638C52.9812 18.7085 53.6239 18.7621 54.257 18.8243L54.1593 19.8195ZM56.9933 20.1645C56.3756 20.0742 55.7456 19.9924 55.1044 19.9196L55.2172 18.9259C55.8689 19 56.5095 19.0831 57.138 19.175L56.9933 20.1645ZM39.8956 19.9196C39.2544 19.9924 38.6244 20.0742 38.0067 20.1645L37.862 19.175C38.4905 19.0831 39.1311 19 39.7828 18.9259L39.8956 19.9196ZM59.8028 20.6505C59.195 20.5281 58.5716 20.4145 57.9337 20.3101L58.0951 19.3232C58.7447 19.4295 59.3801 19.5453 60.0002 19.6702L59.8028 20.6505ZM37.0663 20.3101C36.4284 20.4145 35.8049 20.5281 35.1972 20.6505L34.9998 19.6702C35.6198 19.5453 36.2553 19.4295 36.9049 19.3232L37.0663 20.3101ZM34.2692 20.8468C33.6357 20.9875 33.0212 21.1379 32.4273 21.2974L32.1679 20.3316C32.7766 20.1682 33.4053 20.0143 34.0525 19.8706L34.2692 20.8468ZM62.5727 21.2974C61.9788 21.1379 61.3643 20.9875 60.7308 20.8468L60.9475 19.8706C61.5947 20.0143 62.2234 20.1682 62.8321 20.3316L62.5727 21.2974ZM31.515 21.5543C30.8891 21.739 30.2892 21.9341 29.7173 22.1388L29.3803 21.1973C29.9712 20.9858 30.5891 20.7849 31.232 20.5952L31.515 21.5543ZM65.2827 22.1388C64.7108 21.9341 64.1109 21.739 63.485 21.5543L63.768 20.5952C64.4109 20.7849 65.0288 20.9858 65.6197 21.1973L65.2827 22.1388ZM28.8358 22.4707C28.2237 22.7131 27.6495 22.9668 27.116 23.2305L26.6728 22.3341C27.2332 22.0571 27.8326 21.7924 28.4676 21.5409L28.8358 22.4707ZM67.884 23.2305C67.3505 22.9668 66.7763 22.7131 66.1642 22.4707L66.5324 21.5409C67.1674 21.7924 67.7668 22.0571 68.3272 22.3341L67.884 23.2305ZM70.2584 24.6709C69.8059 24.3257 69.289 23.9898 68.7112 23.6657L69.2003 22.7935C69.8127 23.137 70.3698 23.4981 70.8649 23.8758L70.2584 24.6709ZM26.2888 23.6657C25.711 23.9898 25.1941 24.3257 24.7416 24.6709L24.1351 23.8758C24.6302 23.4981 25.1873 23.137 25.7997 22.7935L26.2888 23.6657ZM24.0447 25.2573C23.564 25.7068 23.1961 26.1633 22.9404 26.6209L22.0674 26.1332C22.3834 25.5675 22.822 25.0315 23.3616 24.5269L24.0447 25.2573ZM72.0596 26.6209C71.8039 26.1633 71.436 25.7068 70.9553 25.2573L71.6384 24.5269C72.178 25.0315 72.6166 25.5675 72.9326 26.1332L72.0596 26.6209ZM22.6145 27.3961C22.5384 27.6649 22.5 27.9353 22.5 28.2075H21.5C21.5 27.8399 21.552 27.4779 21.6523 27.1236L22.6145 27.3961ZM72.5 28.2075C72.5 27.9353 72.4616 27.6649 72.3855 27.3961L73.3477 27.1236C73.448 27.4779 73.5 27.8399 73.5 28.2075H72.5Z" fill="white"/>
<line x1="22.5" y1="28.2076" x2="22.5" y2="71.9434" stroke="white" stroke-dasharray="2 1"/>
<path fill-rule="evenodd" clip-rule="evenodd" d="M72 29.1795V28.2076H73V29.1795H72ZM72 32.0952V30.1514H73V32.0952H72ZM72 35.0109V33.0671H73V35.0109H72ZM72 37.9266V35.9828H73V37.9266H72ZM72 40.8424V38.8985H73V40.8424H72ZM72 43.7581V41.8143H73V43.7581H72ZM72 46.6738V44.73H73V46.6738H72ZM72 49.5895V47.6457H73V49.5895H72ZM72 52.5052V50.5614H73V52.5052H72ZM72 55.421V53.4772H73V55.421H72ZM72 58.3367V56.3929H73V58.3367H72ZM72 61.2524V59.3086H73V61.2524H72ZM72 64.1681V62.2243H73V64.1681H72ZM72 67.0839V65.14H73V67.0839H72ZM72 69.9996V68.0558H73V69.9996H72ZM72 71.9434V70.9715H73V71.9434H72Z" fill="white"/>
<path d="M35 56.7398C35 58.7729 36.0345 60.6595 37.6555 61.8867C39.7163 63.447 42.4718 65.7623 44 68C45.4774 70.1634 47 73 47 73C47 73 48.5226 70.1634 50 68C51.5282 65.7623 54.2837 63.447 56.3445 61.8867C57.9655 60.6595 59 58.7729 59 56.7398V28C59 21.3726 53.6274 16 47 16V16C40.3726 16 35 21.3726 35 28V56.7398Z" fill="url(#paint1_linear_2811_5809)"/>
<path fill-rule="evenodd" clip-rule="evenodd" d="M21.6523 29.2915C21.552 28.9372 21.5 28.5752 21.5 28.2076H22.5C22.5 28.4798 22.5384 28.7502 22.6145 29.019L21.6523 29.2915ZM73.5 28.2076C73.5 28.5752 73.448 28.9372 73.3477 29.2915L72.3855 29.019C72.4616 28.7502 72.5 28.4798 72.5 28.2076H73.5ZM72.9326 30.2819C72.6166 30.8476 72.178 31.3836 71.6384 31.8882L70.9553 31.1578C71.436 30.7083 71.8039 30.2518 72.0596 29.7942L72.9326 30.2819ZM23.3616 31.8882C22.822 31.3836 22.3834 30.8476 22.0674 30.2819L22.9404 29.7942C23.1961 30.2518 23.564 30.7083 24.0447 31.1578L23.3616 31.8882ZM70.8649 32.5393C70.3698 32.917 69.8127 33.2781 69.2003 33.6216L68.7112 32.7494C69.289 32.4253 69.8059 32.0894 70.2584 31.7442L70.8649 32.5393ZM25.7997 33.6216C25.1873 33.2781 24.6302 32.917 24.1351 32.5393L24.7416 31.7442C25.1941 32.0894 25.711 32.4253 26.2888 32.7494L25.7997 33.6216ZM28.4676 34.8742C27.8326 34.6227 27.2332 34.358 26.6728 34.081L27.116 33.1846C27.6495 33.4483 28.2237 33.702 28.8358 33.9444L28.4676 34.8742ZM68.3272 34.081C67.7668 34.358 67.1674 34.6227 66.5324 34.8742L66.1642 33.9444C66.7763 33.702 67.3505 33.4483 67.884 33.1846L68.3272 34.081ZM31.232 35.8199C30.5891 35.6302 29.9712 35.4293 29.3803 35.2178L29.7173 34.2763C30.2892 34.481 30.8891 34.6761 31.515 34.8608L31.232 35.8199ZM65.6197 35.2178C65.0288 35.4293 64.4109 35.6302 63.768 35.8199L63.485 34.8608C64.1109 34.6761 64.7108 34.481 65.2827 34.2763L65.6197 35.2178ZM34.0525 36.5445C33.4053 36.4008 32.7766 36.2469 32.1679 36.0835L32.4273 35.1177C33.0212 35.2772 33.6357 35.4276 34.2692 35.5683L34.0525 36.5445ZM62.8321 36.0835C62.2234 36.2469 61.5947 36.4008 60.9475 36.5445L60.7308 35.5683C61.3643 35.4276 61.9788 35.2772 62.5727 35.1177L62.8321 36.0835ZM36.9049 37.0919C36.2553 36.9856 35.6198 36.8698 34.9998 36.7449L35.1972 35.7646C35.8049 35.887 36.4284 36.0006 37.0663 36.105L36.9049 37.0919ZM60.0002 36.7449C59.3801 36.8698 58.7447 36.9856 58.0951 37.0919L57.9337 36.105C58.5716 36.0006 59.195 35.887 59.8028 35.7646L60.0002 36.7449ZM39.7828 37.4892C39.1311 37.4151 38.4905 37.332 37.862 37.2401L38.0067 36.2506C38.6244 36.3409 39.2544 36.4227 39.8956 36.4955L39.7828 37.4892ZM57.138 37.2401C56.5095 37.332 55.8689 37.4151 55.2172 37.4892L55.1044 36.4955C55.7456 36.4227 56.3756 36.3409 56.9933 36.2506L57.138 37.2401ZM54.257 37.5908C53.6239 37.653 52.9812 37.7066 52.3299 37.7513L52.2614 36.7537C52.9031 36.7096 53.536 36.6568 54.1593 36.5956L54.257 37.5908ZM42.6701 37.7513C42.0188 37.7066 41.3761 37.653 40.743 37.5908L40.8407 36.5956C41.464 36.6568 42.0969 36.7096 42.7386 36.7537L42.6701 37.7513ZM45.5657 37.8892C44.9156 37.8717 44.2722 37.8455 43.6364 37.8108L43.6908 36.8123C44.3174 36.8465 44.9516 36.8723 45.5926 36.8895L45.5657 37.8892ZM51.3636 37.8108C50.7278 37.8455 50.0844 37.8717 49.4343 37.8892L49.4074 36.8895C50.0484 36.8723 50.6826 36.8465 51.3092 36.8123L51.3636 37.8108ZM47.5 37.9151C47.176 37.9151 46.8534 37.9129 46.5323 37.9086L46.5456 36.9087C46.8623 36.913 47.1805 36.9151 47.5 36.9151C47.8195 36.9151 48.1377 36.913 48.4544 36.9087L48.4677 37.9086C48.1466 37.9129 47.824 37.9151 47.5 37.9151Z" fill="white"/>
<defs>
<linearGradient id="paint0_linear_2811_5809" x1="0" y1="0" x2="0" y2="96" gradientUnits="userSpaceOnUse">
<stop stop-color="#6E64F8"/>
<stop offset="0.0001" stop-color="#7064F8"/>
<stop offset="1" stop-color="#8985FF"/>
</linearGradient>
<linearGradient id="paint1_linear_2811_5809" x1="47" y1="17.5" x2="47" y2="65.5" gradientUnits="userSpaceOnUse">
<stop stop-color="white"/>
<stop offset="0.7" stop-color="#E5E3FF"/>
</linearGradient>
</defs>
</svg>
