<svg width="96" height="96" viewBox="0 0 96 96" fill="none" xmlns="http://www.w3.org/2000/svg">
<rect width="96" height="96" fill="#F5F5F5"/>
<g id="&#229;&#183;&#165;&#228;&#189;&#156;&#228;&#184;&#173;&#229;&#191;&#131;" clip-path="url(#clip0_1062_14464)">
<rect width="800" height="1648" transform="translate(-24 -96)" fill="#F5F7FA"/>
<g id="&#229;&#141;&#161;&#231;&#137;&#135;&#229;&#140;&#186;&#229;&#159;&#159;">
<g id="&#229;&#143;&#175;&#231;&#188;&#150;&#232;&#190;&#145;&#229;&#141;&#161;&#231;&#137;&#135;">
<rect width="800" height="162" transform="translate(-24 -16)" fill="white"/>
<g id="&#230;&#172;&#161;&#232;&#166;&#129;&#228;&#191;&#161;&#230;&#129;&#175;&#229;&#140;&#186;&#229;&#159;&#159;">
<g id="&#229;&#138;&#159;&#232;&#131;&#189;&#230;&#140;&#137;&#233;&#146;&#174;">
<g id="icon-&#232;&#191;&#135;&#231;&#171;&#153;&#230;&#147;&#141;&#228;&#189;&#156;">
<rect width="96" height="96" rx="36" fill="url(#paint0_linear_1062_14464)"/>
<g id="&#231;&#188;&#150;&#231;&#187;&#132; 3">
<g id="&#229;&#189;&#162;&#231;&#138;&#182;&#231;&#187;&#147;&#229;&#144;&#136;" filter="url(#filter0_d_1062_14464)">
<path fill-rule="evenodd" clip-rule="evenodd" d="M26 26C24.8954 26 24 26.8954 24 28V44C24 45.1046 24.8954 46 26 46H70C71.1046 46 72 45.1046 72 44V28C72 26.8954 71.1046 26 70 26H26ZM26 50C24.8954 50 24 50.8954 24 52V68C24 69.1046 24.8954 70 26 70H70C71.1046 70 72 69.1046 72 68V52C72 50.8954 71.1046 50 70 50H26Z" fill="url(#paint1_linear_1062_14464)"/>
</g>
<g id="&#231;&#188;&#150;&#231;&#187;&#132; 2">
<rect id="&#231;&#159;&#169;&#229;&#189;&#162;" x="32" y="33.5" width="5" height="5" fill="url(#paint2_linear_1062_14464)"/>
<path id="&#229;&#189;&#162;&#231;&#138;&#182;&#231;&#187;&#147;&#229;&#144;&#136;_2" fill-rule="evenodd" clip-rule="evenodd" d="M54.4999 43.4999L64.4999 35.9999L54.4999 28.4999V33.5H41.9999V38.5H54.4999V43.4999Z" fill="url(#paint3_linear_1062_14464)"/>
</g>
<g id="&#231;&#188;&#150;&#231;&#187;&#132; 2&#229;&#164;&#135;&#228;&#187;&#189;">
<rect id="&#231;&#159;&#169;&#229;&#189;&#162;_2" x="64" y="63.5" width="5" height="5" transform="rotate(180 64 63.5)" fill="url(#paint4_linear_1062_14464)"/>
<path id="&#229;&#189;&#162;&#231;&#138;&#182;&#231;&#187;&#147;&#229;&#144;&#136;_3" fill-rule="evenodd" clip-rule="evenodd" d="M41.5 53.5L31.5 61L41.5 68.5V63.5H54V58.5H41.5V53.5Z" fill="url(#paint5_linear_1062_14464)"/>
</g>
</g>
<rect x="0.5" y="0.5" width="95" height="95" rx="35.5" stroke="black" stroke-opacity="0.2"/>
</g>
</g>
</g>
</g>
</g>
</g>
<defs>
<filter id="filter0_d_1062_14464" x="21" y="23" width="54" height="50" filterUnits="userSpaceOnUse" color-interpolation-filters="sRGB">
<feFlood flood-opacity="0" result="BackgroundImageFix"/>
<feColorMatrix in="SourceAlpha" type="matrix" values="0 0 0 0 0 0 0 0 0 0 0 0 0 0 0 0 0 0 127 0" result="hardAlpha"/>
<feOffset/>
<feGaussianBlur stdDeviation="1.5"/>
<feColorMatrix type="matrix" values="0 0 0 0 0.501961 0 0 0 0 0.388235 0 0 0 0 0.921569 0 0 0 0.5 0"/>
<feBlend mode="normal" in2="BackgroundImageFix" result="effect1_dropShadow_1062_14464"/>
<feBlend mode="normal" in="SourceGraphic" in2="effect1_dropShadow_1062_14464" result="shape"/>
</filter>
<linearGradient id="paint0_linear_1062_14464" x1="0" y1="0" x2="0" y2="96" gradientUnits="userSpaceOnUse">
<stop stop-color="#7F62EB"/>
<stop offset="1" stop-color="#AF9DF1"/>
</linearGradient>
<linearGradient id="paint1_linear_1062_14464" x1="49" y1="71" x2="49" y2="26" gradientUnits="userSpaceOnUse">
<stop stop-color="#D5CBF9"/>
<stop offset="1" stop-color="#FAF9FF"/>
</linearGradient>
<linearGradient id="paint2_linear_1062_14464" x1="34.5" y1="38.5" x2="34.5" y2="33.5" gradientUnits="userSpaceOnUse">
<stop stop-color="#B1A0F1"/>
<stop offset="1" stop-color="#7D60EB"/>
</linearGradient>
<linearGradient id="paint3_linear_1062_14464" x1="53.2499" y1="43.4999" x2="53.2499" y2="28.4999" gradientUnits="userSpaceOnUse">
<stop stop-color="#B1A0F1"/>
<stop offset="1" stop-color="#7D60EB"/>
</linearGradient>
<linearGradient id="paint4_linear_1062_14464" x1="66.5" y1="68.5" x2="66.5" y2="63.5" gradientUnits="userSpaceOnUse">
<stop stop-color="#B1A0F1"/>
<stop offset="1" stop-color="#7D60EB"/>
</linearGradient>
<linearGradient id="paint5_linear_1062_14464" x1="42.75" y1="53.5" x2="42.75" y2="68.5" gradientUnits="userSpaceOnUse">
<stop stop-color="#B1A0F1"/>
<stop offset="1" stop-color="#7D60EB"/>
</linearGradient>
<clipPath id="clip0_1062_14464">
<rect width="800" height="1648" fill="white" transform="translate(-24 -96)"/>
</clipPath>
</defs>
</svg>
