<svg width="96" height="96" viewBox="0 0 96 96" fill="none" xmlns="http://www.w3.org/2000/svg">
<rect width="96" height="96" rx="36" fill="url(#paint0_linear_2811_5832)"/>
<rect x="0.5" y="0.5" width="95" height="95" rx="35.5" stroke="black" stroke-opacity="0.2"/>
<path d="M32.3973 32C32.8952 30.6866 33.8338 29.5506 35.0589 28.7826C37.844 27.0368 41.8407 24.2766 44 21.614C45.9699 19.185 48 16 48 16C48 16 50.0301 19.185 52 21.614C54.1593 24.2766 58.156 27.0368 60.9411 28.7826C62.1662 29.5506 63.1048 30.6866 63.6027 32H32.3973Z" fill="url(#paint1_linear_2811_5832)"/>
<path d="M32 63V38H64V63H32Z" fill="url(#paint2_linear_2811_5832)"/>
<path d="M32.3222 69C33.6955 75.2904 39.2978 80 46 80H50C56.7022 80 62.3045 75.2904 63.6778 69H32.3222Z" fill="url(#paint3_linear_2811_5832)"/>
<path d="M46 35C46 34.4477 46.4477 34 47 34H73C73.5523 34 74 34.4477 74 35C74 35.5523 73.5523 36 73 36H47C46.4477 36 46 35.5523 46 35Z" fill="url(#paint4_linear_2811_5832)"/>
<path d="M23 65C22.4477 65 22 65.4477 22 66C22 66.5523 22.4477 67 23 67H49C49.5523 67 50 66.5523 50 66C50 65.4477 49.5523 65 49 65H23Z" fill="url(#paint5_linear_2811_5832)"/>
<defs>
<linearGradient id="paint0_linear_2811_5832" x1="0" y1="0" x2="0" y2="96" gradientUnits="userSpaceOnUse">
<stop stop-color="#09ADE7"/>
<stop offset="1" stop-color="#2CD1ED"/>
</linearGradient>
<linearGradient id="paint1_linear_2811_5832" x1="48" y1="15.7128" x2="48" y2="79.7128" gradientUnits="userSpaceOnUse">
<stop stop-color="white"/>
<stop offset="1" stop-color="white" stop-opacity="0.8"/>
</linearGradient>
<linearGradient id="paint2_linear_2811_5832" x1="48" y1="15.7128" x2="48" y2="79.7128" gradientUnits="userSpaceOnUse">
<stop stop-color="white"/>
<stop offset="1" stop-color="white" stop-opacity="0.8"/>
</linearGradient>
<linearGradient id="paint3_linear_2811_5832" x1="48" y1="15.7128" x2="48" y2="79.7128" gradientUnits="userSpaceOnUse">
<stop stop-color="white"/>
<stop offset="1" stop-color="white" stop-opacity="0.8"/>
</linearGradient>
<linearGradient id="paint4_linear_2811_5832" x1="48" y1="15.7128" x2="48" y2="79.7128" gradientUnits="userSpaceOnUse">
<stop stop-color="white"/>
<stop offset="1" stop-color="white" stop-opacity="0.8"/>
</linearGradient>
<linearGradient id="paint5_linear_2811_5832" x1="48" y1="15.7128" x2="48" y2="79.7128" gradientUnits="userSpaceOnUse">
<stop stop-color="white"/>
<stop offset="1" stop-color="white" stop-opacity="0.8"/>
</linearGradient>
</defs>
</svg>
