<svg width="96" height="96" viewBox="0 0 96 96" fill="none" xmlns="http://www.w3.org/2000/svg">
<rect width="96" height="96" rx="36" fill="url(#paint0_linear_1457_1180)"/>
<path d="M48 64C43.7565 64 39.6869 62.3143 36.6863 59.3137C33.6857 56.3131 32 52.2435 32 48C32 43.7565 33.6857 39.6869 36.6863 36.6863C39.6869 33.6857 43.7565 32 48 32C52.2435 32 56.3131 33.6857 59.3137 36.6863C62.3143 39.6869 64 43.7565 64 48C64 52.2435 62.3143 56.3131 59.3137 59.3137C56.3131 62.3143 52.2435 64 48 64ZM48 19.5555C48.4715 19.5555 48.9237 19.7428 49.2571 20.0762C49.5905 20.4096 49.7778 20.8618 49.7778 21.3333V26.6667C49.7778 27.1381 49.5905 27.5903 49.2571 27.9237C48.9237 28.2571 48.4715 28.4444 48 28.4444C47.5285 28.4444 47.0763 28.2571 46.7429 27.9237C46.4095 27.5903 46.2222 27.1381 46.2222 26.6667V21.3333C46.2222 20.8618 46.4095 20.4096 46.7429 20.0762C47.0763 19.7428 47.5285 19.5555 48 19.5555ZM48 67.5555C48.4715 67.5555 48.9237 67.7428 49.2571 68.0762C49.5905 68.4096 49.7778 68.8618 49.7778 69.3333V74.6667C49.7778 75.1381 49.5905 75.5903 49.2571 75.9237C48.9237 76.2571 48.4715 76.4444 48 76.4444C47.5285 76.4444 47.0763 76.2571 46.7429 75.9237C46.4095 75.5903 46.2222 75.1381 46.2222 74.6667V69.3333C46.2222 68.8618 46.4095 68.4096 46.7429 68.0762C47.0763 67.7428 47.5285 67.5555 48 67.5555ZM68.1147 27.8862C68.1143 27.8862 68.1142 27.8866 68.1144 27.8868C68.2794 28.0518 68.4103 28.2477 68.4997 28.4632C68.5891 28.679 68.6352 28.9104 68.6352 29.144C68.6352 29.3776 68.5891 29.609 68.4997 29.8248C68.4102 30.0406 68.2791 30.2367 68.1138 30.4018L64.3413 34.1707C64.0048 34.4867 63.5584 34.6594 63.0967 34.6523C62.6351 34.6451 62.1943 34.4586 61.8677 34.1322C61.5411 33.8059 61.3543 33.3652 61.3468 32.9036C61.3393 32.4419 61.5117 31.9955 61.8276 31.6587L65.6 27.8862C65.7651 27.7209 65.9612 27.5898 66.177 27.5003C66.3928 27.4109 66.6241 27.3648 66.8578 27.3648C67.0914 27.3648 67.3227 27.4109 67.5386 27.5003C67.7541 27.5897 67.95 27.7206 68.1149 27.8856C68.1152 27.8858 68.115 27.8862 68.1147 27.8862ZM34.1716 61.8284C34.172 61.8279 34.1728 61.8279 34.1733 61.8284C34.5061 62.1617 34.693 62.6134 34.693 63.0844C34.693 63.5558 34.5057 64.0079 34.1724 64.3413L30.4 68.1138C30.2348 68.2789 30.0387 68.41 29.8229 68.4994C29.6071 68.5887 29.3758 68.6348 29.1422 68.6348C28.9086 68.6348 28.6773 68.5887 28.4615 68.4994C28.2457 68.41 28.0496 68.2789 27.8844 68.1138C27.7193 67.9486 27.5883 67.7525 27.4989 67.5367C27.4095 67.3209 27.3635 67.0896 27.3635 66.856C27.3635 66.6224 27.4095 66.3911 27.4989 66.1753C27.5883 65.9595 27.7193 65.7634 27.8844 65.5982L31.6569 61.8293C31.9903 61.496 32.4424 61.3088 32.9138 61.3088C33.3848 61.3088 33.8365 61.4957 34.1698 61.8284C34.1703 61.8289 34.1711 61.8289 34.1716 61.8284ZM76.4444 48C76.4444 48.4715 76.2571 48.9237 75.9237 49.2571C75.5903 49.5905 75.1382 49.7778 74.6667 49.7778H69.3333C68.8618 49.7778 68.4097 49.5905 68.0763 49.2571C67.7429 48.9237 67.5556 48.4715 67.5556 48C67.5556 47.5285 67.7429 47.0763 68.0763 46.7429C68.4097 46.4095 68.8618 46.2222 69.3333 46.2222H74.6667C75.1382 46.2222 75.5903 46.4095 75.9237 46.7429C76.2571 47.0763 76.4444 47.5285 76.4444 48ZM28.4444 48C28.4444 48.4715 28.2571 48.9237 27.9237 49.2571C27.5903 49.5905 27.1382 49.7778 26.6667 49.7778H21.3333C20.8618 49.7778 20.4097 49.5905 20.0763 49.2571C19.7429 48.9237 19.5556 48.4715 19.5556 48C19.5556 47.5285 19.7429 47.0763 20.0763 46.7429C20.4097 46.4095 20.8618 46.2222 21.3333 46.2222H26.6667C27.1382 46.2222 27.5903 46.4095 27.9237 46.7429C28.2571 47.0763 28.4444 47.5285 28.4444 48ZM27.8862 27.8853C27.8862 27.8856 27.8866 27.8858 27.8869 27.8856C28.0518 27.7206 28.2477 27.5897 28.4632 27.5003C28.679 27.4109 28.9104 27.3648 29.144 27.3648C29.3776 27.3648 29.609 27.4109 29.8248 27.5003C30.0406 27.5898 30.2367 27.7209 30.4018 27.8862L34.1707 31.6587C34.3444 31.8216 34.4837 32.0178 34.5801 32.2356C34.6766 32.4534 34.7283 32.6884 34.7322 32.9266C34.736 33.1648 34.692 33.4013 34.6026 33.6221C34.5133 33.843 34.3805 34.0436 34.2121 34.2121C34.0437 34.3806 33.8432 34.5135 33.6225 34.603C33.4017 34.6925 33.1652 34.7367 32.927 34.733C32.6888 34.7293 32.4538 34.6778 32.2359 34.5815C32.018 34.4852 31.8217 34.3461 31.6587 34.1724L27.8862 30.4C27.7209 30.2349 27.5898 30.0388 27.5003 29.823C27.4109 29.6072 27.3648 29.3758 27.3648 29.1422C27.3648 28.9086 27.4109 28.6772 27.5003 28.4614C27.5897 28.2459 27.7206 28.05 27.8856 27.8851C27.8858 27.8848 27.8862 27.885 27.8862 27.8853ZM61.8284 61.8275C61.8281 61.8275 61.828 61.8271 61.8282 61.8269C62.1615 61.494 62.6133 61.307 63.0844 61.307C63.5558 61.307 64.0079 61.4943 64.3413 61.8275L68.1138 65.5982C68.4474 65.9318 68.6348 66.3842 68.6348 66.856C68.6348 67.3277 68.4474 67.7802 68.1138 68.1138C67.7802 68.4473 67.3278 68.6348 66.856 68.6348C66.3842 68.6348 65.9318 68.4473 65.5982 68.1138L61.8293 64.3413C61.4961 64.0079 61.3088 63.5558 61.3088 63.0844C61.3088 62.6133 61.4958 62.1615 61.8287 61.8282C61.8289 61.8279 61.8288 61.8275 61.8284 61.8275Z" fill="url(#paint1_linear_1457_1180)"/>
<rect x="0.5" y="0.5" width="95" height="95" rx="35.5" stroke="black" stroke-opacity="0.2"/>
<defs>
<linearGradient id="paint0_linear_1457_1180" x1="0" y1="0" x2="0" y2="96" gradientUnits="userSpaceOnUse">
<stop stop-color="#7F62EB"/>
<stop offset="1" stop-color="#AF9DF1"/>
</linearGradient>
<linearGradient id="paint1_linear_1457_1180" x1="48" y1="19.5555" x2="48" y2="76.4444" gradientUnits="userSpaceOnUse">
<stop stop-color="white"/>
<stop offset="1" stop-color="white" stop-opacity="0.8"/>
</linearGradient>
</defs>
</svg>
