<svg width="96" height="96" viewBox="0 0 96 96" fill="none" xmlns="http://www.w3.org/2000/svg">
<rect width="96" height="96" fill="#F5F5F5"/>
<g id="&#229;&#183;&#165;&#228;&#189;&#156;&#228;&#184;&#173;&#229;&#191;&#131;" clip-path="url(#clip0_1062_14464)">
<rect width="800" height="1648" transform="translate(-24 -936)" fill="#F5F7FA"/>
<g id="&#229;&#141;&#161;&#231;&#137;&#135;&#229;&#140;&#186;&#229;&#159;&#159;">
<g id="&#229;&#143;&#175;&#231;&#188;&#150;&#232;&#190;&#145;&#229;&#141;&#161;&#231;&#137;&#135;">
<rect width="800" height="372" transform="translate(-24 -64)" fill="white"/>
<g id="&#230;&#172;&#161;&#232;&#166;&#129;&#228;&#191;&#161;&#230;&#129;&#175;&#229;&#140;&#186;&#229;&#159;&#159;">
<g id="&#229;&#138;&#159;&#232;&#131;&#189;&#230;&#140;&#137;&#233;&#146;&#174;">
<g id="icon-&#230;&#157;&#165;&#230;&#150;&#153;&#230;&#163;&#128;&#233;&#170;&#140;">
<rect width="96" height="96" rx="36" fill="url(#paint0_linear_1062_14464)"/>
<g id="Group 7">
<path id="Vector" d="M45.92 46.8664C45.92 47.3986 46.1353 47.9091 46.5185 48.2854C46.9017 48.6618 47.4215 48.8732 47.9634 48.8732C48.5054 48.8732 49.0251 48.6618 49.4083 48.2854C49.7916 47.9091 50.0068 47.3986 50.0068 46.8664C50.0068 46.6028 49.954 46.3419 49.8513 46.0984C49.7486 45.8549 49.5981 45.6337 49.4083 45.4473C49.2186 45.261 48.9933 45.1132 48.7454 45.0123C48.4975 44.9115 48.2318 44.8596 47.9634 44.8596C47.6951 44.8596 47.4294 44.9115 47.1815 45.0123C46.9335 45.1132 46.7083 45.261 46.5185 45.4473C46.3288 45.6337 46.1783 45.8549 46.0756 46.0984C45.9729 46.3419 45.92 46.6028 45.92 46.8664Z" fill="white"/>
<path id="Vector_2" d="M43.5135 48.9494C41.9745 48.9558 40.72 50.1751 40.72 51.6929C40.72 53.2044 41.968 54.4364 43.5135 54.4364C45.0526 54.4364 46.3071 53.2108 46.3071 51.6929C46.3071 50.1815 45.059 48.9494 43.5135 48.9494ZM48.829 53.2108C48.829 54.7603 50.1094 56.0241 51.6937 56.0241C53.278 56.0241 54.5583 54.7667 54.5583 53.2108C54.5583 51.6548 53.278 50.3974 51.6937 50.3974C50.1158 50.3974 48.829 51.6548 48.829 53.2108Z" fill="white"/>
<path id="Vector_3" d="M73.381 65.2644C73.381 65.2644 66.5653 52.817 55.4494 34.8953V24.5246H56.1348C57.1307 24.5246 57.939 23.7308 57.939 22.7655C57.939 21.7875 57.1307 20.9936 56.1413 21.0064L39.878 21C38.8822 21.0064 38.0739 21.7938 38.0739 22.7718C38.0739 23.7499 38.8822 24.5373 39.878 24.531H40.5635V34.9144C29.4411 52.8234 22.6189 65.3088 22.6189 65.3088C20.8859 70.364 22.7935 75 28.3288 75H67.6776C73.2064 75 75.114 70.3195 73.381 65.2644ZM31.2258 57.9293C32.3963 55.9606 40.9191 41.3413 43.7579 36.7751L44.1912 36.0639H51.8281L52.2614 36.7751C54.8739 40.9729 62.957 54.7286 64.7612 57.9357L31.2258 57.9293Z" fill="url(#paint1_linear_1062_14464)"/>
</g>
<rect x="0.5" y="0.5" width="95" height="95" rx="35.5" stroke="black" stroke-opacity="0.2"/>
</g>
</g>
</g>
</g>
</g>
</g>
<defs>
<linearGradient id="paint0_linear_1062_14464" x1="0" y1="0" x2="0" y2="96" gradientUnits="userSpaceOnUse">
<stop stop-color="#3777FD"/>
<stop offset="0.0001" stop-color="#3776FD"/>
<stop offset="1" stop-color="#5B9CFF"/>
</linearGradient>
<linearGradient id="paint1_linear_1062_14464" x1="48" y1="21" x2="48" y2="75" gradientUnits="userSpaceOnUse">
<stop stop-color="white"/>
<stop offset="1" stop-color="white" stop-opacity="0.8"/>
</linearGradient>
<clipPath id="clip0_1062_14464">
<rect width="800" height="1648" fill="white" transform="translate(-24 -936)"/>
</clipPath>
</defs>
</svg>
