<svg width="96" height="96" viewBox="0 0 96 96" fill="none" xmlns="http://www.w3.org/2000/svg">
<rect width="96" height="96" fill="#F5F5F5"/>
<g id="&#229;&#183;&#165;&#228;&#189;&#156;&#228;&#184;&#173;&#229;&#191;&#131;" clip-path="url(#clip0_1062_14464)">
<rect width="800" height="1648" transform="translate(-24 -1486)" fill="#F5F7FA"/>
<g id="&#229;&#141;&#161;&#231;&#137;&#135;&#229;&#140;&#186;&#229;&#159;&#159;">
<g id="&#229;&#143;&#175;&#231;&#188;&#150;&#232;&#190;&#145;&#229;&#141;&#161;&#231;&#137;&#135;">
<rect width="800" height="372" transform="translate(-24 -226)" fill="white"/>
<g id="&#230;&#172;&#161;&#232;&#166;&#129;&#228;&#191;&#161;&#230;&#129;&#175;&#229;&#140;&#186;&#229;&#159;&#159;">
<g id="&#229;&#138;&#159;&#232;&#131;&#189;&#230;&#140;&#137;&#233;&#146;&#174;">
<g id="icon-&#229;&#188;&#128;&#231;&#130;&#137;">
<rect width="96" height="96" rx="36" fill="url(#paint0_linear_1062_14464)"/>
<g id="Group 10">
<path id="Union" fill-rule="evenodd" clip-rule="evenodd" d="M46.5428 17.0343C46.0093 16.8914 45.4609 17.208 45.318 17.7414L44.8004 19.6733C44.6574 20.2067 44.974 20.7551 45.5075 20.898L50.3371 22.1921L49.7933 24.2219C42.6758 23.0721 35.7189 25.9924 31.7505 31.4245C31.3553 31.9655 31.6515 32.7144 32.2986 32.8879L64.4748 41.5094C65.1219 41.6828 65.7529 41.1823 65.6811 40.5162C64.9604 33.8277 60.3958 27.8202 53.657 25.2572L54.2008 23.2274L59.0304 24.5215C59.5639 24.6644 60.1122 24.3479 60.2552 23.8144L60.7728 21.8825C60.9158 21.3491 60.5992 20.8007 60.0657 20.6578L46.5428 17.0343Z" fill="url(#paint1_linear_1062_14464)"/>
<path id="Union_2" fill-rule="evenodd" clip-rule="evenodd" d="M30 44.1873C30 43.635 30.4477 43.1873 31 43.1873H65C65.5523 43.1873 66 43.635 66 44.1873V57.1873C66 62.5183 63.6825 67.308 60 70.604V76.1873H62C62.5523 76.1873 63 76.6351 63 77.1873V78.1873C63 78.7396 62.5523 79.1873 62 79.1873H59C58.4477 79.1873 58 78.7396 58 78.1873V77.1873V72.1562C55.3992 73.8972 52.3193 74.9782 49 75.16V77.1873H47V75.16C43.6807 74.9782 40.6008 73.8972 38 72.1562V77.181L38 77.1873V78.1873C38 78.7396 37.5523 79.1873 37 79.1873H34C33.4477 79.1873 33 78.7396 33 78.1873V77.1873C33 76.6351 33.4477 76.1873 34 76.1873H36V70.6039C32.3175 67.308 30 62.5183 30 57.1873V44.1873ZM45 77.1873C44.4477 77.1873 44 77.6351 44 78.1873C44 78.7396 44.4477 79.1873 45 79.1873H51C51.5523 79.1873 52 78.7396 52 78.1873C52 77.6351 51.5523 77.1873 51 77.1873H45Z" fill="url(#paint2_linear_1062_14464)"/>
</g>
<rect x="0.5" y="0.5" width="95" height="95" rx="35.5" stroke="black" stroke-opacity="0.2"/>
</g>
</g>
</g>
</g>
</g>
</g>
<defs>
<linearGradient id="paint0_linear_1062_14464" x1="0" y1="0" x2="0" y2="96" gradientUnits="userSpaceOnUse">
<stop stop-color="#F36907"/>
<stop offset="1" stop-color="#FA841D"/>
</linearGradient>
<linearGradient id="paint1_linear_1062_14464" x1="48.6294" y1="17" x2="48.6294" y2="41.5441" gradientUnits="userSpaceOnUse">
<stop stop-color="white"/>
<stop offset="1" stop-color="white" stop-opacity="0.8"/>
</linearGradient>
<linearGradient id="paint2_linear_1062_14464" x1="48" y1="43.1873" x2="48" y2="79.1873" gradientUnits="userSpaceOnUse">
<stop stop-color="white"/>
<stop offset="1" stop-color="white" stop-opacity="0.8"/>
</linearGradient>
<clipPath id="clip0_1062_14464">
<rect width="800" height="1648" fill="white" transform="translate(-24 -1486)"/>
</clipPath>
</defs>
</svg>
