<svg width="96" height="96" viewBox="0 0 96 96" fill="none" xmlns="http://www.w3.org/2000/svg">
<rect width="96" height="96" fill="#F5F5F5"/>
<g id="&#229;&#183;&#165;&#228;&#189;&#156;&#228;&#184;&#173;&#229;&#191;&#131;" clip-path="url(#clip0_1062_14464)">
<rect width="800" height="1648" transform="translate(-516 -548)" fill="#F5F7FA"/>
<g id="&#229;&#141;&#161;&#231;&#137;&#135;&#229;&#140;&#186;&#229;&#159;&#159;">
<g id="&#229;&#143;&#175;&#231;&#188;&#150;&#232;&#190;&#145;&#229;&#141;&#161;&#231;&#137;&#135;">
<rect width="800" height="372" transform="translate(-516 -64)" fill="white"/>
<g id="&#230;&#172;&#161;&#232;&#166;&#129;&#228;&#191;&#161;&#230;&#129;&#175;&#229;&#140;&#186;&#229;&#159;&#159;">
<g id="&#229;&#138;&#159;&#232;&#131;&#189;&#230;&#140;&#137;&#233;&#146;&#174;">
<g id="icon-&#231;&#160;&#180;&#231;&#162;&#142;">
<rect width="96" height="96" rx="36" fill="url(#paint0_linear_1062_14464)"/>
<path id="Vector" d="M26 28.1544V33.8976C26 34.3642 26.1541 34.8153 26.4401 35.1887L38.5397 50.9838C38.7445 51.2515 39.0102 51.4688 39.3158 51.6184C39.6214 51.768 39.9585 51.8458 40.3002 51.8456H55.6998C56.3926 51.8456 57.0441 51.5267 57.4604 50.9853L69.5599 35.1887C69.8459 34.8153 70 34.3642 70 33.8976V28.1544C70 26.9644 69.0149 26 67.7994 26H28.2006C26.9851 26 26 26.9644 26 28.1544ZM41.4076 56.1544H37.0079C35.794 56.1544 34.8089 57.1189 34.8089 58.3073V62.6162C34.8089 63.8047 35.794 64.7691 37.0079 64.7691H41.4092C42.6231 64.7691 43.6083 63.8047 43.6083 62.6162V58.3073C43.6083 57.1189 42.6231 56.1544 41.4076 56.1544ZM54.6003 69.0764H59.0016C60.2155 69.0764 61.2006 68.112 61.2006 66.9236V62.6147C61.2006 61.4262 60.2155 60.4618 59 60.4618H54.6003C53.3864 60.4618 52.4013 61.4262 52.4013 62.6147V66.9236C52.4013 68.112 53.3864 69.0764 54.6019 69.0764H54.6003ZM45.801 82H50.199C51.4146 82 52.3997 81.0356 52.3997 79.8456V75.5382C52.3997 74.3498 51.4146 73.3853 50.199 73.3853H45.801C44.5854 73.3853 43.6003 74.3498 43.6003 75.5382V79.8471C43.6003 81.0356 44.5854 82 45.7994 82H45.801Z" fill="url(#paint1_linear_1062_14464)"/>
<rect x="0.5" y="0.5" width="95" height="95" rx="35.5" stroke="black" stroke-opacity="0.2"/>
</g>
</g>
</g>
</g>
</g>
</g>
<defs>
<linearGradient id="paint0_linear_1062_14464" x1="0" y1="0" x2="0" y2="96" gradientUnits="userSpaceOnUse">
<stop stop-color="#09ADE7"/>
<stop offset="1" stop-color="#2CD1ED"/>
</linearGradient>
<linearGradient id="paint1_linear_1062_14464" x1="48" y1="26" x2="48" y2="82" gradientUnits="userSpaceOnUse">
<stop stop-color="white"/>
<stop offset="1" stop-color="#E9FAFF"/>
</linearGradient>
<clipPath id="clip0_1062_14464">
<rect width="800" height="1648" fill="white" transform="translate(-516 -548)"/>
</clipPath>
</defs>
</svg>
