<svg width="96" height="96" viewBox="0 0 96 96" fill="none" xmlns="http://www.w3.org/2000/svg">
  <rect width="96" height="96" rx="36" fill="url(#paint0_linear_1066_14817)"/>
  <path d="M47.1447 45.5733C46.2813 45.3937 38.768 33.1157 38.768 28.449C38.768 23.7823 42.5153 20 47.1423 20C51.7693 20 55.519 23.7823 55.519 28.449C55.519 33.1157 49.8863 36.8093 47.1423 45.5757L47.1447 45.5733ZM49.8187 50.205C50.4067 49.547 64.7963 49.1783 68.8353 51.5117C72.879 53.845 74.279 58.9853 71.9667 62.9917C69.652 66.998 64.5 68.356 60.4587 66.0227C56.4173 63.6893 56.037 56.9647 49.8187 50.2027V50.205ZM44.4707 50.205C44.746 51.045 37.8697 63.6917 33.8307 66.0227C29.7893 68.356 24.6373 67.0003 22.3227 62.9917C20.0103 58.9853 21.4103 53.845 25.4517 51.5117C29.493 49.1783 35.5083 52.2117 44.4707 50.205ZM47.2357 50.8653C46.9461 50.8653 46.6594 50.8083 46.3919 50.6975C46.1243 50.5867 45.8813 50.4243 45.6765 50.2195C45.4717 50.0147 45.3093 49.7717 45.1985 49.5042C45.0877 49.2366 45.0307 48.9499 45.0307 48.6603C45.0307 48.3708 45.0877 48.084 45.1985 47.8165C45.3093 47.549 45.4717 47.3059 45.6765 47.1012C45.8813 46.8964 46.1243 46.734 46.3919 46.6232C46.6594 46.5124 46.9461 46.4553 47.2357 46.4553C47.8205 46.4553 48.3813 46.6876 48.7948 47.1012C49.2084 47.5147 49.4407 48.0755 49.4407 48.6603C49.4407 49.2451 49.2084 49.806 48.7948 50.2195C48.3813 50.633 47.8205 50.8653 47.2357 50.8653ZM69.064 38.5197C68.6297 38.5197 68.1996 38.4341 67.7983 38.2679C67.397 38.1017 67.0324 37.8581 66.7253 37.5509C66.4181 37.2438 66.1745 36.8792 66.0083 36.4779C65.8421 36.0766 65.7565 35.6465 65.7565 35.2122C65.7565 34.7778 65.8421 34.3477 66.0083 33.9464C66.1745 33.5452 66.4181 33.1805 66.7253 32.8734C67.0324 32.5663 67.397 32.3227 67.7983 32.1564C68.1996 31.9902 68.6297 31.9047 69.064 31.9047C69.9412 31.9047 70.7825 32.2531 71.4028 32.8734C72.023 33.4937 72.3715 34.335 72.3715 35.2122C72.3715 36.0894 72.023 36.9306 71.4028 37.5509C70.7825 38.1712 69.9412 38.5197 69.064 38.5197ZM61.3453 29.6997C61.1084 29.7083 60.8722 29.6691 60.6508 29.5844C60.4294 29.4997 60.2274 29.3712 60.0567 29.2066C59.8861 29.0421 59.7504 28.8449 59.6577 28.6267C59.565 28.4085 59.5172 28.1739 59.5172 27.9368C59.5172 27.6998 59.565 27.4652 59.6577 27.247C59.7504 27.0288 59.8861 26.8316 60.0567 26.667C60.2274 26.5025 60.4294 26.374 60.6508 26.2893C60.8722 26.2046 61.1084 26.1654 61.3453 26.174C61.8018 26.1906 62.234 26.3836 62.551 26.7124C62.868 27.0412 63.0452 27.4801 63.0452 27.9368C63.0452 28.3936 62.868 28.8325 62.551 29.1613C62.234 29.4901 61.8018 29.6831 61.3453 29.6997ZM71.4883 48.2193C71.2514 48.228 71.0152 48.1887 70.7938 48.104C70.5724 48.0193 70.3704 47.8909 70.1997 47.7263C70.0291 47.5618 69.8934 47.3645 69.8007 47.1463C69.708 46.9282 69.6602 46.6936 69.6602 46.4565C69.6602 46.2194 69.708 45.9848 69.8007 45.7667C69.8934 45.5485 70.0291 45.3512 70.1997 45.1867C70.3704 45.0221 70.5724 44.8937 70.7938 44.809C71.0152 44.7243 71.2514 44.685 71.4883 44.6937C71.9448 44.7103 72.377 44.9033 72.694 45.2321C73.011 45.5608 73.1882 45.9998 73.1882 46.4565C73.1882 46.9132 73.011 47.3522 72.694 47.6809C72.377 48.0097 71.9448 48.2027 71.4883 48.2193ZM57.3787 71.59C56.9108 71.59 56.4622 71.4041 56.1313 71.0733C55.8005 70.7425 55.6147 70.2938 55.6147 69.826C55.6147 69.3582 55.8005 68.9095 56.1313 68.5787C56.4622 68.2479 56.9108 68.062 57.3787 68.062C57.8465 68.062 58.2952 68.2479 58.626 68.5787C58.9568 68.9095 59.1427 69.3582 59.1427 69.826C59.1427 70.2938 58.9568 70.7425 58.626 71.0733C58.2952 71.4041 57.8465 71.59 57.3787 71.59ZM38.418 72.0333C37.9499 72.0333 37.5009 71.8474 37.1698 71.5163C36.8388 71.1853 36.6528 70.7363 36.6528 70.2682C36.6528 69.8 36.8388 69.351 37.1698 69.02C37.5009 68.689 37.9499 68.503 38.418 68.503C38.8858 68.503 39.3345 68.6889 39.6653 69.0197C39.9962 69.3505 40.182 69.7992 40.182 70.267C40.182 70.7348 39.9962 71.1835 39.6653 71.5143C39.3345 71.8451 38.8858 72.031 38.418 72.031V72.0333ZM22.9807 49.099C22.7438 49.1076 22.5076 49.0684 22.2862 48.9837C22.0648 48.899 21.8627 48.7705 21.6921 48.606C21.5214 48.4414 21.3857 48.2442 21.293 48.026C21.2003 47.8078 21.1525 47.5732 21.1525 47.3362C21.1525 47.0991 21.2003 46.8645 21.293 46.6463C21.3857 46.4282 21.5214 46.2309 21.6921 46.0664C21.8627 45.9018 22.0648 45.7733 22.2862 45.6886C22.5076 45.6039 22.7438 45.5647 22.9807 45.5733C23.4371 45.5899 23.8693 45.7829 24.1863 46.1117C24.5034 46.4405 24.6805 46.8794 24.6805 47.3362C24.6805 47.7929 24.5034 48.2318 24.1863 48.5606C23.8693 48.8894 23.4371 49.0824 22.9807 49.099ZM33.1237 29.6973C32.8868 29.706 32.6506 29.6667 32.4292 29.582C32.2078 29.4973 32.0057 29.3689 31.8351 29.2043C31.6644 29.0398 31.5287 28.8425 31.436 28.6243C31.3433 28.4062 31.2955 28.1716 31.2955 27.9345C31.2955 27.6974 31.3433 27.4628 31.436 27.2447C31.5287 27.0265 31.6644 26.8292 31.8351 26.6647C32.0057 26.5001 32.2078 26.3717 32.4292 26.287C32.6506 26.2023 32.8868 26.163 33.1237 26.1717C33.5801 26.1883 34.0123 26.3813 34.3293 26.7101C34.6464 27.0388 34.8235 27.4778 34.8235 27.9345C34.8235 28.3912 34.6464 28.8302 34.3293 29.1589C34.0123 29.4877 33.5801 29.6807 33.1237 29.6973ZM47.896 76C47.0188 76 46.1775 75.6515 45.5572 75.0313C44.937 74.411 44.5885 73.5697 44.5885 72.6925C44.5885 71.8153 44.937 70.974 45.5572 70.3537C46.1775 69.7335 47.0188 69.385 47.896 69.385C48.7732 69.385 49.6145 69.7335 50.2348 70.3537C50.855 70.974 51.2035 71.8153 51.2035 72.6925C51.2035 73.5697 50.855 74.411 50.2348 75.0313C49.6145 75.6515 48.7732 76 47.896 76ZM25.412 38.5197C24.9777 38.5197 24.5476 38.4341 24.1463 38.2679C23.745 38.1017 23.3804 37.8581 23.0733 37.5509C22.7661 37.2438 22.5225 36.8792 22.3563 36.4779C22.1901 36.0766 22.1045 35.6465 22.1045 35.2122C22.1045 34.7778 22.1901 34.3477 22.3563 33.9464C22.5225 33.5452 22.7661 33.1805 23.0733 32.8734C23.3804 32.5663 23.745 32.3227 24.1463 32.1564C24.5476 31.9902 24.9777 31.9047 25.412 31.9047C26.2892 31.9047 27.1305 32.2531 27.7508 32.8734C28.371 33.4937 28.7195 34.335 28.7195 35.2122C28.7195 36.0894 28.371 36.9306 27.7508 37.5509C27.1305 38.1712 26.2892 38.5197 25.412 38.5197Z" fill="url(#paint1_linear_1066_14817)"/>
  <rect x="0.5" y="0.5" width="95" height="95" rx="35.5" stroke="black" stroke-opacity="0.2"/>
  <defs>
    <linearGradient id="paint0_linear_1066_14817" x1="0" y1="0" x2="0" y2="96" gradientUnits="userSpaceOnUse">
      <stop stop-color="#02BFA3"/>
      <stop offset="0.0001" stop-color="#06BA9E"/>
      <stop offset="1" stop-color="#67D0C4"/>
    </linearGradient>
    <linearGradient id="paint1_linear_1066_14817" x1="47.1704" y1="20" x2="47.1704" y2="76" gradientUnits="userSpaceOnUse">
      <stop stop-color="white"/>
      <stop offset="1" stop-color="white" stop-opacity="0.8"/>
    </linearGradient>
  </defs>
</svg>
