<svg width="96" height="96" viewBox="0 0 96 96" fill="none" xmlns="http://www.w3.org/2000/svg">
<rect width="96" height="96" rx="36" fill="url(#paint0_linear_2811_5880)"/>
<rect x="0.5" y="0.5" width="95" height="95" rx="35.5" stroke="black" stroke-opacity="0.2"/>
<circle cx="48" cy="48" r="16" fill="url(#paint1_linear_2811_5880)"/>
<path d="M67.0271 23.1792L68.6153 30.2203C68.6976 30.6331 68.6127 31.0617 68.3792 31.4119C68.1457 31.7621 67.7828 32.0053 67.3701 32.0881L60.3289 32.7763C60.1215 32.8253 59.9063 32.832 59.6962 32.7961C59.486 32.7601 59.2853 32.6822 59.1059 32.567C58.9266 32.4519 58.7722 32.3018 58.6521 32.1257C58.5319 31.9496 58.4485 31.7511 58.4067 31.5421C58.3649 31.333 58.3656 31.1177 58.4087 30.909C58.4519 30.7002 58.5367 30.5023 58.6579 30.327C58.7792 30.1517 58.9345 30.0026 59.1147 29.8886C59.2948 29.7746 59.496 29.698 59.7064 29.6634L63.2217 29.674C59.0543 26.2127 53.8318 24.275 48.4153 24.1806C42.9988 24.0862 37.7119 25.8406 33.4264 29.1545C29.141 32.4685 26.113 37.144 24.8417 42.41C23.5705 47.6761 24.132 53.2181 26.4336 58.1222C28.7352 63.0262 32.6394 66.9994 37.5024 69.3865C42.3655 71.7736 47.8968 72.432 53.1843 71.2531C58.4718 70.0742 63.1996 67.1285 66.588 62.9017C69.9765 58.6749 71.8231 53.4195 71.8235 48.0022C71.8235 47.581 71.9909 47.177 72.2887 46.8792C72.5866 46.5813 72.9905 46.414 73.4118 46.414C73.833 46.414 74.237 46.5813 74.5348 46.8792C74.8327 47.177 75 47.581 75 48.0022C74.9995 54.1105 72.9278 60.0381 69.1233 64.8168C65.3188 69.5956 60.0063 72.9431 54.0535 74.3126C48.1007 75.6821 41.8595 74.9927 36.3492 72.3569C30.8389 69.7211 26.3851 65.2947 23.7154 59.8008C21.0457 54.3068 20.3178 48.0699 21.6506 42.1088C22.9833 36.1477 26.298 30.8147 31.0532 26.9808C35.8085 23.1469 41.7232 21.0387 47.8313 21.0005C53.9395 20.9624 59.8801 22.9965 64.6828 26.7707L63.9141 23.8018C63.8409 23.4374 63.8977 23.0589 64.0747 22.7322C64.2517 22.4054 64.5377 22.151 64.8829 22.0134L65.1593 21.934C65.5721 21.8517 66.0006 21.9366 66.3508 22.1701C66.7011 22.4035 66.9443 22.7665 67.0271 23.1792Z" fill="url(#paint2_linear_2811_5880)"/>
<defs>
<linearGradient id="paint0_linear_2811_5880" x1="0" y1="0" x2="0" y2="96" gradientUnits="userSpaceOnUse">
<stop stop-color="#1162FA"/>
<stop offset="1" stop-color="#5892FF"/>
</linearGradient>
<linearGradient id="paint1_linear_2811_5880" x1="50.2857" y1="33.5" x2="50.2857" y2="63.5" gradientUnits="userSpaceOnUse">
<stop stop-color="white"/>
<stop offset="1" stop-color="white" stop-opacity="0.8"/>
</linearGradient>
<linearGradient id="paint2_linear_2811_5880" x1="51.8571" y1="23.5313" x2="51.8571" y2="74.1562" gradientUnits="userSpaceOnUse">
<stop stop-color="white"/>
<stop offset="1" stop-color="white" stop-opacity="0.8"/>
</linearGradient>
</defs>
</svg>
