<svg width="96" height="96" viewBox="0 0 96 96" fill="none" xmlns="http://www.w3.org/2000/svg">
<rect width="96" height="96" fill="#F5F5F5"/>
<g id="&#229;&#183;&#165;&#228;&#189;&#156;&#228;&#184;&#173;&#229;&#191;&#131;" clip-path="url(#clip0_1062_14464)">
<rect width="800" height="1648" transform="translate(-188 -96)" fill="#F5F7FA"/>
<g id="&#229;&#141;&#161;&#231;&#137;&#135;&#229;&#140;&#186;&#229;&#159;&#159;">
<g id="&#229;&#143;&#175;&#231;&#188;&#150;&#232;&#190;&#145;&#229;&#141;&#161;&#231;&#137;&#135;">
<rect width="800" height="162" transform="translate(-188 -16)" fill="white"/>
<g id="&#230;&#172;&#161;&#232;&#166;&#129;&#228;&#191;&#161;&#230;&#129;&#175;&#229;&#140;&#186;&#229;&#159;&#159;">
<g id="&#229;&#138;&#159;&#232;&#131;&#189;&#230;&#140;&#137;&#233;&#146;&#174;">
<g id="icon-&#230;&#136;&#144;&#229;&#147;&#129;&#229;&#133;&#165;&#229;&#186;&#147;">
<rect width="96" height="96" rx="36" fill="url(#paint0_linear_1062_14464)"/>
<g id="Union" filter="url(#filter0_d_1062_14464)">
<path d="M72 39.217C72 37.8378 71.2895 36.556 70.12 35.825L50.12 23.325C48.8229 22.5143 47.1771 22.5143 45.88 23.325L25.88 35.825C24.7105 36.556 24 37.8378 24 39.217V66C24 68.2091 25.7909 70 28 70H68C70.2091 70 72 68.2091 72 66V39.217Z" fill="url(#paint1_linear_1062_14464)"/>
</g>
<path id="Union_2" fill-rule="evenodd" clip-rule="evenodd" d="M38.9219 53.2318C38.4421 53.6316 38.4421 54.3684 38.9219 54.7682L48.3598 62.6332C49.0111 63.1759 50 62.7128 50 61.8649V58H56V50H50V46.135C50 45.2872 49.0111 44.824 48.3598 45.3668L38.9219 53.2318ZM58 50H64V58H58V50ZM72 50H66V58H72V50Z" fill="url(#paint2_linear_1062_14464)"/>
<rect x="0.5" y="0.5" width="95" height="95" rx="35.5" stroke="black" stroke-opacity="0.2"/>
</g>
</g>
</g>
</g>
</g>
</g>
<defs>
<filter id="filter0_d_1062_14464" x="21" y="20.717" width="54" height="53.283" filterUnits="userSpaceOnUse" color-interpolation-filters="sRGB">
<feFlood flood-opacity="0" result="BackgroundImageFix"/>
<feColorMatrix in="SourceAlpha" type="matrix" values="0 0 0 0 0 0 0 0 0 0 0 0 0 0 0 0 0 0 127 0" result="hardAlpha"/>
<feOffset dy="1"/>
<feGaussianBlur stdDeviation="1.5"/>
<feComposite in2="hardAlpha" operator="out"/>
<feColorMatrix type="matrix" values="0 0 0 0 0.200521 0 0 0 0 0.46441 0 0 0 0 0.9625 0 0 0 1 0"/>
<feBlend mode="normal" in2="BackgroundImageFix" result="effect1_dropShadow_1062_14464"/>
<feBlend mode="normal" in="SourceGraphic" in2="effect1_dropShadow_1062_14464" result="shape"/>
</filter>
<linearGradient id="paint0_linear_1062_14464" x1="0" y1="0" x2="0" y2="96" gradientUnits="userSpaceOnUse">
<stop stop-color="#1162FA"/>
<stop offset="1" stop-color="#5892FF"/>
</linearGradient>
<linearGradient id="paint1_linear_1062_14464" x1="48" y1="35" x2="48" y2="70" gradientUnits="userSpaceOnUse">
<stop stop-color="white"/>
<stop offset="1" stop-color="#C4DBFF"/>
</linearGradient>
<linearGradient id="paint2_linear_1062_14464" x1="39" y1="45" x2="73.5" y2="45.1331" gradientUnits="userSpaceOnUse">
<stop stop-color="#206CFD"/>
<stop offset="1" stop-color="#206CFD" stop-opacity="0.5"/>
</linearGradient>
<clipPath id="clip0_1062_14464">
<rect width="800" height="1648" fill="white" transform="translate(-188 -96)"/>
</clipPath>
</defs>
</svg>
