<svg width="20" height="20" viewBox="0 0 20 20" xmlns="http://www.w3.org/2000/svg">
<g id="icon-&#230;&#137;&#171;&#231;&#160;&#129; 1" clip-path="url(#clip0_364_3294)">
<g id="&#230;&#142;&#167;&#228;&#187;&#182;">
<g id="&#230;&#137;&#171;&#231;&#160;&#129;&#230;&#140;&#137;&#233;&#146;&#174;">
<g id="&#230;&#137;&#171;&#231;&#160;&#129;">
<g id="icon-&#230;&#137;&#171;&#231;&#160;&#129;">
<path id="&#231;&#159;&#169;&#229;&#189;&#162;" d="M19.2308 9.23077H0.769231C0.344396 9.23077 0 9.57517 0 10C0 10.4248 0.344396 10.7692 0.769231 10.7692H19.2308C19.6556 10.7692 20 10.4248 20 10C20 9.57517 19.6556 9.23077 19.2308 9.23077Z"/>
<path id="&#229;&#189;&#162;&#231;&#138;&#182;&#231;&#187;&#147;&#229;&#144;&#136;" clip-rule="evenodd" d="M6.92308 0C7.34791 0 7.69231 0.344396 7.69231 0.769231C7.69231 1.19407 7.34791 1.53846 6.92308 1.53846H1.53846V6.15385C1.53846 6.57868 1.19407 6.92308 0.769231 6.92308C0.344396 6.92308 0 6.57868 0 6.15385V0.769231C0 0.344396 0.344396 0 0.769231 0H6.92308Z"/>
<path id="&#229;&#189;&#162;&#231;&#138;&#182;&#231;&#187;&#147;&#229;&#144;&#136;&#229;&#164;&#135;&#228;&#187;&#189;-2" clip-rule="evenodd" d="M6.92308 20C7.34791 20 7.69231 19.6556 7.69231 19.2308C7.69231 18.8059 7.34791 18.4615 6.92308 18.4615H1.53846V13.8462C1.53846 13.4213 1.19407 13.0769 0.769231 13.0769C0.344396 13.0769 0 13.4213 0 13.8462V19.2308C0 19.6556 0.344396 20 0.769231 20H6.92308Z"/>
<path id="&#229;&#189;&#162;&#231;&#138;&#182;&#231;&#187;&#147;&#229;&#144;&#136;&#229;&#164;&#135;&#228;&#187;&#189;" clip-rule="evenodd" d="M13.0769 0C12.6521 0 12.3077 0.344396 12.3077 0.769231C12.3077 1.19407 12.6521 1.53846 13.0769 1.53846H18.4615V6.15385C18.4615 6.57868 18.8059 6.92308 19.2308 6.92308C19.6556 6.92308 20 6.57868 20 6.15385V0.769231C20 0.344396 19.6556 0 19.2308 0H13.0769Z"/>
<path id="&#229;&#189;&#162;&#231;&#138;&#182;&#231;&#187;&#147;&#229;&#144;&#136;&#229;&#164;&#135;&#228;&#187;&#189;-3" clip-rule="evenodd" d="M13.0769 20C12.6521 20 12.3077 19.6556 12.3077 19.2308C12.3077 18.8059 12.6521 18.4615 13.0769 18.4615H18.4615V13.8462C18.4615 13.4213 18.8059 13.0769 19.2308 13.0769C19.6556 13.0769 20 13.4213 20 13.8462V19.2308C20 19.6556 19.6556 20 19.2308 20H13.0769Z"/>
</g>
</g>
</g>
</g>
</g>
<defs>
<clipPath id="clip0_364_3294">
<rect width="20" height="20"/>
</clipPath>
</defs>
</svg>
