<svg width="96" height="96" viewBox="0 0 96 96" fill="none" xmlns="http://www.w3.org/2000/svg">
<rect width="96" height="96" rx="36" fill="url(#paint0_linear_2811_5856)"/>
<rect x="0.5" y="0.5" width="95" height="95" rx="35.5" stroke="black" stroke-opacity="0.2"/>
<path fill-rule="evenodd" clip-rule="evenodd" d="M35.0589 28.7826C33.1995 29.9482 32 31.9617 32 34.1563V39H35V41H32V51H35V53H32V63H35V65H32V66C32 73.732 38.268 80 46 80H50C57.732 80 64 73.732 64 66V34.1563C64 31.9617 62.8005 29.9482 60.9411 28.7826C58.156 27.0368 54.1593 24.2766 52 21.614C50.0301 19.185 48 16 48 16C48 16 45.9699 19.185 44 21.614C41.8407 24.2766 37.844 27.0368 35.0589 28.7826ZM36 39H39V41H36V39ZM40 39H43V41H40V39ZM44 39H47V41H44V39ZM48 39H51V41H48V39ZM52 39H55V41H52V39ZM56 39H59V41H56V39ZM60 39H63V41H60V39ZM39 51H36V53H39V51ZM43 51H40V53H43V51ZM47 51H44V53H47V51ZM51 51H48V53H51V51ZM55 51H52V53H55V51ZM59 51H56V53H59V51ZM63 51H60V53H63V51ZM36 63H39V65H36V63ZM40 63H43V65H40V63ZM44 63H47V65H44V63ZM48 63H51V65H48V63ZM52 63H55V65H52V63ZM56 63H59V65H56V63ZM60 63H63V65H60V63Z" fill="url(#paint1_linear_2811_5856)"/>
<defs>
<linearGradient id="paint0_linear_2811_5856" x1="0" y1="0" x2="0" y2="96" gradientUnits="userSpaceOnUse">
<stop stop-color="#F36907"/>
<stop offset="1" stop-color="#FA841D"/>
</linearGradient>
<linearGradient id="paint1_linear_2811_5856" x1="50.2857" y1="19" x2="50.2857" y2="79" gradientUnits="userSpaceOnUse">
<stop stop-color="white"/>
<stop offset="1" stop-color="white" stop-opacity="0.8"/>
</linearGradient>
</defs>
</svg>
