<svg width="96" height="96" viewBox="0 0 96 96" fill="none" xmlns="http://www.w3.org/2000/svg">
<rect width="96" height="96" rx="36" fill="url(#paint0_linear_2811_5821)"/>
<rect x="0.5" y="0.5" width="95" height="95" rx="35.5" stroke="black" stroke-opacity="0.2"/>
<path d="M27.0432 43.9235C28.28 45.2034 29.9619 46 31.7417 46L69 46C74.5229 46 79 41.5229 79 36C79 30.4772 74.5229 26 69 26L31.7417 26C29.9619 26 28.28 26.7966 27.0432 28.0765C25.3713 29.8068 22.8213 32.1925 20.3589 33.5C18.0402 34.7312 15 36 15 36C15 36 18.0402 37.2688 20.3589 38.5C22.8213 39.8075 25.3713 42.1932 27.0432 43.9235Z" fill="url(#paint1_linear_2811_5821)"/>
<path d="M27 68C29.7614 68 32 65.7614 32 63C32 60.2386 29.7614 58 27 58C24.2386 58 22 60.2386 22 63C22 65.7614 24.2386 68 27 68Z" fill="url(#paint2_linear_2811_5821)"/>
<path d="M46 63C46 65.7614 43.7614 68 41 68C38.2386 68 36 65.7614 36 63C36 60.2386 38.2386 58 41 58C43.7614 58 46 60.2386 46 63Z" fill="url(#paint3_linear_2811_5821)"/>
<path d="M55 68C57.7614 68 60 65.7614 60 63C60 60.2386 57.7614 58 55 58C52.2386 58 50 60.2386 50 63C50 65.7614 52.2386 68 55 68Z" fill="url(#paint4_linear_2811_5821)"/>
<path d="M74 63C74 65.7614 71.7614 68 69 68C66.2386 68 64 65.7614 64 63C64 60.2386 66.2386 58 69 58C71.7614 58 74 60.2386 74 63Z" fill="url(#paint5_linear_2811_5821)"/>
<path fill-rule="evenodd" clip-rule="evenodd" d="M15 63C15 56.3726 20.3726 51 27 51H69C75.6274 51 81 56.3726 81 63C81 69.6274 75.6274 75 69 75H27C20.3726 75 15 69.6274 15 63ZM27 53H69C74.5228 53 79 57.4772 79 63C79 68.5228 74.5228 73 69 73H27C21.4772 73 17 68.5228 17 63C17 57.4772 21.4772 53 27 53Z" fill="url(#paint6_linear_2811_5821)"/>
<defs>
<linearGradient id="paint0_linear_2811_5821" x1="0" y1="0" x2="0" y2="96" gradientUnits="userSpaceOnUse">
<stop stop-color="#F36907"/>
<stop offset="1" stop-color="#FA841D"/>
</linearGradient>
<linearGradient id="paint1_linear_2811_5821" x1="48" y1="26" x2="48" y2="75" gradientUnits="userSpaceOnUse">
<stop stop-color="white"/>
<stop offset="1" stop-color="white" stop-opacity="0.8"/>
</linearGradient>
<linearGradient id="paint2_linear_2811_5821" x1="48" y1="26" x2="48" y2="75" gradientUnits="userSpaceOnUse">
<stop stop-color="white"/>
<stop offset="1" stop-color="white" stop-opacity="0.8"/>
</linearGradient>
<linearGradient id="paint3_linear_2811_5821" x1="48" y1="26" x2="48" y2="75" gradientUnits="userSpaceOnUse">
<stop stop-color="white"/>
<stop offset="1" stop-color="white" stop-opacity="0.8"/>
</linearGradient>
<linearGradient id="paint4_linear_2811_5821" x1="48" y1="26" x2="48" y2="75" gradientUnits="userSpaceOnUse">
<stop stop-color="white"/>
<stop offset="1" stop-color="white" stop-opacity="0.8"/>
</linearGradient>
<linearGradient id="paint5_linear_2811_5821" x1="48" y1="26" x2="48" y2="75" gradientUnits="userSpaceOnUse">
<stop stop-color="white"/>
<stop offset="1" stop-color="white" stop-opacity="0.8"/>
</linearGradient>
<linearGradient id="paint6_linear_2811_5821" x1="48" y1="26" x2="48" y2="75" gradientUnits="userSpaceOnUse">
<stop stop-color="white"/>
<stop offset="1" stop-color="white" stop-opacity="0.8"/>
</linearGradient>
</defs>
</svg>
