<svg width="96" height="96" viewBox="0 0 96 96" fill="none" xmlns="http://www.w3.org/2000/svg">
  <rect width="96" height="96" rx="36" fill="url(#paint0_linear_1066_14769)"/>
  <path d="M27 30C27 29.3812 27.2458 28.7877 27.6834 28.3501C28.121 27.9125 28.7145 27.6667 29.3333 27.6667H66.6667C67.2855 27.6667 67.879 27.9125 68.3166 28.3501C68.7542 28.7877 69 29.3812 69 30V38.1667C68.9999 38.5346 68.9127 38.8974 68.7456 39.2252C68.5786 39.5531 68.3363 39.8368 68.0387 40.0532L56.1667 48.6877V65C56.1667 65.4029 56.0623 65.799 55.8638 66.1496C55.6653 66.5003 55.3793 66.7935 55.0338 67.0008L43.3672 74.0008C43.0131 74.2133 42.609 74.328 42.1961 74.3332C41.7832 74.3384 41.3764 74.2339 41.017 74.0305C40.6577 73.827 40.3588 73.5319 40.1509 73.1752C39.9429 72.8184 39.8333 72.4129 39.8333 72V48.6877L27.9613 40.0543C27.6635 39.8378 27.4212 39.554 27.2541 39.2259C27.087 38.8978 26.9999 38.5348 27 38.1667V30Z" fill="url(#paint1_linear_1066_14769)"/>
  <path d="M70.1667 58H60.8333V53.3333H70.1667V58ZM70.1667 67.3333H60.8333V62.6667H70.1667V67.3333Z" fill="white"/>
  <rect x="0.5" y="0.5" width="95" height="95" rx="35.5" stroke="black" stroke-opacity="0.2"/>
  <defs>
    <linearGradient id="paint0_linear_1066_14769" x1="0" y1="0" x2="0" y2="96" gradientUnits="userSpaceOnUse">
      <stop stop-color="#51BE23"/>
      <stop offset="1" stop-color="#6EDF37"/>
    </linearGradient>
    <linearGradient id="paint1_linear_1066_14769" x1="48" y1="27.6667" x2="48" y2="74.3334" gradientUnits="userSpaceOnUse">
      <stop stop-color="white"/>
      <stop offset="1" stop-color="white" stop-opacity="0.8"/>
    </linearGradient>
  </defs>
</svg>
