<svg width="96" height="96" viewBox="0 0 96 96" fill="none" xmlns="http://www.w3.org/2000/svg">
<rect width="96" height="96" rx="36" fill="url(#paint0_linear_2819_33)"/>
<rect x="0.5" y="0.5" width="95" height="95" rx="35.5" stroke="black" stroke-opacity="0.2"/>
<path d="M47.1267 52.7647C47.554 52.7227 47.8747 53.1946 47.6748 53.5746C46.3272 56.1362 45.6208 58.9964 45.6251 61.9059C45.6251 65.3347 46.587 68.5381 48.2543 71.2571C48.6903 71.9681 48.2058 72.9434 47.3718 72.9434H25.3752C23.5111 72.9434 22 71.4228 22 69.547V62.1355C22 61.2126 22.3127 60.3123 22.9257 59.6224C26.7216 55.3503 31.4693 52.1448 36.7811 50.4367C37.0663 50.345 37.3763 50.3937 37.6305 50.5524C40.0283 52.0489 42.7974 52.8423 45.6251 52.8377C46.1319 52.8377 46.6328 52.8131 47.1267 52.7647ZM45.6245 22C52.1483 22 57.4371 27.322 57.4371 33.8869V37.2833C57.4359 43.8482 52.1465 49.1696 45.6227 49.1684C39.1001 49.1672 33.8126 43.847 33.812 37.2833V33.8869C33.8126 27.322 39.1013 22 45.6245 22ZM56.4821 57.6601H74.3124C75.2445 57.6601 76 58.4204 76 59.3583C76 60.2962 75.2445 61.0565 74.3124 61.0565H52.3749C51.4428 61.0571 50.6867 60.2974 50.6867 59.3595C50.6867 58.8096 50.9506 58.2936 51.3964 57.9747L54.7951 54.5565C55.4657 53.9047 56.5339 53.9235 57.181 54.5983C57.8124 55.2561 57.8124 56.2996 57.181 56.958L56.4821 57.6601ZM75.5035 67.3528C75.4993 67.3577 75.4957 67.3619 75.4915 67.3661L71.9109 70.9663C71.2312 71.6083 70.1636 71.5744 69.5256 70.8911C68.9158 70.2381 68.9158 69.2208 69.525 68.5672L70.2389 67.8488H52.3749C51.4428 67.8488 50.6873 67.0885 50.6873 66.1505C50.6873 65.2126 51.4428 64.4523 52.3749 64.4523H74.3124C75.2445 64.4523 76 65.2132 75.9994 66.1505C75.9994 66.6022 75.8211 67.0345 75.5035 67.3528Z" fill="url(#paint1_linear_2819_33)"/>
<defs>
<linearGradient id="paint0_linear_2819_33" x1="0" y1="0" x2="0" y2="96" gradientUnits="userSpaceOnUse">
<stop stop-color="#6E64F8"/>
<stop offset="0.0001" stop-color="#7064F8"/>
<stop offset="1" stop-color="#8985FF"/>
</linearGradient>
<linearGradient id="paint1_linear_2819_33" x1="49" y1="20.0599" x2="49" y2="81.1738" gradientUnits="userSpaceOnUse">
<stop stop-color="white"/>
<stop offset="0.7" stop-color="#E5E3FF"/>
</linearGradient>
</defs>
</svg>
