<svg xmlns="http://www.w3.org/2000/svg" width="96" height="96" viewBox="0 0 96 96" fill="none">
  <rect width="96" height="96" rx="36" fill="url(#paint0_linear_1066_14853)"/>
  <path d="M72.4961 26.377C72.6578 26.6666 72.782 26.9611 72.8666 27.2598L72.3855 27.3961C72.4616 27.6649 72.5 27.9353 72.5 28.2075C72.5 28.4798 72.4616 28.7502 72.3855 29.019L72.8666 29.1553C72.782 29.454 72.6578 29.7485 72.4961 30.0381L72.0596 29.7942C71.8039 30.2518 71.436 30.7083 70.9553 31.1578L71.2969 31.523C71.0722 31.7331 70.8268 31.9394 70.5617 32.1418L70.2584 31.7442C69.8059 32.0894 69.289 32.4253 68.7112 32.7493L68.9558 33.1855C68.6843 33.3377 68.4007 33.4869 68.1056 33.6328L67.884 33.1845C67.3505 33.4483 66.7763 33.702 66.1642 33.9444L66.3483 34.4093C66.0572 34.5246 65.758 34.6372 65.4512 34.747L65.2827 34.2763C64.7108 34.481 64.1109 34.6761 63.485 34.8608L63.6265 35.3404C63.3242 35.4296 63.0161 35.5164 62.7024 35.6006L62.5727 35.1177C61.9788 35.2772 61.3643 35.4276 60.7308 35.5683L60.8391 36.0564C60.5309 36.1248 60.2182 36.191 59.9015 36.2548L59.8028 35.7646C59.195 35.887 58.5716 36.0006 57.9337 36.105L58.0144 36.5984C57.7015 36.6496 57.3852 36.6986 57.0657 36.7453L56.9933 36.2506C56.3756 36.3409 55.7456 36.4227 55.1044 36.4955L55.1608 36.9923C54.8458 37.0281 54.5282 37.0617 54.2081 37.0932L54.1593 36.5956C53.536 36.6568 52.9031 36.7096 52.2614 36.7537L52.2957 37.2525C51.9779 37.2743 51.6581 37.2941 51.3364 37.3116L51.3092 36.8123C50.6826 36.8465 50.0484 36.8723 49.4074 36.8895L49.4209 37.3894C49.1025 37.3979 48.7825 37.4044 48.461 37.4087L48.4544 36.9087C48.1377 36.913 47.8195 36.9151 47.5 36.9151C47.1805 36.9151 46.8623 36.913 46.5456 36.9087L46.539 37.4087C46.2175 37.4044 45.8975 37.3979 45.5791 37.3894L45.5926 36.8895C44.9516 36.8723 44.3174 36.8465 43.6908 36.8123L43.6636 37.3116C43.3419 37.2941 43.0221 37.2743 42.7043 37.2525L42.7386 36.7537C42.0969 36.7096 41.464 36.6568 40.8407 36.5956L40.7919 37.0932C40.4718 37.0617 40.1542 37.0281 39.8392 36.9923L39.8956 36.4955C39.2544 36.4227 38.6244 36.3409 38.0067 36.2506L37.9343 36.7453C37.6148 36.6986 37.2985 36.6496 36.9856 36.5984L37.0663 36.105C36.4284 36.0006 35.8049 35.887 35.1972 35.7646L35.0985 36.2548C34.7818 36.191 34.4691 36.1248 34.1609 36.0564L34.2692 35.5683C33.6357 35.4276 33.0212 35.2772 32.4273 35.1177L32.2976 35.6006C31.9839 35.5164 31.6758 35.4296 31.3735 35.3404L31.515 34.8608C30.8891 34.6761 30.2892 34.481 29.7173 34.2763L29.5488 34.747C29.242 34.6372 28.9428 34.5246 28.6517 34.4093L28.8358 33.9444C28.2237 33.702 27.6495 33.4483 27.116 33.1845L26.8944 33.6328C26.5993 33.4869 26.3157 33.3377 26.0442 33.1855L26.2888 32.7493C25.711 32.4253 25.1941 32.0894 24.7416 31.7442L24.4383 32.1418C24.1732 31.9394 23.9278 31.7331 23.7031 31.523L24.0447 31.1578C23.564 30.7083 23.1961 30.2518 22.9404 29.7942L22.5039 30.0381C22.3422 29.7485 22.218 29.454 22.1334 29.1553L22.6145 29.019C22.5384 28.7502 22.5 28.4798 22.5 28.2075C22.5 27.9353 22.5384 27.6649 22.6145 27.3961L22.1334 27.2598C22.218 26.9611 22.3422 26.6666 22.5039 26.377L22.9404 26.6209C23.1961 26.1633 23.564 25.7068 24.0447 25.2573L23.7031 24.8921C23.9278 24.682 24.1732 24.4756 24.4383 24.2733L24.7416 24.6709C25.1941 24.3257 25.711 23.9898 26.2888 23.6657L26.0442 23.2296C26.3157 23.0774 26.5993 22.9282 26.8944 22.7823L27.116 23.2305C27.6495 22.9668 28.2237 22.7131 28.8358 22.4707L28.6517 22.0058C28.9428 21.8905 29.242 21.7779 29.5488 21.6681L29.7173 22.1388C30.2892 21.9341 30.8891 21.739 31.515 21.5543L31.3735 21.0747C31.6758 20.9855 31.9839 20.8987 32.2976 20.8145L32.4273 21.2974C33.0212 21.1379 33.6357 20.9875 34.2692 20.8468L34.1609 20.3587C34.4691 20.2903 34.7818 20.2241 35.0985 20.1603L35.1972 20.6505C35.8049 20.5281 36.4284 20.4145 37.0663 20.3101L36.9856 19.8167C37.2985 19.7655 37.6148 19.7165 37.9343 19.6698L38.0067 20.1645C38.6244 20.0742 39.2544 19.9924 39.8956 19.9196L39.8392 19.4227C40.1542 19.387 40.4718 19.3533 40.7919 19.3219L40.8407 19.8195C41.464 19.7583 42.0969 19.7055 42.7386 19.6614L42.7043 19.1626C43.0221 19.1407 43.3419 19.121 43.6636 19.1035L43.6908 19.6028C44.3174 19.5686 44.9516 19.5428 45.5926 19.5256L45.5791 19.0257C45.8975 19.0172 46.2175 19.0107 46.539 19.0064L46.5456 19.5064C46.8623 19.5021 47.1805 19.5 47.5 19.5C47.8195 19.5 48.1377 19.5021 48.4544 19.5064L48.461 19.0064C48.7825 19.0107 49.1025 19.0172 49.4209 19.0257L49.4074 19.5256C50.0484 19.5428 50.6826 19.5686 51.3092 19.6028L51.3364 19.1035C51.6581 19.121 51.9779 19.1407 52.2957 19.1626L52.2614 19.6614C52.9031 19.7055 53.536 19.7583 54.1593 19.8195L54.2081 19.3219C54.5282 19.3533 54.8458 19.387 55.1608 19.4227L55.1044 19.9196C55.7456 19.9924 56.3756 20.0742 56.9933 20.1645L57.0657 19.6698C57.3852 19.7165 57.7015 19.7655 58.0144 19.8167L57.9337 20.3101C58.5716 20.4145 59.1951 20.5281 59.8028 20.6505L59.9015 20.1603C60.2182 20.2241 60.5309 20.2903 60.8391 20.3587L60.7308 20.8468C61.3643 20.9875 61.9788 21.1379 62.5727 21.2974L62.7024 20.8145C63.0161 20.8987 63.3242 20.9855 63.6265 21.0747L63.485 21.5543C64.1109 21.739 64.7108 21.9341 65.2827 22.1388L65.4512 21.6681C65.758 21.7779 66.0572 21.8905 66.3483 22.0058L66.1642 22.4707C66.7763 22.7131 67.3505 22.9668 67.884 23.2305L68.1056 22.7823C68.4007 22.9282 68.6843 23.0774 68.9558 23.2296L68.7112 23.6657C69.289 23.9898 69.8059 24.3257 70.2584 24.6709L70.5617 24.2733C70.8268 24.4756 71.0722 24.682 71.2969 24.8921L70.9553 25.2573C71.436 25.7068 71.8039 26.1633 72.0596 26.6209L72.4961 26.377Z" stroke="white" stroke-dasharray="2 1"/>
  <path d="M72.4961 68.9619C72.6578 69.2515 72.782 69.546 72.8666 69.8447L72.3855 69.981C72.4616 70.2498 72.5 70.5202 72.5 70.7924C72.5 71.0647 72.4616 71.3351 72.3855 71.6039L72.8666 71.7402C72.782 72.0389 72.6578 72.3334 72.4961 72.623L72.0596 72.3791C71.8039 72.8367 71.436 73.2932 70.9553 73.7427L71.2969 74.1079C71.0722 74.318 70.8268 74.5243 70.5617 74.7267L70.2584 74.3291C69.8059 74.6743 69.289 75.0102 68.7112 75.3342L68.9558 75.7704C68.6843 75.9226 68.4007 76.0718 68.1056 76.2177L67.884 75.7694C67.3505 76.0332 66.7763 76.2869 66.1642 76.5293L66.3483 76.9942C66.0572 77.1095 65.758 77.2221 65.4512 77.3319L65.2827 76.8612C64.7108 77.0659 64.1109 77.261 63.485 77.4457L63.6265 77.9253C63.3242 78.0145 63.0161 78.1013 62.7024 78.1855L62.5727 77.7026C61.9788 77.8621 61.3643 78.0125 60.7308 78.1532L60.8391 78.6413C60.5309 78.7097 60.2182 78.7759 59.9015 78.8397L59.8028 78.3495C59.195 78.4719 58.5716 78.5855 57.9337 78.6899L58.0144 79.1833C57.7015 79.2345 57.3852 79.2835 57.0657 79.3302L56.9933 78.8355C56.3756 78.9258 55.7456 79.0076 55.1044 79.0804L55.1608 79.5772C54.8458 79.613 54.5282 79.6466 54.2081 79.6781L54.1593 79.1805C53.536 79.2417 52.9031 79.2945 52.2614 79.3386L52.2957 79.8374C51.9779 79.8592 51.6581 79.879 51.3364 79.8965L51.3092 79.3972C50.6826 79.4314 50.0484 79.4572 49.4074 79.4744L49.4209 79.9743C49.1025 79.9828 48.7825 79.9893 48.461 79.9936L48.4544 79.4936C48.1377 79.4979 47.8195 79.5 47.5 79.5C47.1805 79.5 46.8623 79.4979 46.5456 79.4936L46.539 79.9936C46.2175 79.9893 45.8975 79.9828 45.5791 79.9743L45.5926 79.4744C44.9516 79.4572 44.3174 79.4314 43.6908 79.3972L43.6636 79.8965C43.3419 79.879 43.0221 79.8592 42.7043 79.8374L42.7386 79.3386C42.0969 79.2945 41.464 79.2417 40.8407 79.1805L40.7919 79.6781C40.4718 79.6466 40.1542 79.613 39.8392 79.5772L39.8956 79.0804C39.2544 79.0076 38.6244 78.9258 38.0067 78.8355L37.9343 79.3302C37.6148 79.2835 37.2985 79.2345 36.9856 79.1833L37.0663 78.6899C36.4284 78.5855 35.8049 78.4719 35.1972 78.3495L35.0985 78.8397C34.7818 78.7759 34.4691 78.7097 34.1609 78.6413L34.2692 78.1532C33.6357 78.0125 33.0212 77.8621 32.4273 77.7026L32.2976 78.1855C31.9839 78.1013 31.6758 78.0145 31.3735 77.9253L31.515 77.4457C30.8891 77.261 30.2892 77.0659 29.7173 76.8612L29.5488 77.3319C29.242 77.2221 28.9428 77.1095 28.6517 76.9942L28.8358 76.5293C28.2237 76.2869 27.6495 76.0332 27.116 75.7694L26.8944 76.2177C26.5993 76.0718 26.3157 75.9226 26.0442 75.7704L26.2888 75.3342C25.711 75.0102 25.1941 74.6743 24.7416 74.3291L24.4383 74.7267C24.1732 74.5243 23.9278 74.318 23.7031 74.1079L24.0447 73.7427C23.564 73.2932 23.1961 72.8367 22.9404 72.3791L22.5039 72.623C22.3422 72.3334 22.218 72.0389 22.1334 71.7402L22.6145 71.6039C22.5384 71.3351 22.5 71.0647 22.5 70.7924C22.5 70.5202 22.5384 70.2498 22.6145 69.981L22.1334 69.8447C22.218 69.546 22.3422 69.2515 22.5039 68.9619L22.9404 69.2058C23.1961 68.7482 23.564 68.2917 24.0447 67.8422L23.7031 67.477C23.9278 67.2669 24.1732 67.0605 24.4383 66.8582L24.7416 67.2558C25.1941 66.9106 25.711 66.5747 26.2888 66.2506L26.0442 65.8145C26.3157 65.6623 26.5993 65.5131 26.8944 65.3672L27.116 65.8154C27.6495 65.5517 28.2237 65.298 28.8358 65.0556L28.6517 64.5907C28.9428 64.4754 29.242 64.3628 29.5488 64.253L29.7173 64.7237C30.2892 64.519 30.8891 64.3239 31.515 64.1392L31.3735 63.6596C31.6758 63.5704 31.9839 63.4836 32.2976 63.3994L32.4273 63.8823C33.0212 63.7228 33.6357 63.5724 34.2692 63.4317L34.1609 62.9436C34.4691 62.8752 34.7818 62.809 35.0985 62.7452L35.1972 63.2354C35.8049 63.113 36.4284 62.9994 37.0663 62.895L36.9856 62.4016C37.2985 62.3504 37.6148 62.3014 37.9343 62.2547L38.0067 62.7494C38.6244 62.6591 39.2544 62.5773 39.8956 62.5045L39.8392 62.0076C40.1542 61.9719 40.4718 61.9382 40.7919 61.9068L40.8407 62.4044C41.464 62.3432 42.0969 62.2904 42.7386 62.2463L42.7043 61.7475C43.0221 61.7256 43.3419 61.7059 43.6636 61.6884L43.6908 62.1877C44.3174 62.1535 44.9516 62.1277 45.5926 62.1105L45.5791 61.6106C45.8975 61.6021 46.2175 61.5956 46.539 61.5913L46.5456 62.0913C46.8623 62.087 47.1805 62.0849 47.5 62.0849C47.8195 62.0849 48.1377 62.087 48.4544 62.0913L48.461 61.5913C48.7825 61.5956 49.1025 61.6021 49.4209 61.6106L49.4074 62.1105C50.0484 62.1277 50.6826 62.1535 51.3092 62.1877L51.3364 61.6884C51.6581 61.7059 51.9779 61.7256 52.2957 61.7475L52.2614 62.2463C52.9031 62.2904 53.536 62.3432 54.1593 62.4044L54.2081 61.9068C54.5282 61.9382 54.8458 61.9719 55.1608 62.0076L55.1044 62.5045C55.7456 62.5773 56.3756 62.6591 56.9933 62.7494L57.0657 62.2547C57.3852 62.3014 57.7015 62.3504 58.0144 62.4016L57.9337 62.895C58.5716 62.9994 59.1951 63.113 59.8028 63.2354L59.9015 62.7452C60.2182 62.809 60.5309 62.8752 60.8391 62.9436L60.7308 63.4317C61.3643 63.5724 61.9788 63.7228 62.5727 63.8823L62.7024 63.3994C63.0161 63.4836 63.3242 63.5704 63.6265 63.6596L63.485 64.1392C64.1109 64.3239 64.7108 64.519 65.2827 64.7237L65.4512 64.253C65.758 64.3628 66.0572 64.4754 66.3483 64.5907L66.1642 65.0556C66.7763 65.298 67.3505 65.5517 67.884 65.8154L68.1056 65.3672C68.4007 65.5131 68.6843 65.6623 68.9558 65.8145L68.7112 66.2506C69.289 66.5747 69.8059 66.9106 70.2584 67.2558L70.5617 66.8582C70.8268 67.0605 71.0722 67.2669 71.2969 67.477L70.9553 67.8422C71.436 68.2917 71.8039 68.7482 72.0596 69.2058L72.4961 68.9619Z" stroke="white" stroke-dasharray="2 1"/>
  <line x1="22.5" y1="28.2076" x2="22.5" y2="71.9434" stroke="white" stroke-dasharray="2 1"/>
  <line x1="72.5" y1="28.2076" x2="72.5" y2="71.9434" stroke="white" stroke-dasharray="2 1"/>
  <g filter="url(#filter0_d_1066_14853)">
    <path fill-rule="evenodd" clip-rule="evenodd" d="M66 48H30V66V67H30.1393C31.2465 70.9463 38.8209 74 48 74C57.1791 74 64.7535 70.9463 65.8607 67H66V66V48Z" fill="url(#paint1_linear_1066_14853)"/>
    <path d="M65 48C65 48.7792 64.6489 49.5968 63.8611 50.4246C63.0684 51.2575 61.8741 52.0531 60.3218 52.743C57.2197 54.1217 52.8641 55 48 55C43.1359 55 38.7803 54.1217 35.6782 52.743C34.1259 52.0531 32.9316 51.2575 32.1389 50.4246C31.3511 49.5968 31 48.7792 31 48C31 47.2208 31.3511 46.4032 32.1389 45.5754C32.9316 44.7425 34.1259 43.9469 35.6782 43.257C38.7803 41.8783 43.1359 41 48 41C52.8641 41 57.2197 41.8783 60.3218 43.257C61.8741 43.9469 63.0684 44.7425 63.8611 45.5754C64.6489 46.4032 65 47.2208 65 48Z" fill="#F6720F" stroke="white" stroke-width="2"/>
  </g>
  <rect x="0.5" y="0.5" width="95" height="95" rx="35.5" stroke="black" stroke-opacity="0.2"/>
  <defs>
    <filter id="filter0_d_1066_14853" x="27" y="38" width="42" height="40" filterUnits="userSpaceOnUse" color-interpolation-filters="sRGB">
      <feFlood flood-opacity="0" result="BackgroundImageFix"/>
      <feColorMatrix in="SourceAlpha" type="matrix" values="0 0 0 0 0 0 0 0 0 0 0 0 0 0 0 0 0 0 127 0" result="hardAlpha"/>
      <feOffset dy="1"/>
      <feGaussianBlur stdDeviation="1.5"/>
      <feComposite in2="hardAlpha" operator="out"/>
      <feColorMatrix type="matrix" values="0 0 0 0 0.776471 0 0 0 0 0.372549 0 0 0 0 0.0588235 0 0 0 0.5 0"/>
      <feBlend mode="normal" in2="BackgroundImageFix" result="effect1_dropShadow_1066_14853"/>
      <feBlend mode="normal" in="SourceGraphic" in2="effect1_dropShadow_1066_14853" result="shape"/>
    </filter>
    <linearGradient id="paint0_linear_1066_14853" x1="0" y1="0" x2="0" y2="96" gradientUnits="userSpaceOnUse">
      <stop stop-color="#F36907"/>
      <stop offset="1" stop-color="#FA841D"/>
    </linearGradient>
    <linearGradient id="paint1_linear_1066_14853" x1="48" y1="48" x2="48" y2="74" gradientUnits="userSpaceOnUse">
      <stop stop-color="white"/>
      <stop offset="1" stop-color="#FFEAD9"/>
    </linearGradient>
  </defs>
</svg>
