<svg width="96" height="96" viewBox="0 0 96 96" fill="none" xmlns="http://www.w3.org/2000/svg">
<rect width="96" height="96" rx="36" fill="url(#paint0_linear_2811_5899)"/>
<rect x="0.5" y="0.5" width="95" height="95" rx="35.5" stroke="black" stroke-opacity="0.2"/>
<path d="M21 58.94V67.3094C21 71.5134 24.0469 74.946 27.8652 74.946V74.9846H40.9786C44.7583 74.9846 47.8438 71.552 47.8438 67.3094V58.94C47.8438 54.6974 44.7583 51.2263 40.9786 51.2263H27.8652C24.0469 51.2263 21 54.6974 21 58.94ZM65.0686 59.3758V59.5301C65.03 59.6844 64.9914 59.8387 64.9914 60.0315C64.2972 62.847 62.9473 65.2768 62.1759 65.7011H62.1373L62.0602 65.7782L62.0216 65.8554C60.5946 67.7067 58.8976 69.018 58.3962 69.018H58.3576L58.2805 69.0566C56.9691 69.558 55.8892 69.7894 54.5007 70.0594C52.9966 70.2136 52.4952 71.255 52.5337 72.1421C52.5723 73.0677 53.1894 73.9934 54.2693 73.9934V74.0705H55.2721C55.7735 73.9934 56.3906 73.8777 57.0849 73.6848L57.2777 73.6462C57.7405 73.5305 57.8948 73.4534 58.0105 73.3763C60.9803 72.3349 63.4873 70.4065 65.6857 67.3981C67.8841 64.1198 69.0026 60.61 69.0026 57.0231V56.0204L71.2781 59.3758C71.3553 59.453 71.7024 59.7615 72.2038 59.7615C72.628 59.7615 73.0908 59.5301 73.4765 59.1059C74.6336 57.7945 73.9779 56.7532 73.9779 56.7532L69.8125 50.2351C69.6197 49.8494 68.8483 48.4995 67.4213 48.4995C66.4185 48.4995 65.4928 49.4637 65.3 49.6565L60.6717 55.9047V55.9432C60.5175 56.1361 60.1703 56.7532 60.3246 57.4088C60.4403 57.9102 60.7489 58.3345 61.2888 58.643C61.4817 58.7587 61.7517 58.7973 61.9831 58.7973C62.2916 58.7973 62.793 58.6816 63.333 58.0645L65.3771 55.3647V55.8661C65.4157 56.1746 65.4157 56.3675 65.4157 56.4832C65.4157 57.486 65.2614 58.373 65.0686 59.3758ZM42.4018 25.7015C43.9445 25.5087 44.4073 24.3516 44.3688 23.2717C44.3302 22.5003 44.0216 21.7289 43.4817 21.7289C42.556 21.7289 41.5918 21.7289 40.6662 21.9989C37.9664 22.5003 35.3437 23.9659 33.0681 26.2801C30.6769 28.9799 29.2113 31.6797 28.5556 34.5723C28.2856 35.9994 28.1313 37.5421 28.0928 39.0463V39.5091L25.7787 36.1536C25.7401 36.1151 25.393 35.7679 24.853 35.7679C24.4673 35.7679 24.0431 35.9994 23.6188 36.4236C22.4618 37.7349 23.1174 38.7763 23.1174 38.7763L27.0129 45.4487C27.09 45.6801 27.8614 47.2614 29.4427 47.2614C30.4455 47.2614 31.3711 46.2972 31.564 46.0658L36.1922 39.8562V39.8177C36.4867 39.3895 36.6105 38.8668 36.5393 38.352C36.4754 38.0945 36.356 37.8541 36.1895 37.6476C36.0229 37.441 35.8132 37.2734 35.5751 37.1564C35.3637 37.0344 35.1249 36.9681 34.8809 36.9636C34.5723 36.9636 34.0709 37.1178 33.531 37.7349L31.6797 40.1648C31.6411 40.0876 31.6411 40.0105 31.6411 39.9334V39.0849C31.6411 37.5421 31.8725 36.1922 31.9111 36.0765V36.0379L31.9496 35.9608V35.7679C32.3739 33.6852 33.1838 32.0654 33.531 31.564L33.6467 31.6411L33.8781 31.2554C35.3437 29.057 36.9636 27.63 39.0463 26.7043C40.0876 26.2029 41.2061 25.9715 42.2861 25.7401L42.4018 25.7015ZM48.1948 28.7137V37.0446C48.1948 41.2871 51.2417 44.7197 55.06 44.7197V44.7583H68.1348C71.9531 44.7583 75 41.3257 75 37.0831V28.7137C75 24.4712 71.9531 21 68.1348 21H55.0561C51.2378 21 48.1909 24.4712 48.1909 28.7137H48.1948Z" fill="url(#paint1_linear_2811_5899)"/>
<defs>
<linearGradient id="paint0_linear_2811_5899" x1="0" y1="0" x2="0" y2="96" gradientUnits="userSpaceOnUse">
<stop stop-color="#F29620"/>
<stop offset="1" stop-color="#FFBD3E"/>
</linearGradient>
<linearGradient id="paint1_linear_2811_5899" x1="48" y1="21" x2="48" y2="74.9846" gradientUnits="userSpaceOnUse">
<stop stop-color="white"/>
<stop offset="1" stop-color="white" stop-opacity="0.8"/>
</linearGradient>
</defs>
</svg>
