<svg width="96" height="96" viewBox="0 0 96 96" fill="none" xmlns="http://www.w3.org/2000/svg">
  <rect width="96" height="96" rx="36" fill="url(#paint0_linear_1066_14763)"/>
  <path d="M72.9004 66.1643C71.5725 64.9287 69.826 64.2417 68.0121 64.2417C66.1982 64.2417 64.4517 64.9287 63.1238 66.1643C62.6266 66.6156 61.9792 66.8655 61.3078 66.8655C60.6364 66.8655 59.989 66.6156 59.4918 66.1643C58.1639 64.9287 56.4174 64.2417 54.6035 64.2417C52.7896 64.2417 51.0431 64.9287 49.7152 66.1643C49.218 66.6158 48.5704 66.8659 47.8988 66.8659C47.2271 66.8659 46.5796 66.6158 46.0823 66.1643C44.7545 64.9289 43.0081 64.2422 41.1945 64.2422C39.3808 64.2422 37.6345 64.9289 36.3066 66.1643C35.8094 66.6158 35.1618 66.8659 34.4902 66.8659C33.8185 66.8659 33.171 66.6158 32.6738 66.1643C31.3459 64.9289 29.5995 64.2422 27.7859 64.2422C25.9722 64.2422 24.2259 64.9289 22.898 66.1643L20.8582 68.0749C20.4289 68.4891 20.1817 69.0569 20.171 69.6533C20.1602 70.2498 20.3869 70.8261 20.8011 71.2554C21.2153 71.6848 21.783 71.932 22.3795 71.9427C22.976 71.9534 23.5523 71.7268 23.9816 71.3126L25.9952 69.4011C26.4924 68.9495 27.14 68.6994 27.8116 68.6994C28.4833 68.6994 29.1308 68.9495 29.628 69.4011C30.9573 70.6336 32.7032 71.3184 34.5159 71.3184C36.3287 71.3184 38.0745 70.6336 39.4038 69.4011C39.901 68.9495 40.5486 68.6994 41.2202 68.6994C41.8919 68.6994 42.5394 68.9495 43.0366 69.4011C44.3659 70.6336 46.1118 71.3184 47.9245 71.3184C49.7373 71.3184 51.4831 70.6336 52.8124 69.4011C53.3096 68.9495 53.9572 68.6994 54.6288 68.6994C55.3004 68.6994 55.948 68.9495 56.4452 69.4011C57.7745 70.6336 59.5203 71.3184 61.3331 71.3184C63.1459 71.3184 64.8917 70.6336 66.221 69.4011C66.7182 68.9495 67.3658 68.6994 68.0374 68.6994C68.709 68.6994 69.3566 68.9495 69.8538 69.4011L71.8674 71.3126C72.0785 71.5233 72.3295 71.6897 72.6057 71.8022C72.8819 71.9146 73.1778 71.9708 73.476 71.9674C73.7742 71.964 74.0687 71.9011 74.3423 71.7823C74.6158 71.6636 74.863 71.4915 75.0691 71.276C75.2753 71.0606 75.4364 70.8061 75.543 70.5275C75.6495 70.249 75.6994 69.952 75.6896 69.6539C75.6799 69.3559 75.6108 69.0628 75.4863 68.7918C75.3618 68.5208 75.1844 68.2774 74.9646 68.0758L72.9004 66.1634V66.1643ZM23.7905 34.5748L25.8041 32.6624C26.3013 32.2109 26.9489 31.9608 27.6206 31.9608C28.2922 31.9608 28.9398 32.2109 29.437 32.6624C30.7663 33.8949 32.5121 34.5798 34.3249 34.5798C36.1376 34.5798 37.8834 33.8949 39.2127 32.6624C39.7099 32.2109 40.3575 31.9608 41.0291 31.9608C41.7008 31.9608 42.3484 32.2109 42.8456 32.6624C44.1749 33.8949 45.9207 34.5798 47.7334 34.5798C49.5462 34.5798 51.292 33.8949 52.6213 32.6624C53.1185 32.2109 53.7661 31.9608 54.4377 31.9608C55.1094 31.9608 55.7569 32.2109 56.2542 32.6624C57.5834 33.8949 59.3293 34.5798 61.142 34.5798C62.9548 34.5798 64.7006 33.8949 66.0299 32.6624C66.5271 32.2109 67.1747 31.9608 67.8463 31.9608C68.518 31.9608 69.1655 32.2109 69.6628 32.6624L71.6764 34.5748C71.8881 34.7827 72.1389 34.9464 72.4144 35.0565C72.6899 35.1667 72.9845 35.221 73.2811 35.2163C73.5778 35.2117 73.8705 35.1482 74.1424 35.0295C74.4143 34.9108 74.6599 34.7393 74.865 34.5249C75.0701 34.3105 75.2305 34.0575 75.3371 33.7807C75.4436 33.5038 75.4941 33.2085 75.4855 32.9119C75.477 32.6154 75.4097 32.3235 75.2875 32.0531C75.1653 31.7828 74.9906 31.5395 74.7735 31.3372L72.7599 29.4257C71.4321 28.1903 69.6857 27.5035 67.8721 27.5035C66.0584 27.5035 64.312 28.1903 62.9842 29.4257C62.487 29.8772 61.8394 30.1273 61.1678 30.1273C60.4961 30.1273 59.8486 29.8772 59.3513 29.4257C58.0235 28.1903 56.2771 27.5035 54.4635 27.5035C52.6498 27.5035 50.9035 28.1903 49.5756 29.4257C49.0784 29.8772 48.4308 30.1273 47.7592 30.1273C47.0875 30.1273 46.44 29.8772 45.9428 29.4257C44.6149 28.1903 42.8685 27.5035 41.0549 27.5035C39.2412 27.5035 37.4949 28.1903 36.167 29.4257C35.6698 29.8772 35.0222 30.1273 34.3506 30.1273C33.6789 30.1273 33.0314 29.8772 32.5342 29.4257C31.2063 28.19 29.4597 27.5031 27.6459 27.5031C25.832 27.5031 24.0854 28.19 22.7576 29.4257L20.668 31.3363C20.2471 31.7524 20.0072 32.3176 20.0002 32.9093C19.9932 33.5011 20.2197 34.0718 20.6307 34.4977C21.0416 34.9236 21.6039 35.1704 22.1956 35.1845C22.7872 35.1986 23.3606 34.9789 23.7914 34.5731L23.7905 34.5748Z" fill="white"/>
  <path d="M28.0227 48.8724C31.2752 48.8724 34.0077 51.0972 34.7824 54.1071H71.2087C71.7872 54.1071 72.342 54.3369 72.751 54.7459C73.16 55.155 73.3898 55.7098 73.3898 56.2882C73.3898 56.8667 73.16 57.4215 72.751 57.8305C72.342 58.2395 71.7872 58.4693 71.2087 58.4693H34.5661L34.4963 58.4676C33.888 59.9684 32.7771 61.211 31.3535 61.9829C29.93 62.7548 28.2824 63.0079 26.6928 62.6988C25.1032 62.3898 23.6705 61.5378 22.6399 60.2888C21.6093 59.0398 21.0448 57.4713 21.0432 55.852C21.0432 54.0009 21.7785 52.2256 23.0875 50.9167C24.3964 49.6078 26.1717 48.8724 28.0227 48.8724ZM28.0227 53.2347C27.3286 53.2347 26.6629 53.5104 26.172 54.0013C25.6812 54.4921 25.4054 55.1578 25.4054 55.852C25.4054 56.5462 25.6812 57.2119 26.172 57.7027C26.6629 58.1936 27.3286 58.4693 28.0227 58.4693C28.7169 58.4693 29.3826 58.1936 29.8735 57.7027C30.3643 57.2119 30.6401 56.5462 30.6401 55.852C30.6401 55.1578 30.3643 54.4921 29.8735 54.0013C29.3826 53.5104 28.7169 53.2347 28.0227 53.2347ZM67.2827 36.6582C68.5491 36.6587 69.7914 37.0037 70.8767 37.6562C71.962 38.3088 72.8493 39.2443 73.4435 40.3626C74.0377 41.4808 74.3165 42.7397 74.25 44.0043C74.1835 45.2689 73.7742 46.4916 73.066 47.5413C72.3578 48.5911 71.3773 49.4284 70.2295 49.9635C69.0818 50.4987 67.8101 50.7115 66.5507 50.5791C65.2913 50.4468 64.0916 49.9743 63.0802 49.2123C62.0688 48.4503 61.2838 47.4274 60.8092 46.2534L60.7394 46.2551H24.0968C23.5183 46.2551 22.9635 46.0253 22.5545 45.6163C22.1454 45.2072 21.9156 44.6525 21.9156 44.074C21.9156 43.4955 22.1454 42.9408 22.5545 42.5317C22.9635 42.1227 23.5183 41.8929 24.0968 41.8929H60.523C61.2978 38.883 64.0303 36.6582 67.2827 36.6582ZM67.2827 41.0204C66.5886 41.0204 65.9228 41.2962 65.432 41.787C64.9412 42.2779 64.6654 42.9436 64.6654 43.6378C64.6654 44.3319 64.9412 44.9977 65.432 45.4885C65.9228 45.9794 66.5886 46.2551 67.2827 46.2551C67.9769 46.2551 68.6426 45.9794 69.1335 45.4885C69.6243 44.9977 69.9001 44.3319 69.9001 43.6378C69.9001 42.9436 69.6243 42.2779 69.1335 41.787C68.6426 41.2962 67.9769 41.0204 67.2827 41.0204Z" fill="white"/>
  <rect x="0.5" y="0.5" width="95" height="95" rx="35.5" stroke="black" stroke-opacity="0.2"/>
  <defs>
    <linearGradient id="paint0_linear_1066_14763" x1="0" y1="0" x2="0" y2="96" gradientUnits="userSpaceOnUse">
      <stop stop-color="#F36907"/>
      <stop offset="1" stop-color="#FA841D"/>
    </linearGradient>
  </defs>
</svg>
