<svg width="96" height="96" viewBox="0 0 96 96" fill="none" xmlns="http://www.w3.org/2000/svg">
<rect width="96" height="96" fill="#F5F5F5"/>
<g id="&#229;&#183;&#165;&#228;&#189;&#156;&#228;&#184;&#173;&#229;&#191;&#131;" clip-path="url(#clip0_1062_14464)">
<rect width="800" height="1648" transform="translate(-24 -710)" fill="#F5F7FA"/>
<g id="&#229;&#141;&#161;&#231;&#137;&#135;&#229;&#140;&#186;&#229;&#159;&#159;">
<g id="&#229;&#143;&#175;&#231;&#188;&#150;&#232;&#190;&#145;&#229;&#141;&#161;&#231;&#137;&#135;">
<rect width="800" height="372" transform="translate(-24 -226)" fill="white"/>
<g id="&#230;&#172;&#161;&#232;&#166;&#129;&#228;&#191;&#161;&#230;&#129;&#175;&#229;&#140;&#186;&#229;&#159;&#159;">
<g id="&#229;&#138;&#159;&#232;&#131;&#189;&#230;&#140;&#137;&#233;&#146;&#174;">
<g id="icon-&#231;&#187;&#136;&#230;&#163;&#128;&#229;&#140;&#133;&#232;&#163;&#133;">
<rect width="96" height="96" rx="36" fill="url(#paint0_linear_1062_14464)"/>
<path id="Vector" d="M48.6646 44.911C47.9128 45.2199 48.1119 45.2724 47.1969 44.8935L22.665 34.3279C22.4647 34.1322 22.3476 33.862 22.3393 33.5767C22.3311 33.2915 22.4325 33.0145 22.6211 32.8067L22.6216 32.8058L46.5413 22.2529C47.0843 21.9913 47.6369 21.8416 48.6262 22.2678L72.9872 32.6195C73.4049 33.043 73.4268 33.725 73.0328 34.1411L48.6646 44.911ZM49.402 73.6841C49.4026 73.9935 49.5215 74.2901 49.7327 74.5087C49.9439 74.7272 50.2301 74.85 50.5284 74.85L73.8787 62.2264C74.7891 61.6358 75 60.5923 75 59.0729V37.7649C75.0006 37.4572 74.8833 37.1618 74.674 36.9437C74.4647 36.7255 74.1805 36.6025 73.8837 36.6016H73.8787L50.5284 46.7643C49.402 47.2197 49.402 47.8151 49.402 48.4578V73.6841ZM45.4799 46.7643L22.1271 36.602C21.9801 36.6017 21.8345 36.6314 21.6986 36.6894C21.5627 36.7474 21.4391 36.8326 21.335 36.9401C21.2308 37.0477 21.1481 37.1754 21.0915 37.3161C21.035 37.4568 21.0057 37.6077 21.0054 37.7601V62.2513C21.0054 62.5108 20.8564 62.884 22.1271 63.4142L45.4799 74.85C45.7777 74.8494 46.063 74.7263 46.2734 74.5077C46.4837 74.2891 46.6018 73.9929 46.6016 73.6841V48.4578C46.6016 47.8151 46.6016 47.2197 45.4799 46.7643ZM37.8541 52.7917C34.8634 51.4409 31.8756 50.0833 28.8906 48.719C28.4008 48.4976 28.1532 48.408 28.1532 48.0015V45.3091C28.1409 44.9578 28.3476 44.4923 28.7438 44.649L37.9499 48.8411C38.8071 49.262 38.5451 49.3145 38.5835 50.9161V52.2505C38.5844 52.5156 38.3418 53.0087 37.8541 52.7917Z" fill="url(#paint1_linear_1062_14464)"/>
<rect x="0.5" y="0.5" width="95" height="95" rx="35.5" stroke="black" stroke-opacity="0.2"/>
</g>
</g>
</g>
</g>
</g>
</g>
<defs>
<linearGradient id="paint0_linear_1062_14464" x1="0" y1="0" x2="0" y2="96" gradientUnits="userSpaceOnUse">
<stop stop-color="#F29620"/>
<stop offset="1" stop-color="#FFBD3E"/>
</linearGradient>
<linearGradient id="paint1_linear_1062_14464" x1="48" y1="22" x2="48" y2="74.85" gradientUnits="userSpaceOnUse">
<stop stop-color="white"/>
<stop offset="0.958333" stop-color="white" stop-opacity="0.8"/>
</linearGradient>
<clipPath id="clip0_1062_14464">
<rect width="800" height="1648" fill="white" transform="translate(-24 -710)"/>
</clipPath>
</defs>
</svg>
