<svg width="96" height="96" viewBox="0 0 96 96" fill="none" xmlns="http://www.w3.org/2000/svg">
<rect width="96" height="96" fill="#F5F5F5"/>
<g id="&#229;&#183;&#165;&#228;&#189;&#156;&#228;&#184;&#173;&#229;&#191;&#131;" clip-path="url(#clip0_1062_14464)">
<rect width="800" height="1648" transform="translate(-24 -548)" fill="#F5F7FA"/>
<g id="&#229;&#141;&#161;&#231;&#137;&#135;&#229;&#140;&#186;&#229;&#159;&#159;">
<g id="&#229;&#143;&#175;&#231;&#188;&#150;&#232;&#190;&#145;&#229;&#141;&#161;&#231;&#137;&#135;">
<rect width="800" height="372" transform="translate(-24 -64)" fill="white"/>
<g id="&#230;&#172;&#161;&#232;&#166;&#129;&#228;&#191;&#161;&#230;&#129;&#175;&#229;&#140;&#186;&#229;&#159;&#159;">
<g id="&#229;&#138;&#159;&#232;&#131;&#189;&#230;&#140;&#137;&#233;&#146;&#174;">
<g id="icon-&#232;&#163;&#133;&#229;&#159;&#154;">
<rect width="96" height="96" rx="36" fill="url(#paint0_linear_1062_14464)"/>
<g id="Group 2">
<path id="Rectangle 9" d="M24 43H72V61C72 70.9411 61.2548 79 48 79C34.7452 79 24 70.9411 24 61V43Z" fill="url(#paint1_linear_1062_14464)"/>
<path id="Ellipse 2" d="M71 43C71 43.2566 70.7678 43.7874 69.6051 44.4746C68.5094 45.1223 66.8572 45.7402 64.728 46.2725C60.485 47.3333 54.5703 48 48 48C41.4297 48 35.515 47.3333 31.272 46.2725C29.1428 45.7402 27.4906 45.1223 26.3949 44.4746C25.2322 43.7874 25 43.2566 25 43C25 42.7434 25.2322 42.2126 26.3949 41.5254C27.4906 40.8777 29.1428 40.2598 31.272 39.7275C35.515 38.6667 41.4297 38 48 38C54.5703 38 60.485 38.6667 64.728 39.7275C66.8572 40.2598 68.5094 40.8777 69.6051 41.5254C70.7678 42.2126 71 42.7434 71 43Z" fill="#19BFA6" stroke="white" stroke-width="2"/>
<g id="Union" filter="url(#filter0_d_1062_14464)">
<path fill-rule="evenodd" clip-rule="evenodd" d="M52 25L55.7395 25C56.6076 25 57.0634 26.0303 56.4794 26.6727L48.74 35.1861C48.3432 35.6225 47.6568 35.6225 47.2601 35.1861L39.5206 26.6727C38.9367 26.0303 39.3924 25 40.2606 25L44 25L44 18C44 17.4477 44.4477 17 45 17H51C51.5523 17 52 17.4477 52 18V25Z" fill="url(#paint2_linear_1062_14464)"/>
</g>
<g id="Group 1">
<rect id="Rectangle 10" x="24" y="34" width="3" height="3" fill="white"/>
<rect id="Rectangle 23" x="24" y="23" width="3" height="3" fill="white"/>
<rect id="Rectangle 11" x="32" y="35" width="3" height="3" fill="white"/>
<rect id="Rectangle 24" x="31" y="19" width="3" height="3" fill="white"/>
<rect id="Rectangle 18" x="35" y="29" width="3" height="3" fill="white"/>
<rect id="Rectangle 20" x="27" y="29" width="3" height="3" fill="white"/>
<rect id="Rectangle 12" x="37" y="42" width="3" height="3" fill="white"/>
<rect id="Rectangle 25" x="36" y="22" width="3" height="3" fill="white"/>
<rect id="Rectangle 16" x="62" y="34" width="3" height="3" fill="white"/>
<rect id="Rectangle 26" x="63" y="19" width="3" height="3" fill="white"/>
<rect id="Rectangle 21" x="56" y="42" width="3" height="3" fill="white"/>
<rect id="Rectangle 29" x="47" y="40" width="3" height="3" fill="white"/>
<rect id="Rectangle 27" x="57" y="22" width="3" height="3" fill="white"/>
<rect id="Rectangle 19" x="65" y="27" width="3" height="3" fill="white"/>
<rect id="Rectangle 22" x="58" y="29" width="3" height="3" fill="white"/>
<rect id="Rectangle 17" x="68" y="34" width="3" height="3" fill="white"/>
<rect id="Rectangle 28" x="69" y="22" width="3" height="3" fill="white"/>
</g>
</g>
<rect x="0.5" y="0.5" width="95" height="95" rx="35.5" stroke="black" stroke-opacity="0.2"/>
</g>
</g>
</g>
</g>
</g>
</g>
<defs>
<filter id="filter0_d_1062_14464" x="36.2586" y="15" width="23.4828" height="24.5134" filterUnits="userSpaceOnUse" color-interpolation-filters="sRGB">
<feFlood flood-opacity="0" result="BackgroundImageFix"/>
<feColorMatrix in="SourceAlpha" type="matrix" values="0 0 0 0 0 0 0 0 0 0 0 0 0 0 0 0 0 0 127 0" result="hardAlpha"/>
<feOffset dy="1"/>
<feGaussianBlur stdDeviation="1.5"/>
<feComposite in2="hardAlpha" operator="out"/>
<feColorMatrix type="matrix" values="0 0 0 0 0.137255 0 0 0 0 0.611765 0 0 0 0 0.541176 0 0 0 0.5 0"/>
<feBlend mode="normal" in2="BackgroundImageFix" result="effect1_dropShadow_1062_14464"/>
<feBlend mode="normal" in="SourceGraphic" in2="effect1_dropShadow_1062_14464" result="shape"/>
</filter>
<linearGradient id="paint0_linear_1062_14464" x1="0" y1="0" x2="0" y2="96" gradientUnits="userSpaceOnUse">
<stop stop-color="#02BFA3"/>
<stop offset="0.0001" stop-color="#06BA9E"/>
<stop offset="1" stop-color="#67D0C4"/>
</linearGradient>
<linearGradient id="paint1_linear_1062_14464" x1="48" y1="43" x2="48" y2="79" gradientUnits="userSpaceOnUse">
<stop stop-color="white"/>
<stop offset="1" stop-color="#D7FBF6"/>
</linearGradient>
<linearGradient id="paint2_linear_1062_14464" x1="48.0098" y1="16" x2="48.0098" y2="35.6162" gradientUnits="userSpaceOnUse">
<stop stop-color="white"/>
<stop offset="1" stop-color="#D9FCF7"/>
</linearGradient>
<clipPath id="clip0_1062_14464">
<rect width="800" height="1648" fill="white" transform="translate(-24 -548)"/>
</clipPath>
</defs>
</svg>
