<svg width="96" height="96" viewBox="0 0 96 96" fill="none" xmlns="http://www.w3.org/2000/svg">
<rect width="96" height="96" fill="#F5F5F5"/>
<g id="&#229;&#183;&#165;&#228;&#189;&#156;&#228;&#184;&#173;&#229;&#191;&#131;" clip-path="url(#clip0_1062_14464)">
<rect width="800" height="1648" transform="translate(-516 -1324)" fill="#F5F7FA"/>
<g id="&#229;&#141;&#161;&#231;&#137;&#135;&#229;&#140;&#186;&#229;&#159;&#159;">
<g id="&#229;&#143;&#175;&#231;&#188;&#150;&#232;&#190;&#145;&#229;&#141;&#161;&#231;&#137;&#135;">
<rect width="800" height="372" transform="translate(-516 -64)" fill="white"/>
<g id="&#230;&#172;&#161;&#232;&#166;&#129;&#228;&#191;&#161;&#230;&#129;&#175;&#229;&#140;&#186;&#229;&#159;&#159;">
<g id="&#229;&#138;&#159;&#232;&#131;&#189;&#230;&#140;&#137;&#233;&#146;&#174;">
<g id="icon-&#231;&#177;&#189;&#230;&#153;&#182;&#229;&#174;&#137;&#232;&#163;&#133;">
<rect width="96" height="96" rx="36" fill="url(#paint0_linear_1062_14464)"/>
<g id="Group 9">
<g id="Group 4">
<g id="Union" filter="url(#filter0_d_1062_14464)">
<path fill-rule="evenodd" clip-rule="evenodd" d="M76 51.6772H20V64.5247H20.0003C20.0001 64.5354 20 64.5462 20 64.557C20 68.6677 32.536 72 48 72C63.464 72 76 68.6677 76 64.557C76 64.5462 75.9999 64.5354 75.9997 64.5247H76V51.6772Z" fill="url(#paint1_linear_1062_14464)"/>
</g>
<ellipse id="Ellipse 5" cx="48" cy="51.6772" rx="28" ry="7.44298" fill="url(#paint2_linear_1062_14464)"/>
</g>
<path id="Union_2" fill-rule="evenodd" clip-rule="evenodd" d="M50.7751 46.2009H53.4971C54.368 46.2009 54.8227 47.2367 54.2332 47.8778L48.5112 54.1007C48.1151 54.5315 47.4352 54.5315 47.039 54.1007L41.317 47.8778C40.7276 47.2367 41.1823 46.2009 42.0531 46.2009H44.7751L44.7751 38.934C44.7751 38.6578 44.999 38.434 45.2751 38.434H50.2751C50.5513 38.434 50.7751 38.6578 50.7751 38.934L50.7751 46.2009Z" fill="url(#paint3_linear_1062_14464)"/>
<path id="Ellipse 6" d="M75.5 29.443C75.5 30.1997 74.9153 31.0484 73.5336 31.9168C72.1772 32.7692 70.1813 33.5553 67.6705 34.2227C62.6563 35.5556 55.7015 36.386 48 36.386C40.2985 36.386 33.3437 35.5556 28.3295 34.2227C25.8187 33.5553 23.8228 32.7692 22.4664 31.9168C21.0847 31.0484 20.5 30.1997 20.5 29.443C20.5 28.6863 21.0847 27.8376 22.4664 26.9692C23.8228 26.1167 25.8187 25.3306 28.3295 24.6632C33.3437 23.3303 40.2985 22.5 48 22.5C55.7015 22.5 62.6563 23.3303 67.6705 24.6632C70.1813 25.3306 72.1772 26.1167 73.5336 26.9692C74.9153 27.8376 75.5 28.6863 75.5 29.443Z" fill="url(#paint4_linear_1062_14464)" stroke="white"/>
</g>
<rect x="0.5" y="0.5" width="95" height="95" rx="35.5" stroke="black" stroke-opacity="0.2"/>
</g>
</g>
</g>
</g>
</g>
</g>
<defs>
<filter id="filter0_d_1062_14464" x="17" y="49.6772" width="62" height="26.3228" filterUnits="userSpaceOnUse" color-interpolation-filters="sRGB">
<feFlood flood-opacity="0" result="BackgroundImageFix"/>
<feColorMatrix in="SourceAlpha" type="matrix" values="0 0 0 0 0 0 0 0 0 0 0 0 0 0 0 0 0 0 127 0" result="hardAlpha"/>
<feOffset dy="1"/>
<feGaussianBlur stdDeviation="1.5"/>
<feComposite in2="hardAlpha" operator="out"/>
<feColorMatrix type="matrix" values="0 0 0 0 0.0705882 0 0 0 0 0.588235 0 0 0 0 0.733333 0 0 0 0.5 0"/>
<feBlend mode="normal" in2="BackgroundImageFix" result="effect1_dropShadow_1062_14464"/>
<feBlend mode="normal" in="SourceGraphic" in2="effect1_dropShadow_1062_14464" result="shape"/>
</filter>
<linearGradient id="paint0_linear_1062_14464" x1="0" y1="0" x2="0" y2="96" gradientUnits="userSpaceOnUse">
<stop stop-color="#09ADE7"/>
<stop offset="1" stop-color="#2CD1ED"/>
</linearGradient>
<linearGradient id="paint1_linear_1062_14464" x1="48" y1="51.6772" x2="48" y2="75.8669" gradientUnits="userSpaceOnUse">
<stop stop-color="#CCF4FF"/>
<stop offset="1" stop-color="#8FE7FF"/>
</linearGradient>
<linearGradient id="paint2_linear_1062_14464" x1="48" y1="44.2342" x2="48" y2="59.1201" gradientUnits="userSpaceOnUse">
<stop stop-color="white"/>
<stop offset="1" stop-color="#E6F8FD"/>
</linearGradient>
<linearGradient id="paint3_linear_1062_14464" x1="47.5583" y1="38" x2="47.5583" y2="50.5224" gradientUnits="userSpaceOnUse">
<stop stop-color="white"/>
<stop offset="1" stop-color="#1ABEEA"/>
</linearGradient>
<linearGradient id="paint4_linear_1062_14464" x1="48" y1="22" x2="48" y2="36.886" gradientUnits="userSpaceOnUse">
<stop stop-color="white"/>
<stop offset="1" stop-color="#BCF1FF"/>
</linearGradient>
<clipPath id="clip0_1062_14464">
<rect width="800" height="1648" fill="white" transform="translate(-516 -1324)"/>
</clipPath>
</defs>
</svg>
